<svg width="311" height="498" viewBox="0 0 311 498" fill="none" xmlns="http://www.w3.org/2000/svg">
<g opacity="0.5">
<path d="M341.814 491.244C336.275 485.325 333.087 477.661 332.708 469.542L314.42 42.4668H310.019L291.731 469.542C291.351 477.585 288.164 485.325 282.625 491.244L279.438 494.659V498.302H344.925V494.659L341.738 491.244H341.814Z" fill="#FCFAF7"/>
<path d="M301.214 356.351C323.524 337.683 345.379 318.409 367.006 299.058C369.51 296.782 372.545 293.974 375.277 292.077C384.687 285.399 396.069 281.833 407.452 281.985L417.317 282.288C430.293 282.743 461.936 283.351 475.292 283.654C481.287 283.654 497.905 284.565 503.521 283.958C512.096 282.971 520.367 279.405 526.817 273.561L540.932 260.434C547.913 253.832 562.255 240.704 569.388 234.178L572.348 237.137C565.822 244.27 552.77 258.536 546.092 265.594L532.888 279.784C523.251 290.104 508.529 295.72 494.642 295.264C470.511 295.947 436.515 296.403 412.46 297.237C411.853 297.237 409.425 297.313 408.818 297.389C400.546 297.768 392.427 301.031 386.28 306.495C384.307 308.013 382.106 310.82 380.361 312.642C361.011 334.269 341.736 356.123 323.069 378.433L301.062 356.427L301.214 356.351Z" fill="#FCFAF7"/>
<path d="M301.222 378.357C282.555 356.047 263.28 334.193 243.93 312.566C235.355 302.17 225.49 297.161 211.907 297.237C196.351 296.63 165.011 296.099 149.075 295.72L129.725 295.264C123.123 295.264 115.307 294.354 109.008 291.622C102.406 288.966 96.3358 284.868 91.4792 279.784L78.2754 265.594L65.0716 251.403L52.0195 237.137L54.979 234.178C62.188 240.704 76.3783 253.832 83.4355 260.434L97.5499 273.561C101.875 277.432 107.035 280.391 112.499 282.136C118.342 284.033 123.426 284.413 129.801 284.109L149.151 283.654C167.667 283.275 198.855 282.668 216.991 281.985C232.168 281.681 246.814 288.359 257.513 299.058C279.14 318.409 300.995 337.683 323.305 356.351L301.298 378.357H301.222Z" fill="#FCFAF7"/>
<path d="M304.937 239.624C291.278 223.841 277.467 208.208 263.429 192.804L242.409 169.659C236.11 161.995 228.446 158.277 218.202 158.656C176.542 157.518 134.957 156.531 93.2969 155.697V153.648C114.089 153.344 134.957 152.737 155.749 152.282C176.542 151.751 197.41 151.371 218.202 150.688C226.928 150.005 235.959 151.827 243.168 156.987C247.948 160.477 267.906 179.373 272.762 183.546C288.167 197.585 303.799 211.396 319.583 225.055L304.937 239.7V239.624Z" fill="#FCFAF7"/>
<path d="M304.932 225.047C327.773 205.393 352.511 182.931 374.897 162.518C378.994 158.421 383.851 154.778 389.315 152.805C394.702 150.681 400.621 150.301 406.312 150.681C427.105 151.363 447.973 151.743 468.765 152.274C489.557 152.729 510.425 153.336 531.217 153.64V155.689C489.557 156.524 447.973 157.51 406.312 158.648C396.068 158.269 388.404 161.987 382.106 169.651L361.086 192.796C347.047 208.201 333.236 223.833 319.577 239.616L304.932 224.971V225.047Z" fill="#FCFAF7"/>
<path d="M307.811 130.401C324.96 114.541 368.442 74.3226 385.06 59.0699C388.931 55.4275 391.131 50.1915 390.979 44.5761L391.511 27.0469H393.18L393.787 44.5761C394.318 50.7227 392.345 57.4004 388.02 61.9535L364.192 87.754L316.613 139.279L307.811 130.477V130.401Z" fill="#FCFAF7"/>
<path d="M307.815 139.256L226.012 50.9266L228.288 48.5742L316.617 130.453L307.815 139.256Z" fill="#FCFAF7"/>
<path d="M188.825 340.736C183.286 346.275 180.706 353.712 181.085 360.997C188.37 361.376 195.807 358.796 201.346 353.256C206.886 347.717 209.466 340.28 209.086 332.995C201.802 332.616 194.365 335.196 188.825 340.736Z" fill="#FCFAF7"/>
<path d="M176.609 309.226C171.069 314.765 168.489 322.202 168.869 329.487C176.153 329.866 183.59 327.286 189.13 321.747C194.669 316.207 197.249 308.771 196.87 301.486C189.585 301.106 182.148 303.686 176.609 309.226Z" fill="#FCFAF7"/>
<path d="M148.074 309.226C142.534 314.765 139.954 322.202 140.333 329.487C147.618 329.866 155.055 327.286 160.594 321.747C166.134 316.207 168.714 308.771 168.335 301.486C161.05 301.106 153.613 303.686 148.074 309.226Z" fill="#FCFAF7"/>
<path d="M32.5051 177.142C26.9656 182.681 24.3856 190.118 24.765 197.403C32.0499 197.782 39.4865 195.202 45.026 189.663C50.5655 184.123 53.1455 176.687 52.7661 169.402C45.4813 169.022 38.0447 171.602 32.5051 177.142Z" fill="#FCFAF7"/>
<path d="M58.0892 177.142C52.5496 182.681 49.9696 190.118 50.349 197.403C57.6338 197.782 65.0705 195.202 70.61 189.663C76.1496 184.123 78.7296 176.687 78.3502 169.402C71.0653 169.022 63.6287 171.602 58.0892 177.142Z" fill="#FCFAF7"/>
<path d="M83.7258 177.142C78.1863 182.681 75.6063 190.118 75.9857 197.403C83.2706 197.782 90.7072 195.202 96.2467 189.663C101.786 184.123 104.366 176.687 103.987 169.402C96.702 169.022 89.2654 171.602 83.7258 177.142Z" fill="#FCFAF7"/>
<path d="M157.558 177.142C152.018 182.681 149.438 190.118 149.818 197.403C157.103 197.782 164.539 195.202 170.079 189.663C175.618 184.123 178.198 176.687 177.819 169.402C170.534 169.022 163.097 171.602 157.558 177.142Z" fill="#FCFAF7"/>
<path d="M236.478 96.1087C230.938 101.648 228.358 109.085 228.738 116.37C236.023 116.749 243.459 114.169 248.999 108.63C254.538 103.09 257.118 95.6534 256.739 88.3685C249.454 87.9891 242.017 90.5691 236.478 96.1087Z" fill="#FCFAF7"/>
<path d="M206.806 66.1028C201.266 71.6423 198.686 79.079 199.066 86.3638C206.351 86.7432 213.787 84.1632 219.327 78.6237C224.866 73.0841 227.446 65.6475 227.067 58.3627C219.782 57.9832 212.345 60.5633 206.806 66.1028Z" fill="#FCFAF7"/>
<path d="M244.533 31.0657C238.993 36.6052 236.413 44.0419 236.792 51.3267C244.077 51.7061 251.514 49.1261 257.053 43.5866C262.593 38.047 265.173 30.6104 264.794 23.3255C257.509 22.9461 250.072 25.5262 244.533 31.0657Z" fill="#FCFAF7"/>
<path d="M182.302 55.2981C176.762 60.8377 174.182 68.2743 174.562 75.5591C181.847 75.9386 189.283 73.3585 194.823 67.819C200.362 62.2794 202.942 54.8428 202.563 47.558C195.278 47.1785 187.842 49.7586 182.302 55.2981Z" fill="#FCFAF7"/>
<path d="M234.892 13.7727C229.352 19.3123 226.772 26.7489 227.152 34.0337C234.437 34.4132 241.873 31.8331 247.413 26.2936C252.952 20.7541 255.532 13.3174 255.153 6.03258C247.868 5.65316 240.431 8.23321 234.892 13.7727Z" fill="#FCFAF7"/>
<path d="M303.42 19.8057C303.42 27.6976 306.835 34.7548 312.298 39.6114C317.762 34.7548 321.177 27.6976 321.177 19.8057C321.177 11.9138 317.762 4.85657 312.298 0C306.835 4.85657 303.42 11.9138 303.42 19.8057Z" fill="#FCFAF7"/>
<path d="M119.089 66.5774C113.55 72.117 110.97 79.5536 111.349 86.8384C118.634 87.2178 126.07 84.6378 131.61 79.0983C137.15 73.5587 139.73 66.1221 139.35 58.8373C132.065 58.4578 124.629 61.0379 119.089 66.5774Z" fill="#FCFAF7"/>
<path d="M150.663 71.5227C145.124 77.0623 142.544 84.4989 142.923 91.7837C150.208 92.1632 157.645 89.5831 163.184 84.0436C168.724 78.5041 171.304 71.0674 170.924 63.7826C163.639 63.4032 156.203 65.9832 150.663 71.5227Z" fill="#FCFAF7"/>
<path d="M149.298 46.3509C143.759 51.8904 141.179 59.327 141.558 66.6119C148.843 66.9913 156.279 64.4112 161.819 58.8717C167.358 53.3322 169.939 45.8956 169.559 38.6107C162.274 38.2313 154.838 40.8113 149.298 46.3509Z" fill="#FCFAF7"/>
<path d="M185.566 177.142C180.026 182.681 177.446 190.118 177.826 197.403C185.11 197.782 192.547 195.202 198.087 189.663C203.626 184.123 206.206 176.687 205.827 169.402C198.542 169.022 191.105 171.602 185.566 177.142Z" fill="#FCFAF7"/>
<path d="M141.028 98.2278C146.568 103.767 149.148 111.204 148.768 118.489C141.483 118.868 134.047 116.288 128.507 110.749C122.968 105.209 120.388 97.7725 120.767 90.4877C128.052 90.1082 135.488 92.6883 141.028 98.2278Z" fill="#FCFAF7"/>
<path d="M112.95 98.2278C118.489 103.767 121.069 111.204 120.69 118.489C113.405 118.868 105.968 116.288 100.429 110.749C94.8894 105.209 92.3094 97.7725 92.6888 90.4877C99.9737 90.1082 107.41 92.6883 112.95 98.2278Z" fill="#FCFAF7"/>
<path d="M218.95 28.9466C224.489 34.4861 227.069 41.9227 226.69 49.2076C219.405 49.587 211.968 47.0069 206.429 41.4674C200.889 35.9279 198.309 28.4913 198.689 21.2064C205.974 20.827 213.41 23.407 218.95 28.9466Z" fill="#FCFAF7"/>
<path d="M250.517 128.456C244.977 133.996 242.397 141.432 242.777 148.717C250.062 149.097 257.498 146.517 263.038 140.977C268.577 135.438 271.157 128.001 270.778 120.716C263.493 120.337 256.056 122.917 250.517 128.456Z" fill="#FCFAF7"/>
<path d="M292.948 128.456C298.487 133.996 301.067 141.432 300.688 148.717C293.403 149.097 285.967 146.517 280.427 140.977C274.887 135.438 272.307 128.001 272.687 120.716C279.972 120.337 287.408 122.917 292.948 128.456Z" fill="#FCFAF7"/>
<path d="M292.948 156.445C298.487 161.984 301.067 169.421 300.688 176.706C293.403 177.085 285.967 174.505 280.427 168.965C274.887 163.426 272.307 155.989 272.687 148.704C279.972 148.325 287.408 150.905 292.948 156.445Z" fill="#FCFAF7"/>
<path d="M96.4739 325.343C90.9344 330.883 88.3543 338.319 88.7337 345.604C96.0186 345.983 103.455 343.403 108.995 337.864C114.534 332.324 117.114 324.888 116.735 317.603C109.45 317.223 102.013 319.804 96.4739 325.343Z" fill="#FCFAF7"/>
<path d="M77.5787 325.343C83.1183 330.883 85.6983 338.319 85.3189 345.604C78.034 345.983 70.5974 343.403 65.0579 337.864C59.5183 332.324 56.9383 324.888 57.3177 317.603C64.6026 317.223 72.0392 319.804 77.5787 325.343Z" fill="#FCFAF7"/>
<path d="M48.817 325.343C54.3565 330.883 56.9366 338.319 56.5571 345.604C49.2723 345.983 41.8357 343.403 36.2961 337.864C30.7566 332.324 28.1766 324.888 28.556 317.603C35.8409 317.223 43.2775 319.804 48.817 325.343Z" fill="#FCFAF7"/>
<path d="M20.2975 325.343C25.837 330.883 28.4171 338.319 28.0377 345.604C20.7528 345.983 13.3161 343.403 7.77662 337.864C2.23709 332.324 -0.342937 324.888 0.036483 317.603C7.32134 317.223 14.7579 319.804 20.2975 325.343Z" fill="#FCFAF7"/>
<path d="M21.0494 296.753C26.589 302.293 29.169 309.729 28.7896 317.014C21.5048 317.394 14.0682 314.814 8.52863 309.274C2.9891 303.735 0.409016 296.298 0.788435 289.013C8.07329 288.634 15.5099 291.214 21.0494 296.753Z" fill="#FCFAF7"/>
<path d="M44.4947 214.193C50.0343 219.732 52.6143 227.169 52.2349 234.454C44.95 234.833 37.5134 232.253 31.9739 226.714C26.4344 221.174 23.8543 213.737 24.2337 206.452C31.5186 206.073 38.9552 208.653 44.4947 214.193Z" fill="#FCFAF7"/>
<path d="M49.1295 296.753C54.669 302.293 57.2491 309.729 56.8696 317.014C49.5848 317.394 42.1482 314.814 36.6086 309.274C31.0691 303.735 28.4891 296.298 28.8685 289.013C36.1534 288.634 43.59 291.214 49.1295 296.753Z" fill="#FCFAF7"/>
<path d="M216.592 259.12C222.132 264.66 224.712 272.097 224.333 279.381C217.048 279.761 209.611 277.181 204.072 271.641C198.532 266.102 195.952 258.665 196.331 251.38C203.616 251.001 211.053 253.581 216.592 259.12Z" fill="#FCFAF7"/>
<path d="M187.768 259.12C193.308 264.66 195.888 272.097 195.508 279.381C188.224 279.761 180.787 277.181 175.247 271.641C169.708 266.102 167.128 258.665 167.507 251.38C174.792 251.001 182.229 253.581 187.768 259.12Z" fill="#FCFAF7"/>
<path d="M188.073 230.546C193.612 236.086 196.192 243.522 195.813 250.807C188.528 251.187 181.092 248.607 175.552 243.067C170.012 237.527 167.432 230.091 167.812 222.806C175.097 222.427 182.533 225.007 188.073 230.546Z" fill="#FCFAF7"/>
<path d="M80.4641 296.753C74.9246 302.293 72.3446 309.729 72.724 317.014C80.0088 317.394 87.4455 314.814 92.985 309.274C98.5245 303.735 101.105 296.298 100.725 289.013C93.4403 288.634 86.0036 291.214 80.4641 296.753Z" fill="#FCFAF7"/>
<path d="M63.6126 280.06C58.073 285.599 55.493 293.036 55.8724 300.321C63.1573 300.7 70.5939 298.12 76.1334 292.581C81.6729 287.041 84.253 279.605 83.8736 272.32C76.5887 271.94 69.1521 274.52 63.6126 280.06Z" fill="#FCFAF7"/>
<path d="M46.8547 263.234C41.3152 268.773 38.7352 276.21 39.1146 283.495C46.3995 283.874 53.8361 281.294 59.3756 275.755C64.9151 270.215 67.4952 262.778 67.1157 255.494C59.8309 255.114 52.3943 257.694 46.8547 263.234Z" fill="#FCFAF7"/>
<path d="M30.0051 246.406C24.4656 251.945 21.8856 259.382 22.265 266.667C29.5499 267.046 36.9865 264.466 42.526 258.926C48.0655 253.387 50.6456 245.95 50.2662 238.665C42.9813 238.286 35.5447 240.866 30.0051 246.406Z" fill="#FCFAF7"/>
<path d="M117.572 259.12C112.032 264.66 109.452 272.097 109.831 279.381C117.116 279.761 124.553 277.181 130.092 271.641C135.632 266.102 138.212 258.665 137.833 251.38C130.548 251.001 123.111 253.581 117.572 259.12Z" fill="#FCFAF7"/>
<path d="M99.7376 243.48C94.198 249.019 91.618 256.456 91.9974 263.741C99.2823 264.12 106.719 261.54 112.258 256.001C117.798 250.461 120.378 243.024 119.999 235.74C112.714 235.36 105.277 237.94 99.7376 243.48Z" fill="#FCFAF7"/>
<path d="M81.8294 227.72C76.2898 233.26 73.7098 240.696 74.0892 247.981C81.3741 248.36 88.8107 245.78 94.3502 240.241C99.8897 234.701 102.47 227.265 102.09 219.98C94.8055 219.6 87.3689 222.18 81.8294 227.72Z" fill="#FCFAF7"/>
<path d="M63.9231 212.066C58.3836 217.605 55.8035 225.042 56.183 232.327C63.4678 232.706 70.9044 230.126 76.444 224.587C81.9835 219.047 84.5635 211.61 84.1841 204.326C76.8992 203.946 69.4626 206.526 63.9231 212.066Z" fill="#FCFAF7"/>
<path d="M252.792 221.48C247.253 227.019 244.673 234.456 245.052 241.741C252.337 242.12 259.774 239.54 265.313 234.001C270.853 228.461 273.433 221.024 273.053 213.74C265.768 213.36 258.332 215.94 252.792 221.48Z" fill="#FCFAF7"/>
<path d="M239.138 206.072C233.598 211.611 231.018 219.048 231.398 226.333C238.683 226.712 246.119 224.132 251.659 218.592C257.198 213.053 259.778 205.616 259.399 198.331C252.114 197.952 244.678 200.532 239.138 206.072Z" fill="#FCFAF7"/>
<path d="M225.407 190.675C219.868 196.215 217.288 203.651 217.667 210.936C224.952 211.316 232.389 208.735 237.928 203.196C243.468 197.656 246.048 190.22 245.669 182.935C238.384 182.556 230.947 185.136 225.407 190.675Z" fill="#FCFAF7"/>
<path d="M217.669 321.747C223.208 316.207 225.788 308.771 225.409 301.486C218.124 301.106 210.687 303.686 205.148 309.226C199.608 314.765 197.028 322.202 197.408 329.487C204.692 329.866 212.129 327.286 217.669 321.747Z" fill="#FCFAF7"/>
<path d="M232.768 339.856C238.308 334.317 240.888 326.88 240.508 319.595C233.224 319.216 225.787 321.796 220.247 327.335C214.708 332.875 212.128 340.311 212.507 347.596C219.792 347.976 227.229 345.396 232.768 339.856Z" fill="#FCFAF7"/>
<path d="M247.794 357.846C253.333 352.307 255.913 344.87 255.534 337.585C248.249 337.206 240.812 339.786 235.273 345.325C229.733 350.865 227.153 358.302 227.533 365.586C234.817 365.966 242.254 363.386 247.794 357.846Z" fill="#FCFAF7"/>
<path d="M262.817 375.741C268.357 370.201 270.937 362.765 270.557 355.48C263.272 355.1 255.836 357.68 250.296 363.22C244.757 368.76 242.177 376.196 242.556 383.481C249.841 383.86 257.277 381.28 262.817 375.741Z" fill="#FCFAF7"/>
<path d="M277.917 393.729C283.456 388.19 286.036 380.753 285.657 373.468C278.372 373.089 270.935 375.669 265.396 381.208C259.856 386.748 257.276 394.184 257.656 401.469C264.94 401.849 272.377 399.269 277.917 393.729Z" fill="#FCFAF7"/>
<path d="M295.516 79.5286C301.056 85.0681 303.636 92.5047 303.256 99.7896C295.972 100.169 288.535 97.589 282.995 92.0494C277.456 86.5099 274.876 79.0733 275.255 71.7884C282.54 71.409 289.977 73.9891 295.516 79.5286Z" fill="#FCFAF7"/>
<path d="M295.516 50.9388C301.056 56.4783 303.636 63.9149 303.256 71.1998C295.972 71.5792 288.535 68.9991 282.995 63.4596C277.456 57.9201 274.876 50.4834 275.255 43.1986C282.54 42.8192 289.977 45.3992 295.516 50.9388Z" fill="#FCFAF7"/>
<path d="M295.516 22.3645C301.056 27.9041 303.636 35.3407 303.256 42.6255C295.972 43.005 288.535 40.4249 282.995 34.8854C277.456 29.3459 274.876 21.9092 275.255 14.6244C282.54 14.245 289.977 16.825 295.516 22.3645Z" fill="#FCFAF7"/>
<path d="M85.8541 128.456C91.3936 133.996 93.9737 141.432 93.5943 148.717C86.3095 149.097 78.8728 146.517 73.3333 140.977C67.7937 135.438 65.2137 128.001 65.5931 120.716C72.878 120.337 80.3146 122.917 85.8541 128.456Z" fill="#FCFAF7"/>
<path d="M114.153 128.456C119.692 133.996 122.273 141.432 121.893 148.717C114.608 149.097 107.172 146.517 101.632 140.977C96.0926 135.438 93.5125 128.001 93.892 120.716C101.177 120.337 108.613 122.917 114.153 128.456Z" fill="#FCFAF7"/>
<path d="M142.471 128.456C148.011 133.996 150.591 141.432 150.211 148.717C142.927 149.097 135.49 146.517 129.951 140.977C124.411 135.438 121.831 128.001 122.21 120.716C129.495 120.337 136.932 122.917 142.471 128.456Z" fill="#FCFAF7"/>
<path d="M170.77 128.456C176.31 133.996 178.89 141.432 178.51 148.717C171.225 149.097 163.789 146.517 158.249 140.977C152.71 135.438 150.13 128.001 150.509 120.716C157.794 120.337 165.231 122.917 170.77 128.456Z" fill="#FCFAF7"/>
<path d="M199.145 128.456C204.685 133.996 207.265 141.432 206.885 148.717C199.6 149.097 192.164 146.517 186.624 140.977C181.085 135.438 178.505 128.001 178.884 120.716C186.169 120.337 193.606 122.917 199.145 128.456Z" fill="#FCFAF7"/>
<path d="M227.46 128.456C232.999 133.996 235.579 141.432 235.2 148.717C227.915 149.097 220.478 146.517 214.939 140.977C209.399 135.438 206.819 128.001 207.199 120.716C214.483 120.337 221.92 122.917 227.46 128.456Z" fill="#FCFAF7"/>
<path d="M275.331 281.111C269.792 286.65 267.212 294.087 267.591 301.372C274.876 301.751 282.313 299.171 287.852 293.631C293.392 288.092 295.972 280.655 295.592 273.37C288.307 272.991 280.871 275.571 275.331 281.111Z" fill="#FCFAF7"/>
<path d="M258.488 266.88C252.948 272.42 250.368 279.856 250.747 287.141C258.032 287.521 265.469 284.941 271.008 279.401C276.548 273.861 279.128 266.425 278.749 259.14C271.464 258.761 264.027 261.341 258.488 266.88Z" fill="#FCFAF7"/>
<path d="M241.638 252.648C236.098 258.187 233.518 265.624 233.898 272.909C241.183 273.288 248.619 270.708 254.159 265.169C259.698 259.629 262.278 252.192 261.899 244.908C254.614 244.528 247.177 247.108 241.638 252.648Z" fill="#FCFAF7"/>
</g>
</svg>
