<svg width="128" height="64" viewBox="0 0 128 64" fill="none" xmlns="http://www.w3.org/2000/svg">
<g clip-path="url(#clip0_5468_27484)">
<path d="M11.9406 50.1252C11.9406 50.1252 11.9053 50.1202 11.8851 50.1202C11.8599 50.1101 11.8347 50.1051 11.8095 50.1051L11.5827 50.0748C11.4869 50.0647 11.3408 50.0395 11.1442 50.0093C10.8216 49.9337 10.6502 49.7321 10.6048 49.3792C10.5796 49.1978 10.5645 48.9054 10.5645 48.5022L10.5343 47.8267C10.5242 47.7259 10.5191 47.5596 10.5191 47.3378L10.4738 46.2793C10.4637 46.118 10.4587 45.871 10.4587 45.5232L10.4435 44.9435C10.4335 44.7722 10.4284 44.505 10.4284 44.1522L10.4435 43.7691C10.4536 43.638 10.4587 43.4414 10.4587 43.1743C10.4587 42.9071 10.4536 42.7055 10.4435 42.5644C10.4335 42.5039 10.4335 42.4636 10.4385 42.4434C10.4435 42.388 10.4486 42.3376 10.4435 42.3174C10.4536 42.2418 10.4587 42.1359 10.4587 41.9898C10.4385 41.6672 10.4687 41.3647 10.5393 41.1026C10.5948 40.9161 10.6704 40.775 10.7611 40.6893C10.8468 40.6087 10.9778 40.5482 11.1139 40.523C11.1543 40.523 11.1946 40.5179 11.2248 40.5078C11.2551 40.5078 11.2853 40.5028 11.3156 40.4927H11.376C11.492 40.4927 11.5827 40.4675 11.6482 40.4171L11.7138 40.3869C11.7742 40.3566 11.8196 40.2961 11.8247 40.2256C11.8297 40.155 11.8045 40.0895 11.749 40.0441L11.6936 39.9987C11.6382 39.9433 11.5424 39.8828 11.3912 39.8828C11.3458 39.8828 11.3055 39.8828 11.2702 39.8979L10.7309 39.9433C10.6552 39.9534 10.5645 39.9635 10.4486 39.9735C10.3377 39.9836 10.2016 39.9887 10.0453 39.9887H8.39203C8.22065 39.9887 8.09464 39.9786 7.99887 39.9635L7.89806 39.9483C7.89806 39.9483 7.85269 39.9483 7.82749 39.9483L7.72164 39.9584C7.6057 39.9584 7.53009 40.0088 7.48977 40.0491C7.42928 40.1096 7.39904 40.1852 7.39904 40.2659C7.39904 40.3213 7.41416 40.3969 7.48473 40.4675C7.52505 40.5078 7.59058 40.5532 7.69139 40.5582L7.7922 40.5734C7.90814 40.5935 8.07448 40.5935 8.26602 40.6439C8.2761 40.6439 8.3013 40.649 8.31138 40.649C8.33154 40.649 8.37187 40.6591 8.41219 40.6691C8.47268 40.6893 8.53317 40.7296 8.57853 40.78C8.70455 40.9565 8.77511 41.153 8.80032 41.3799C8.84568 41.8234 8.87088 42.2216 8.87088 42.5543L8.85576 43.6784C8.85576 43.8346 8.85576 43.9505 8.84064 44.0564V44.7772C8.84064 44.7772 8.7852 44.7772 8.75495 44.7772H8.66926C8.59365 44.7772 8.53317 44.7822 8.4878 44.7923C8.02911 44.8377 7.46961 44.8629 6.81938 44.8629L6.06833 44.8931C5.84655 44.9032 5.51387 44.9082 5.06022 44.9082H3.22042L3.16497 42.015L3.18009 41.2841C3.18009 41.1631 3.19521 41.0623 3.22042 40.9917C3.27082 40.8758 3.31115 40.8153 3.33635 40.7851C3.34139 40.775 3.35147 40.77 3.40188 40.7599C3.4422 40.7498 3.52789 40.7246 3.6539 40.6843C3.77488 40.649 3.87065 40.6288 3.91601 40.6187C4.0017 40.6187 4.07227 40.6137 4.10251 40.6036L4.17308 40.5935C4.29909 40.5935 4.40495 40.523 4.43015 40.4373C4.45535 40.3869 4.46543 40.3314 4.46543 40.2709C4.46543 40.2457 4.46039 40.2155 4.45031 40.1953C4.39991 40.0693 4.28901 39.9937 4.15796 39.9937C4.12268 39.9937 4.10755 39.9937 4.10755 39.9937C4.08739 39.9887 4.06219 39.9836 4.04203 39.9836L3.51781 39.9987C3.2809 40.0189 3.09944 40.0391 2.97343 40.0592C2.84237 40.0844 2.68612 40.0996 2.50466 40.0996C2.3232 40.0996 2.1871 40.0996 2.08629 40.0844H1.90987C1.53687 40.0643 1.25964 40.0391 1.0681 39.9987C0.901757 39.9786 0.775743 39.9685 0.695094 39.9685C0.619486 39.9685 0.513634 39.9786 0.417863 39.9987C0.276727 39.9987 0.20616 40.0542 0.165835 40.1046C0.12047 40.16 0.0952673 40.2306 0.0952673 40.3062C0.0952673 40.4574 0.201119 40.6137 0.432985 40.6137C0.488431 40.6137 0.594283 40.6238 0.800946 40.6691C0.916879 40.6943 0.997528 40.6994 0.997528 40.6994C1.16387 40.7296 1.27476 40.7901 1.3302 40.8909C1.49654 41.1782 1.57719 41.4504 1.57719 41.7176C1.59735 41.9444 1.60744 42.1107 1.60744 42.2216C1.60744 42.2922 1.61248 42.4233 1.6276 42.6098C1.64272 42.7761 1.64272 42.9324 1.63264 43.0785C1.63264 43.4112 1.63768 43.6632 1.64776 43.8245L1.66288 44.2227C1.66288 44.5655 1.66288 44.8226 1.64776 44.999L1.63264 45.498C1.63264 45.871 1.63264 46.1533 1.61752 46.3398C1.60744 46.4859 1.6024 46.7027 1.6024 46.99V49.2734C1.6024 49.4145 1.58727 49.5456 1.55703 49.6413C1.50158 49.7825 1.4663 49.853 1.4411 49.8883C1.42598 49.9135 1.40581 49.9337 1.35037 49.9589C1.27476 50.0043 1.16891 50.0395 1.02777 50.0647C0.821108 50.1 0.594283 50.1303 0.352336 50.1504C0.337214 50.1504 0.317052 50.1504 0.30193 50.1605H0.286809C0.0801456 50.1756 -0.015625 50.3168 -0.015625 50.4579C-0.015625 50.5789 0.0347806 50.6494 0.0751051 50.6898C0.130551 50.7503 0.2112 50.7805 0.322093 50.7805H0.553958C0.785824 50.7805 1.00257 50.7654 1.19411 50.7351C1.55199 50.6797 1.84938 50.6495 2.09133 50.6495H2.19718L2.42401 50.6595C2.49961 50.6696 2.61051 50.6747 2.75668 50.6747H2.91798C3.23554 50.6747 3.52285 50.6948 3.80512 50.7351C3.84544 50.7351 3.91601 50.7402 4.01178 50.7553C4.12772 50.7704 4.22853 50.7805 4.31422 50.7805H4.43015C4.43015 50.7805 4.47047 50.7755 4.49568 50.7654H4.54608C4.66202 50.7654 4.75275 50.6747 4.75275 50.5587V50.4882C4.75275 50.4529 4.74266 50.4125 4.7225 50.3823C4.66706 50.2916 4.60153 50.2311 4.52592 50.2059L4.50072 50.1958C4.43519 50.1605 4.35454 50.1353 4.24365 50.1202C4.14284 50.1202 4.01178 50.095 3.86057 50.0446C3.42204 49.8934 3.36659 49.6413 3.36155 49.4548L3.29098 48.603C3.2809 48.4215 3.27586 48.1544 3.27586 47.8015C3.27586 47.5898 3.27082 47.4285 3.26074 47.3378V46.995C3.24562 46.4708 3.22546 46.0676 3.21033 45.7903C3.63374 45.7601 3.99162 45.745 4.28397 45.745H4.69226C4.94933 45.745 5.14087 45.745 5.28705 45.7601H6.50686C6.58751 45.7601 6.65304 45.7601 6.70344 45.745H6.86474C6.93027 45.7551 7.03108 45.7601 7.16213 45.7601C7.31335 45.7601 7.41416 45.7551 7.45449 45.745H7.84765C7.9787 45.745 8.15512 45.7349 8.37187 45.7147C8.58861 45.6946 8.74991 45.6895 8.85576 45.6845C8.88097 45.871 8.89105 46.0726 8.89105 46.2793C8.89105 46.4355 8.89609 46.5565 8.90617 46.612V48.2249C8.90617 48.6887 8.89105 49.0516 8.86584 49.3087C8.84064 49.5809 8.79528 49.6716 8.78015 49.6917C8.6239 49.9337 8.42227 50.0547 8.14504 50.0647L7.76196 50.1101C7.61074 50.1303 7.50489 50.2311 7.48473 50.3722C7.46457 50.4377 7.47465 50.5083 7.50489 50.5638C7.52001 50.6142 7.56034 50.6595 7.61074 50.6847C7.68131 50.72 7.73676 50.7351 7.7922 50.7351C7.80228 50.7351 7.83757 50.7351 7.84765 50.7351L7.93838 50.72C8.11984 50.72 8.25594 50.7099 8.35675 50.6847C8.57349 50.6394 8.87088 50.6142 9.24389 50.6142L10.1562 50.6293C10.4536 50.6293 10.7813 50.6646 11.1492 50.7301C11.3508 50.7503 11.5021 50.7603 11.6079 50.7603H11.87C11.87 50.7603 11.8952 50.7603 11.9103 50.7603C12.0162 50.7402 12.1019 50.6747 12.1624 50.5789C12.1825 50.5486 12.1926 50.5083 12.1926 50.473C12.1926 50.3117 12.0968 50.1908 11.9406 50.1454V50.1252ZM4.14788 40.1651H4.1378C4.1378 40.1651 4.1378 40.1651 4.14284 40.1651H4.14788Z" fill="#715137"/>
<path d="M24.6727 49.915C24.6072 49.8798 24.5366 49.8646 24.466 49.8646H24.4055C24.4055 49.8646 24.3703 49.8646 24.3551 49.8697L24.0729 49.8798C23.5335 49.8697 23.1353 49.658 22.8732 49.2447C22.8279 49.164 22.7825 49.0682 22.7371 48.9422C22.6968 48.8515 22.6716 48.796 22.6565 48.7708C22.5809 48.6347 22.4599 48.3575 22.2835 47.9391L22.1877 47.7375C22.1726 47.6871 22.1474 47.6266 22.1121 47.5561L21.8601 46.9562C21.8399 46.8857 21.7996 46.7748 21.7391 46.6336L21.603 46.2758C21.5223 46.0993 21.4719 45.9885 21.4619 45.9632L21.3358 45.6608C21.2451 45.3836 21.0788 44.9451 20.8217 44.3251L20.605 43.8059C20.5243 43.6043 20.4588 43.4581 20.4185 43.3724L19.6825 41.5578C19.6422 41.4318 19.5868 41.3007 19.5212 41.1747C19.491 41.0941 19.4406 40.9731 19.3751 40.8068C19.3095 40.6505 19.2591 40.5094 19.2188 40.3833C19.1987 40.3178 19.1533 40.222 19.0978 40.1162L19.0474 39.9902C18.9365 39.7432 18.75 39.723 18.6492 39.7382C18.5787 39.7482 18.4526 39.7936 18.377 39.9599C18.367 39.9751 18.3569 39.9902 18.3518 40.0053L18.2157 40.3279L18.1301 40.595C17.9385 41.1041 17.7621 41.5376 17.6159 41.8854L17.4849 42.1576C17.3639 42.3945 17.248 42.6667 17.1421 42.9641C17.1068 43.07 17.0615 43.1809 17.006 43.3018C16.9556 43.4228 16.9153 43.5085 16.885 43.5791L16.3961 44.7283C16.3659 44.7888 16.3255 44.8795 16.2701 44.9955C16.2146 45.1164 16.1693 45.2273 16.1289 45.3181L15.5493 46.674C15.4132 46.9663 15.3124 47.1881 15.2569 47.3292L14.7025 48.5239C14.516 48.9573 14.3547 49.2749 14.2236 49.4715C14.1581 49.5773 14.0522 49.6933 13.9061 49.8142C13.77 49.9251 13.5683 50.0007 13.3113 50.0461C13.1903 50.0612 13.1046 50.0713 13.029 50.0763L12.8979 50.0915C12.7367 50.1116 12.6207 50.2074 12.5804 50.3536C12.5754 50.3737 12.5703 50.3889 12.5703 50.409C12.5703 50.5754 12.6762 50.7064 12.8425 50.7518C12.8879 50.7669 12.9433 50.777 13.024 50.777C13.155 50.777 13.2558 50.7719 13.2861 50.7619C13.407 50.7619 13.5835 50.7518 13.8153 50.7316L14.1379 50.7165C14.4202 50.6963 14.6369 50.6863 14.7781 50.6863H14.894C14.9444 50.6863 15.0351 50.6963 15.1763 50.7165L16.0685 50.7316C16.2499 50.7316 16.3759 50.6056 16.3709 50.4645C16.3961 50.3284 16.3407 50.2074 16.2146 50.1318C16.1441 50.0915 16.0634 50.0663 15.9626 50.0612C15.9374 50.0511 15.9122 50.0511 15.882 50.0461L15.7055 50.031C15.6199 50.031 15.5291 50.0209 15.4535 49.9957C15.3577 49.9655 15.3376 49.9352 15.3325 49.915L15.3426 49.8646C15.3779 49.6681 15.4233 49.5017 15.4737 49.3757C15.5241 49.2648 15.5896 49.0884 15.6753 48.8414C15.6955 48.7809 15.7307 48.6851 15.7862 48.5591L16.1441 47.6569L16.3306 47.2536L16.5776 46.7899H16.7741C16.8245 46.7798 16.9002 46.7748 17.001 46.7748C17.2227 46.7748 17.3891 46.7697 17.4798 46.7597H18.1452C18.3317 46.7597 18.5837 46.7496 18.9265 46.7244C18.9668 46.7143 19.0121 46.7143 19.0726 46.7143H19.612C19.7279 46.7143 19.8086 46.7093 19.8438 46.6992H19.9799C20.0001 46.7294 20.0253 46.7697 20.0555 46.8252C20.1009 46.9058 20.1816 47.0923 20.3378 47.5208L20.489 47.8635L20.7259 48.5692C20.8822 48.9876 20.983 49.3505 21.0183 49.6529C21.0183 49.6983 21.0133 49.7437 20.983 49.7941C20.9578 49.8394 20.9326 49.8697 20.9074 49.8798L20.7965 49.9302C20.7663 49.9402 20.7007 49.9655 20.5949 50.0058C20.5243 50.036 20.4487 50.0511 20.3832 50.0511H20.3227C20.2521 50.0511 20.1916 50.0511 20.1412 50.0663L19.859 50.0814C19.8287 50.0814 19.7934 50.0864 19.7682 50.1015C19.6876 50.1419 19.6321 50.1923 19.6019 50.2528C19.5364 50.3788 19.5616 50.4695 19.5817 50.5098C19.6321 50.6409 19.7279 50.6913 19.7884 50.7165C19.8338 50.7367 19.8842 50.7417 19.9497 50.7417L20.3781 50.7215C20.3781 50.7215 20.4185 50.7115 20.5042 50.7115L20.988 50.6661C21.3258 50.6258 21.5828 50.6106 21.7542 50.6106L22.1423 50.5955C22.3238 50.5754 22.4599 50.5653 22.5405 50.5602C22.5708 50.5754 22.601 50.5804 22.6313 50.5804H23.095C23.3974 50.5804 23.6898 50.5955 23.9922 50.6258H24.1082C24.1838 50.6258 24.2947 50.6157 24.4408 50.5955C24.5265 50.5955 24.6021 50.5754 24.6677 50.5401C24.7181 50.525 24.7685 50.4897 24.8038 50.4393C24.8239 50.409 24.8441 50.3788 24.8592 50.3485C24.8743 50.3183 24.8794 50.288 24.8794 50.2578C24.8794 50.0965 24.7836 49.9755 24.6626 49.9453L24.6727 49.915ZM17.006 45.7868C17.006 45.7868 16.9758 45.7868 16.9657 45.7868L17.0967 45.4743C17.1421 45.3533 17.2228 45.1668 17.3387 44.9199L17.4949 44.5771C17.7016 44.1587 17.8528 43.7958 17.9536 43.5135C17.999 43.3875 18.0796 43.2161 18.1855 43.0095C18.2409 42.9137 18.2863 42.8079 18.3266 42.6919L18.3468 42.7373C18.4123 42.8683 18.5031 43.08 18.619 43.3674L18.8357 43.8613C18.997 44.2192 19.1583 44.6023 19.3095 45.0106C19.4305 45.313 19.5212 45.5247 19.5817 45.6407L19.612 45.7314C19.5212 45.7213 19.3751 45.7163 19.1785 45.7163C18.9819 45.7163 18.8307 45.7213 18.7652 45.7314L18.2661 45.7465C17.7218 45.7717 17.3488 45.7566 17.1673 45.7919H17.001L17.006 45.7868Z" fill="#715137"/>
<path d="M36.7151 39.8926C36.7151 39.8926 36.6798 39.8775 36.6647 39.8725C36.5487 39.8473 36.4631 39.8372 36.4076 39.8372C36.332 39.8372 36.2362 39.8473 36.1203 39.8624L35.8632 39.8977C35.5054 39.933 35.2332 39.9531 35.0567 39.9531C34.7946 39.9531 34.5325 39.938 34.2906 39.9128C33.8924 39.8473 33.6857 39.8372 33.5345 39.938C33.3782 40.059 33.3782 40.185 33.3934 40.2505C33.4337 40.4471 33.6655 40.5076 33.7764 40.5378C33.847 40.5479 33.9629 40.558 34.1192 40.5681C34.2452 40.5782 34.3511 40.5983 34.4317 40.6336C34.4972 40.6639 34.593 40.7294 34.6384 40.926C34.6837 41.1225 34.7039 41.3645 34.7039 41.6367C34.7039 41.929 34.714 42.3676 34.7341 42.9472C34.7543 43.5269 34.7644 43.9604 34.7644 44.2578L34.7493 44.8778C34.7392 45.1197 34.7341 45.4927 34.7341 45.9867V46.4504C34.7341 46.8033 34.7341 47.0654 34.7493 47.2418C34.7593 47.3527 34.7694 47.4535 34.7745 47.5493L34.4317 47.1763C34.2452 46.9595 33.9529 46.647 33.5647 46.2337C33.106 45.7851 32.5667 45.2256 31.9618 44.5703C31.6947 44.283 31.2713 43.8142 30.7017 43.169C29.9708 42.3424 29.4012 41.7173 29.0081 41.3191C28.8468 41.1578 28.6199 40.9108 28.3125 40.5681C28.2721 40.5177 28.2066 40.4421 28.1209 40.3513C28.0352 40.2606 27.9445 40.1749 27.8538 40.0943C27.7429 39.9935 27.6219 39.9279 27.4959 39.9027C27.2943 39.8624 27.133 39.8422 27.0019 39.8422H26.5382C26.4827 39.8422 26.4021 39.8372 26.2862 39.8221C26.1501 39.807 26.0392 39.7969 25.9434 39.7969C25.8023 39.7969 25.6007 39.812 25.4898 39.9481C25.3688 40.1044 25.399 40.2304 25.4293 40.2909C25.515 40.4622 25.7317 40.4824 25.9132 40.4824H25.9938C26.1602 40.4975 26.2912 40.5378 26.3769 40.6034C26.4727 40.6689 26.5584 40.7848 26.639 40.9461C26.7398 41.1427 26.8154 41.2788 26.8608 41.3494C26.9717 41.556 27.0423 41.7677 27.0675 41.9744C27.0977 42.1962 27.1078 42.4885 27.1128 42.8565C27.1229 42.9472 27.1279 43.0884 27.1279 43.2749L27.1733 45.659C27.1834 45.9363 27.1884 46.2841 27.1884 46.6974C27.1884 47.1107 27.1834 47.4636 27.1733 47.7458L27.1128 48.8447C27.1128 49.0917 27.1078 49.2782 27.0927 49.4092C27.0826 49.5252 27.0473 49.6411 26.9918 49.752C26.9465 49.8427 26.886 49.9032 26.8104 49.9385C26.7045 49.9839 26.5634 50.0292 26.3971 50.0645C26.3517 50.0746 26.2962 50.0847 26.2257 50.0897C26.1602 50.0998 26.0845 50.1048 25.9989 50.1048C25.9787 50.1048 25.9434 50.1048 25.9031 50.0947C25.8325 50.0847 25.7619 50.0796 25.6813 50.0796C25.3486 50.0796 25.2881 50.2762 25.2831 50.3216C25.2529 50.4123 25.268 50.5081 25.3184 50.5837C25.4142 50.7147 25.6057 50.7702 25.9837 50.7702C26.2257 50.7702 26.4878 50.75 26.7701 50.7198C27.0271 50.6895 27.1783 50.6694 27.2237 50.6694C27.4757 50.6593 27.753 50.6694 28.0604 50.6996C28.3578 50.7198 28.5746 50.7299 28.7107 50.7299C28.8569 50.7299 28.9728 50.7248 29.0131 50.7147C29.119 50.7147 29.2248 50.6996 29.3307 50.6694C29.5928 50.5988 29.6129 50.4073 29.6129 50.3468C29.6129 50.2157 29.5424 49.9939 29.0736 49.9939H28.9728C28.8972 49.9939 28.8165 49.999 28.7359 50.0091C28.5947 50.0292 28.4435 50.0191 28.3881 49.9939C28.3175 49.9486 28.2671 49.883 28.2268 49.7973C28.1814 49.6865 28.1411 49.5504 28.1159 49.3991C28.0806 49.1522 28.0604 48.89 28.0604 48.638L28.0756 48.0231C28.0957 47.7106 28.1058 47.4585 28.1058 47.272V44.4997C28.1058 43.8596 28.1058 43.3152 28.0907 42.8817C28.1915 42.9876 28.3024 43.1085 28.4183 43.2446L29.3407 44.2426C29.623 44.5652 29.9053 44.8727 30.1876 45.1752C30.6815 45.6943 30.8479 45.8808 30.9084 45.9514C31.4023 46.5008 32.1483 47.3073 33.1312 48.3507L34.094 49.3689C34.3007 49.5756 34.5174 49.8125 34.7442 50.0947C34.7694 50.1199 34.8098 50.1754 34.8652 50.2611C34.9408 50.377 35.0315 50.4829 35.1323 50.5686C35.2231 50.6492 35.3239 50.6895 35.4197 50.6794C35.4852 50.6744 35.5759 50.6442 35.6717 50.5081C35.707 50.4375 35.7221 50.3518 35.7221 50.2258C35.7221 50.0796 35.712 49.9486 35.6969 49.8326C35.6818 49.7369 35.6767 49.6713 35.6767 49.6159C35.6666 49.4395 35.6666 49.2782 35.6717 49.1421C35.6717 48.9959 35.6767 48.8699 35.6767 48.7741V48.3507C35.6767 47.645 35.6667 46.6016 35.6465 45.2306L35.6162 42.9271C35.5961 42.6045 35.586 42.3575 35.586 42.1861C35.586 41.6669 35.6364 41.2435 35.7423 40.9108C35.7675 40.7949 35.8179 40.7193 35.8834 40.6689C35.964 40.6134 36.08 40.5731 36.2463 40.558C36.2866 40.5479 36.3522 40.5479 36.4379 40.5479C36.6042 40.5479 36.7201 40.5076 36.8008 40.432C36.8663 40.3665 36.9066 40.2757 36.9066 40.18C36.9066 40.0439 36.8209 39.933 36.705 39.9027L36.7151 39.8926Z" fill="#715137"/>
<path d="M49.7001 44.285C49.7001 44.285 49.7001 44.2396 49.6901 44.2245C49.6901 44.2094 49.6901 44.1943 49.685 44.1741L49.5439 43.6095C49.5237 43.5642 49.5086 43.5138 49.4935 43.4735C49.4128 43.1559 49.2767 42.8383 49.0953 42.5208C48.8634 42.1175 48.561 41.7445 48.2031 41.4119C47.8906 41.1195 47.6386 40.9179 47.442 40.802C47.4268 40.7919 47.4067 40.7868 47.3865 40.7818C47.3865 40.7818 47.3613 40.7768 47.2958 40.7314C47.0236 40.5751 46.9732 40.5499 46.9682 40.5499L46.9077 40.5197C46.9077 40.5197 46.8623 40.5046 46.8371 40.4995C46.7312 40.4239 46.6002 40.3584 46.454 40.3181L46.3683 40.2777C46.0609 40.1769 45.577 40.061 44.8914 39.9199C44.6545 39.8795 44.3773 39.8594 44.0598 39.8594C43.8128 39.8594 43.6162 39.8644 43.4549 39.8745C43.2734 39.8947 43.1323 39.9148 43.0315 39.935C42.6333 40.0156 42.3359 40.0912 42.1393 40.1568C41.6705 40.308 41.2925 40.4693 41.0153 40.6457L40.9346 40.7011C40.6675 40.8675 40.4507 41.0137 40.2844 41.1397C40.108 41.2707 39.9416 41.427 39.8005 41.5984L39.7097 41.6992C39.4527 42.0067 39.2964 42.2032 39.241 42.2839C39.1704 42.3696 39.1301 42.425 39.0898 42.4704C39.0091 42.5813 38.9637 42.667 38.9385 42.7224C38.8629 42.8888 38.8024 43.0148 38.752 43.1105C38.5907 43.4583 38.5555 43.5541 38.5454 43.5894C38.4546 43.8263 38.3841 44.0531 38.3387 44.2447C38.3085 44.3606 38.2833 44.4967 38.2681 44.6479C38.253 44.784 38.2429 44.8798 38.2329 44.9403L38.1875 45.3032V45.404C38.1875 45.404 38.1875 45.4292 38.1875 45.4443C38.2127 45.5754 38.2278 45.7064 38.2278 45.8576L38.2581 46.1802C38.2681 46.281 38.2933 46.4272 38.3387 46.6288L38.4698 47.0371C38.4698 47.0371 38.4799 47.0623 38.4849 47.0775C38.5101 47.1279 38.5353 47.1883 38.5504 47.264C38.5504 47.2791 38.5605 47.2992 38.5655 47.3144C38.6109 47.4051 38.621 47.4404 38.621 47.4505C38.621 47.4656 38.6311 47.4807 38.6361 47.4908C38.6966 47.6168 38.8276 47.8386 39.0242 48.1612C39.2259 48.4737 39.4628 48.761 39.7198 49.008C39.8206 49.1088 39.9013 49.1794 39.9668 49.2247C40.0172 49.2751 40.0928 49.3356 40.1684 49.4012C40.2642 49.4969 40.3751 49.5877 40.4961 49.6633L40.7279 49.7994C40.859 49.8649 40.9195 49.9052 40.9648 49.9405C41.1513 50.0514 41.2774 50.122 41.3177 50.1371C41.3832 50.1774 41.4286 50.2076 41.4739 50.2228C41.6252 50.3135 41.7965 50.3891 41.9931 50.4546L42.2149 50.5101C42.5879 50.626 42.8903 50.6865 43.1323 50.6915C43.2684 50.7319 43.4549 50.752 43.7019 50.752H43.9337C44.1051 50.752 44.2967 50.7419 44.5386 50.7218L44.9771 50.6512C45.3653 50.6008 45.7433 50.495 46.1213 50.3236C46.3482 50.2076 46.5347 50.1018 46.6808 50.0161L46.8573 49.9102C47.1698 49.7187 47.2605 49.6532 47.2958 49.6229L47.4067 49.5574C47.6688 49.376 47.8755 49.2096 48.0368 49.0483L48.6013 48.4434C48.6013 48.4434 48.6215 48.4182 48.6265 48.4082L48.7525 48.1914C48.8281 48.1108 48.9138 47.9848 49.0045 47.8134L49.1457 47.5664C49.2062 47.4908 49.2667 47.39 49.3322 47.2236L49.3523 47.1329C49.5338 46.6641 49.6346 46.2962 49.6548 45.9837C49.6548 45.9585 49.6598 45.9232 49.68 45.8728C49.7052 45.772 49.7153 45.7115 49.7153 45.6913C49.7354 45.525 49.7455 45.2881 49.7455 44.9705V44.8495C49.7556 44.8042 49.7606 44.7487 49.7606 44.6781C49.7606 44.6126 49.7556 44.5622 49.7455 44.5169C49.7455 44.4614 49.7304 44.3858 49.7153 44.29L49.7001 44.285ZM44.4176 49.9859C44.3017 50.006 44.1404 50.0111 43.9388 50.0111C43.5406 50.0111 43.1777 49.9455 42.8702 49.8145C42.845 49.7994 42.8097 49.7893 42.7694 49.7742C42.7593 49.7742 42.7442 49.7641 42.7341 49.754C42.719 49.7439 42.7038 49.7338 42.6837 49.7288C42.5526 49.6834 42.4064 49.6229 42.2653 49.5473L41.9931 49.376C41.8873 49.3104 41.7764 49.2348 41.6806 49.1743L41.6302 49.1239C41.6302 49.1239 41.605 49.0786 41.5848 49.0634L41.4538 48.9475C41.4538 48.9475 41.4286 48.9273 41.4135 48.9223C41.3479 48.887 41.2874 48.8316 41.232 48.761C41.227 48.7408 41.2169 48.7207 41.2018 48.7056L41.1564 48.6451C41.1564 48.6451 41.1362 48.6199 41.1211 48.6098C41.0606 48.5594 40.9447 48.4334 40.7431 48.136C40.5767 47.8789 40.4507 47.6218 40.3549 47.3648C40.2844 47.1732 40.234 47.027 40.2037 46.9212C40.2037 46.8758 40.1886 46.8254 40.1684 46.77C40.0928 46.5079 40.0475 46.1903 40.0323 45.8375C40.0323 45.7165 40.0273 45.6258 40.0172 45.5552C40.0071 45.5048 40.0071 45.4292 40.0071 45.3284C40.0071 45.2578 40.0071 45.2024 40.0223 45.1469L40.0676 44.6227C40.0777 44.5269 40.0979 44.4009 40.1332 44.2447C40.1735 44.0682 40.1987 43.917 40.2088 43.7961L40.2188 43.7305C40.3852 43.1307 40.6322 42.6014 40.9598 42.1528C41.0757 41.9814 41.2572 41.7849 41.4941 41.5631C41.8217 41.2657 42.2552 41.0137 42.7795 40.8272C43.0315 40.7516 43.2533 40.7011 43.4801 40.6659C43.4801 40.6659 43.5002 40.6608 43.5658 40.6608L43.9993 40.6457C44.1202 40.6457 44.2412 40.6608 44.3622 40.686C44.3773 40.686 44.3924 40.686 44.4075 40.686H44.4983C44.5588 40.6911 44.6243 40.7062 44.6949 40.7314L45.083 40.8776C45.2896 40.9481 45.4509 41.0086 45.5568 41.059C45.587 41.0842 45.6223 41.1044 45.6576 41.1246C45.9953 41.3211 46.1012 41.3917 46.1213 41.4068C46.1314 41.4169 46.202 41.4724 46.323 41.5631L46.5649 41.7798C46.7867 41.9814 46.9682 42.1831 47.0841 42.3444C47.1194 42.4149 47.1647 42.4805 47.2252 42.541L47.3059 42.6619C47.4218 42.8232 47.5277 43.0299 47.6335 43.292C47.7696 43.5944 47.8805 43.9523 47.9511 44.3556C47.9863 44.5773 48.0065 44.7538 48.0065 44.8747C48.0065 44.9957 48.0115 45.0864 48.0216 45.1469L48.0368 45.4191C48.0166 45.9232 47.9914 46.3012 47.9511 46.5432C47.9259 46.7095 47.8755 46.8859 47.7948 47.0926L47.7847 47.1379C47.699 47.4001 47.5781 47.7075 47.4218 48.0301C47.3613 48.1461 47.2403 48.3174 47.0841 48.5342L47.0034 48.635C46.8976 48.7812 46.7161 48.9576 46.4439 49.1743L46.2272 49.3306C46.1314 49.381 46.0508 49.4364 45.9701 49.4919C45.9197 49.5322 45.8239 49.5927 45.6274 49.6683C45.577 49.6885 45.3552 49.7691 44.9721 49.9052C44.7705 49.9556 44.7201 49.9556 44.6999 49.9556L44.5134 49.9707C44.5134 49.9707 44.4731 49.9758 44.4529 49.9859C44.4428 49.9859 44.4277 49.9859 44.4277 49.9859H44.4176Z" fill="#715137"/>
<path d="M55.6322 50.0648H55.5465C55.4306 50.0648 55.2542 50.0446 55.0072 50.0093L54.9064 49.9942C54.8056 49.9791 54.6796 49.9337 54.5233 49.8531L54.3721 49.9891L54.4931 49.8127C54.3418 49.6413 54.2461 49.3994 54.2108 49.0818C54.1805 48.8752 54.1604 48.5576 54.1402 48.1393L54.0949 47.4134C54.0848 47.3428 54.0797 47.232 54.0797 47.0757V46.4204L54.0646 46.249C54.0646 46.2037 54.0646 46.1533 54.0545 46.1029C54.0545 46.0878 54.0545 46.0575 54.0646 45.9869C54.0747 45.8156 54.0697 45.5686 54.0495 45.2661C54.0495 45.1754 54.0495 45.0696 54.0394 44.9435C54.0394 44.8276 54.0394 44.6966 54.0495 44.5403V44.0866C54.0394 43.9959 54.0344 43.8497 54.0344 43.6784C54.0545 43.4566 54.0646 43.3054 54.0646 43.2146L54.0495 42.9374C54.0394 42.7862 54.0344 42.5594 54.0344 42.2519C54.0344 41.7478 54.0545 41.2992 54.0898 40.9161C54.0949 40.7952 54.1352 40.6792 54.2007 40.5683C54.2662 40.4675 54.3418 40.4121 54.4225 40.397L54.6241 40.3818C54.7451 40.3667 54.8409 40.3566 54.9013 40.3566H54.9467C55.0475 40.3566 55.1383 40.3113 55.1937 40.2357C55.2491 40.1701 55.2693 40.0844 55.2542 39.9887C55.2491 39.9383 55.229 39.8778 55.1685 39.8173C55.1282 39.777 55.0526 39.7266 54.9064 39.7266H54.6745C54.609 39.7266 54.5535 39.7316 54.5031 39.7417L54.362 39.7568C54.115 39.8022 53.984 39.8123 53.9134 39.8123L53.364 39.8274C53.2632 39.8375 53.0968 39.8425 52.875 39.8425H52.7137C52.3508 39.8223 52.0988 39.8072 51.9425 39.7871L51.6401 39.7719C51.5544 39.7719 51.4385 39.782 51.3074 39.8022C51.2066 39.8022 51.1159 39.8475 51.0604 39.9231C51.005 39.9887 50.9848 40.0744 51 40.1701C51.01 40.2457 51.0453 40.3113 51.1108 40.3566C51.1663 40.397 51.2318 40.4222 51.3074 40.4222H51.3528C51.3528 40.4222 51.3982 40.4222 51.4183 40.4121C51.4183 40.4121 51.5645 40.4121 51.6401 40.4171C51.6905 40.4272 51.7359 40.4373 51.7712 40.4423C51.7863 40.4423 51.8014 40.4474 51.8216 40.4474H51.8669C52.0686 40.4726 52.1996 40.5935 52.2752 40.8052C52.3407 41.0321 52.3811 41.3093 52.3962 41.6218V41.7377C52.4264 42.146 52.4416 42.5795 52.4416 43.0231L52.4264 43.6834L52.4416 45.992C52.4516 46.0726 52.4567 46.1986 52.4567 46.3499C52.4466 46.496 52.4416 46.7279 52.4416 47.0455C52.4416 47.4285 52.4416 47.7209 52.4264 47.9175L52.3609 49.1171L52.3407 49.2028C52.3206 49.3692 52.3055 49.5002 52.2903 49.5708C52.2147 49.8228 52.0635 49.974 51.8468 50.0345L51.7208 50.0547C51.4334 50.1303 51.3175 50.1454 51.2772 50.1504C51.2318 50.1353 51.1865 50.1303 51.1461 50.1404L51.0554 50.1656C50.9445 50.2109 50.8941 50.2865 50.8739 50.342C50.8538 50.3924 50.8437 50.4781 50.8941 50.5738C50.9395 50.6646 51.0201 50.7301 51.1159 50.7553C51.131 50.7553 51.1613 50.7603 51.1814 50.7603H51.252L51.4889 50.7301C51.7157 50.7099 51.8821 50.6847 51.9879 50.6545C52.3105 50.589 52.7238 50.5587 53.2077 50.5587H53.3942C53.5253 50.5587 53.7269 50.5688 53.984 50.589C54.1856 50.6091 54.3418 50.6192 54.4275 50.6192L54.7501 50.6595C54.7955 50.6696 54.856 50.6797 54.9316 50.6948C55.0072 50.7049 55.0979 50.7099 55.2088 50.7099H55.4256C55.5213 50.7099 55.5919 50.7049 55.6524 50.6948C55.7582 50.6898 55.8238 50.6444 55.8641 50.6091C55.8792 50.594 55.8943 50.5738 55.9044 50.5537C55.9397 50.4831 55.9548 50.4277 55.9548 50.3773C55.9548 50.2563 55.8792 50.1152 55.6322 50.0849V50.0648Z" fill="#715137"/>
<path d="M71.5904 48.5014C71.4896 48.3552 71.3635 48.3502 71.3131 48.3552C71.1317 48.3754 71.0359 48.5619 70.9653 48.7434C70.9351 48.819 70.8797 48.9601 70.799 49.1567C70.7234 49.3382 70.6427 49.4843 70.5621 49.5801C70.4714 49.6708 70.3806 49.7263 70.2748 49.7515C70.1488 49.7817 69.9522 49.8069 69.7002 49.8271L69.3322 49.8422C68.9894 49.8624 68.7273 49.8725 68.5509 49.8725C68.1477 49.8624 67.8099 49.817 67.5428 49.7313C67.3059 49.6557 67.1143 49.4944 66.9732 49.2575C66.9228 49.1668 66.8825 49.0609 66.8522 48.945C66.822 48.824 66.7968 48.6829 66.7867 48.5266C66.7716 48.3704 66.7666 48.2696 66.7666 48.2191C66.7464 47.7151 66.7262 47.332 66.7061 47.0649C66.696 47.0044 66.696 46.9136 66.696 46.7876C66.696 46.6364 66.7061 46.4096 66.7262 46.092C66.7262 45.7997 66.7162 45.3813 66.696 44.842C66.696 44.3077 66.6859 43.5113 66.6657 42.4427L66.6506 41.6916C66.6506 41.4295 66.6758 41.2077 66.7313 41.0212C66.7766 40.8599 66.8623 40.7289 66.9732 40.6381C67.1093 40.5373 67.3261 40.4869 67.6083 40.4869C67.6739 40.4869 67.7545 40.4869 67.8452 40.492C67.9662 40.497 68.0721 40.492 68.1376 40.4668C68.435 40.4113 68.4652 40.2248 68.4652 40.1492C68.4652 40.0282 68.3795 39.9325 68.2283 39.872C68.1124 39.8216 67.9662 39.7964 67.7847 39.7964C67.7243 39.7964 67.5277 39.8115 67.2 39.8417C66.9178 39.872 66.6305 39.8821 66.3583 39.8821L64.6999 39.8115C64.6747 39.8115 64.6193 39.8115 64.5386 39.7964C64.4429 39.7863 64.3068 39.7813 64.1354 39.7813C63.9338 39.7813 63.5154 39.7812 63.4851 40.0635C63.465 40.1492 63.4851 40.2349 63.5456 40.3055C63.6313 40.4113 63.7825 40.4567 64.0446 40.4567L64.3219 40.4416C64.4983 40.4567 64.6394 40.497 64.7352 40.5625C64.8209 40.618 64.8915 40.7238 64.9469 40.8751C65.0074 41.0363 65.0376 41.2228 65.0427 41.4346C65.0427 41.6664 65.0477 41.8126 65.0528 41.8882C65.0729 42.483 65.083 42.9417 65.083 43.2643C65.1032 44.4085 65.1132 46.1223 65.1132 48.3704C65.1132 48.7383 65.0931 49.0156 65.0477 49.192C65.0024 49.3634 64.9519 49.4995 64.8864 49.6003C64.831 49.691 64.7302 49.7716 64.5941 49.8422C64.458 49.9178 64.3168 49.9733 64.1707 50.0035C64.0094 50.0338 63.8128 50.059 63.596 50.0791C63.5053 50.0791 63.4247 50.0842 63.3642 50.0993C63.213 50.1295 63.1172 50.2455 63.1172 50.4017C63.1172 50.4622 63.1373 50.6638 63.4196 50.7193C63.5104 50.7445 63.596 50.7545 63.6716 50.7545C63.8077 50.7545 63.9942 50.7243 64.2261 50.6638L64.5739 50.6033C64.6798 50.5882 64.8461 50.5781 65.0628 50.5781C65.335 50.5781 65.5467 50.5781 65.6929 50.5933C67.3311 50.6487 68.3695 50.6386 68.8029 50.6638L69.433 50.6789C69.6346 50.6789 69.8514 50.6689 70.0883 50.6487C70.3201 50.6285 70.4865 50.6134 70.5621 50.6084C70.6024 50.6084 70.673 50.6084 70.7738 50.6033C70.9099 50.5983 71.0208 50.563 71.1266 50.4924C71.2325 50.4068 71.2879 50.2807 71.293 50.1194C71.293 50.0388 71.3031 49.9833 71.3081 49.943C71.3283 49.8624 71.3635 49.7364 71.419 49.565L71.5047 49.2777C71.5148 49.2474 71.545 49.1668 71.5954 49.0256C71.6559 48.8543 71.6761 48.7232 71.6458 48.6123C71.6458 48.572 71.6257 48.5367 71.6055 48.5065L71.5904 48.5014Z" fill="#715137"/>
<path d="M80.6745 49.2224C80.6493 49.1115 80.5334 49.046 80.4275 49.0712L80.362 49.0863C80.2662 49.1115 80.1453 49.1871 80.0797 49.3787C80.0797 49.3938 80.0747 49.419 80.0697 49.4391C79.9991 49.676 79.8428 49.8172 79.5858 49.8827C79.4799 49.9079 79.3085 49.9331 79.0716 49.9482C78.8902 49.9583 78.6079 49.9634 78.2248 49.9634C77.9526 49.9634 77.746 49.9634 77.5998 49.9482H77.4839L76.8034 49.9079C76.632 49.8878 76.511 49.8323 76.4405 49.7466C76.2792 49.5601 76.1733 49.3535 76.1229 49.1317C76.0977 49.0006 76.0826 48.8645 76.0826 48.7234C76.0826 48.7083 76.0826 48.6881 76.0775 48.673C76.0775 48.673 76.0675 48.6377 76.0675 48.5167C76.0372 48.2092 76.0271 47.7455 76.0271 47.1356L76.0372 47.0852C76.0372 47.0852 76.0372 47.06 76.0372 47.0449V45.7394C76.511 45.7142 76.9949 45.699 77.4889 45.699C77.5998 45.689 77.7661 45.6839 77.9778 45.6839H78.2551C78.3458 45.6839 78.4164 45.6839 78.502 45.699H78.7188C78.7793 45.699 78.8146 45.7192 78.8549 45.7898C78.8851 45.8301 78.9002 45.8704 78.9053 45.8856C78.9053 45.946 78.9154 46.0166 78.9355 46.1023C78.9355 46.1325 78.9406 46.1577 78.9507 46.1829C78.9607 46.4299 79.1523 46.5509 79.3337 46.5055C79.4245 46.4854 79.495 46.4299 79.5354 46.3543C79.5807 46.2938 79.5958 46.2132 79.5807 46.1023C79.5807 46.0821 79.5807 46.062 79.5706 46.0468C79.5606 46.0216 79.5505 45.9511 79.5454 45.7696L79.5202 45.5932C79.5202 45.4621 79.5202 45.3765 79.5303 45.3361C79.5757 45.1295 79.6059 44.9329 79.6211 44.7313C79.6211 44.7212 79.6311 44.7111 79.6311 44.7061C79.6664 44.5901 79.6614 44.4843 79.616 44.3986C79.6059 44.3784 79.5908 44.3583 79.5757 44.3431C79.49 44.2574 79.4043 44.2373 79.3136 44.2373C79.1724 44.2373 79.0061 44.3331 79.0061 44.6002V44.6153C78.9708 44.7262 78.9355 44.7766 78.9154 44.7968C78.9053 44.8069 78.8599 44.8422 78.7037 44.8623C78.5827 44.8875 78.3811 44.9026 78.1089 44.9026C77.9274 44.9026 77.7863 44.9077 77.7107 44.9178L76.8739 44.948C76.627 44.948 76.4354 44.953 76.3245 44.9631H76.138C76.0876 44.9631 76.0423 44.9631 76.012 44.9631V44.57C76.0019 44.5196 75.9969 44.444 75.9969 44.3431C75.9969 44.2423 76.0019 44.207 76.012 44.1718C76.0221 44.0558 76.0271 43.8492 76.0271 43.5417C76.017 43.4106 76.012 43.2141 76.012 42.9469C76.012 42.6293 76.007 42.3975 75.9969 42.2311C75.9868 42.1203 75.9818 41.9489 75.9818 41.7271V41.2382C75.9918 41.1726 75.9969 41.0769 75.9969 40.9458C75.9969 40.8853 75.9969 40.8399 75.9969 40.7946C76.0322 40.7895 76.0422 40.7895 76.0473 40.7895C76.0624 40.7895 76.0725 40.7895 76.0876 40.7895C76.133 40.7795 76.1834 40.7694 76.2439 40.7643C76.2993 40.7543 76.3648 40.7543 76.4354 40.7543H76.5665C76.7328 40.7543 76.8538 40.7543 76.9496 40.7694L77.3478 40.7845C77.4385 40.7845 77.5091 40.7845 77.5645 40.7694C77.7863 40.7593 78.1492 40.7543 78.6533 40.7543H79.1321C79.3085 40.7543 79.4396 40.7996 79.5303 40.8904C79.621 40.9811 79.6715 41.1021 79.6815 41.2583C79.6715 41.2835 79.6664 41.3087 79.6664 41.3339C79.6664 41.47 79.6866 41.5557 79.7521 41.6515C79.9134 41.8178 80.3066 41.7926 80.3066 41.3642V41.2936C80.3066 41.0617 80.3015 40.8904 80.2914 40.7795C80.2814 40.6887 80.2763 40.5476 80.2763 40.3661V40.23C80.2914 40.1292 80.2713 40.0335 80.2108 39.9578C80.1654 39.8822 80.0394 39.7411 79.7723 39.8772C79.7219 39.9024 79.6714 39.9125 79.6059 39.9125L79.3791 39.9276C79.2884 39.9377 79.1422 39.9427 78.9507 39.9427H78.003C77.8921 39.9528 77.7258 39.9578 77.5141 39.9578L76.7076 39.973C76.6169 39.9831 76.4808 39.9881 76.3094 39.9881H75.266C75.135 39.9982 74.9333 40.0032 74.6712 40.0032C74.4091 40.0032 74.2024 40.0032 74.0714 39.9881L73.774 39.973C73.653 39.9629 73.4816 39.9578 73.2498 39.9578H72.9726C72.9423 39.9578 72.907 39.9579 72.8667 39.9679C72.8163 39.978 72.7659 39.9931 72.7104 40.0234C72.6903 40.0335 72.6701 40.0486 72.655 40.0637C72.5743 40.1443 72.5391 40.225 72.5391 40.3409C72.5391 40.3913 72.5542 40.472 72.6298 40.5426C72.6701 40.5829 72.7457 40.6333 72.8617 40.6333C72.9978 40.6333 73.1086 40.6282 73.1641 40.6182H73.3657C73.5371 40.6182 73.7085 40.6333 73.8597 40.6585C73.9555 40.6786 74.026 40.7089 74.0563 40.7442C74.1772 40.9004 74.2579 41.097 74.2881 41.3289C74.3335 41.6464 74.3587 42.0346 74.3587 42.4781L74.3738 43.1435C74.3839 43.2544 74.3889 43.4308 74.3889 43.6627L74.4343 45.5882C74.4746 46.5559 74.4898 47.3725 74.4898 48.0127L74.4746 48.9704C74.4646 49.0913 74.4595 49.2728 74.4595 49.5148C74.4545 49.6559 74.399 49.7769 74.2932 49.8827C74.1873 49.9886 74.0714 50.0491 73.9353 50.0642L73.7639 50.0944C73.7085 50.1045 73.6429 50.1146 73.5673 50.1247C73.4161 50.1448 73.1742 50.1347 73.0633 50.1549H72.9826C72.7659 50.1851 72.6852 50.3364 72.6852 50.4624C72.6852 50.5229 72.6953 50.5783 72.7205 50.6287C72.7306 50.6489 72.7407 50.664 72.7558 50.6791C72.7961 50.7194 72.8717 50.7699 72.9776 50.7699C73.0582 50.7799 73.1994 50.785 73.396 50.785C73.5774 50.785 73.779 50.7749 73.9756 50.7547H74.0361C74.4746 50.7144 74.8124 50.6942 75.0493 50.6942H75.1501C75.5231 50.6942 75.8053 50.6942 76.007 50.7094H76.3144C76.4808 50.7194 76.7681 50.7245 77.1814 50.7245H78.996C79.4698 50.7245 79.8025 50.7144 79.9991 50.6942C80.1503 50.6791 80.2562 50.6489 80.3318 50.5884C80.4225 50.5178 80.4779 50.3969 80.488 50.2356C80.5334 49.9634 80.5838 49.7567 80.6292 49.6408C80.6443 49.6156 80.6544 49.5904 80.6594 49.5652C80.6796 49.545 80.6896 49.5198 80.6997 49.4896C80.7149 49.4341 80.7098 49.3736 80.6796 49.3283L80.6443 49.2526L80.6745 49.2224Z" fill="#715137"/>
<path d="M93.3111 46.3665L92.8826 46.3514C92.7818 46.3514 92.6356 46.3614 92.4491 46.3816C92.187 46.4169 91.8039 46.4371 91.3049 46.4371H90.6497C90.3371 46.4371 90.1053 46.4371 89.9389 46.4219H89.5055C89.3794 46.4219 89.2837 46.4522 89.2232 46.4925L89.1526 46.5379C89.0972 46.5681 89.0619 46.6286 89.0568 46.6891C89.0468 46.7496 89.072 46.8151 89.1173 46.8605L89.1627 46.9058C89.2232 46.9814 89.3391 47.0671 89.5458 47.0671L90.2061 47.1125C90.317 47.1175 90.3976 47.1679 90.4682 47.2687C90.5085 47.3292 90.5589 47.4552 90.5791 47.7375C90.5892 47.798 90.5892 47.8887 90.5892 48.0148V48.1811C90.5993 48.4331 90.6043 48.796 90.6043 49.2749C90.6043 49.4412 90.5388 49.542 90.3876 49.6025C90.07 49.7235 89.7424 49.8193 89.4097 49.8798C89.3593 49.8898 89.2736 49.8898 89.1375 49.8898L88.9006 49.905C88.4873 49.9705 88.0689 49.9856 87.6909 49.9201L87.3582 49.8596C87.1818 49.8495 86.9297 49.7689 86.6021 49.6126L86.4912 49.5672C86.3954 49.532 86.219 49.4412 85.9015 49.1993C85.5637 48.9573 85.2815 48.7204 85.0597 48.4986C84.8429 48.2718 84.6514 48.0198 84.5002 47.7577C84.3439 47.4855 84.1877 47.1679 84.0516 46.8504L83.9508 46.3867C83.8751 46.0943 83.8399 45.8675 83.8399 45.7112L83.8247 45.0156C83.8247 44.7686 83.8449 44.5468 83.8802 44.3503C83.9356 43.9773 83.9961 43.6748 84.0566 43.448C84.1121 43.2313 84.2028 43.0145 84.3238 42.8028C84.5002 42.4752 84.6816 42.203 84.8681 41.9762C84.8782 41.961 84.9387 41.9006 85.2361 41.6384L85.473 41.4318C85.5688 41.341 85.72 41.2352 85.9065 41.1142C86.1182 41.0033 86.34 40.9126 86.5567 40.837C86.9499 40.7059 87.3128 40.6152 87.6253 40.5698C87.8269 40.5497 87.9731 40.5396 88.0588 40.5396L88.4671 40.5245C88.7191 40.5245 88.956 40.5497 89.1728 40.6051L89.7474 40.7463C90.2515 40.8924 90.695 41.1545 91.0579 41.5276C91.2545 41.7493 91.3654 41.9762 91.4007 42.2181L91.4461 42.4197C91.4461 42.4197 91.4461 42.4651 91.4562 42.4752C91.4814 42.6466 91.5973 42.7524 91.7636 42.7524C91.9098 42.7524 92.056 42.6466 92.056 42.4147V42.0618C91.9955 41.7393 91.9753 41.4519 91.9804 41.215C91.9955 41.0336 91.9098 40.8723 91.7132 40.7463L90.9773 40.4136C90.5892 40.2321 90.196 40.096 89.8079 40.0103C89.3845 39.8994 89.0367 39.839 88.7847 39.8188C88.5629 39.7886 88.326 39.7734 88.0739 39.7734C87.9731 39.7734 87.8925 39.7734 87.837 39.7835C87.7665 39.7734 87.6657 39.7734 87.5346 39.7734C87.0809 39.7734 86.6122 39.849 86.1384 40.0003C86.0375 40.0305 85.8863 40.0859 85.6746 40.1716L85.4982 40.2523C84.9437 40.464 84.4599 40.7513 84.0617 41.0991C83.7491 41.3663 83.5072 41.5931 83.3408 41.7745L83.23 41.9006C83.2048 41.9358 83.1644 41.9862 83.109 42.0518C83.0384 42.1324 82.988 42.208 82.9578 42.2685C82.6906 42.707 82.484 43.1456 82.3579 43.5639C82.1614 44.189 82.0605 44.8241 82.0605 45.4541C82.0605 46.1649 82.1866 46.8151 82.4386 47.3746L82.5192 47.5712C82.5747 47.7678 82.6402 47.924 82.7209 48.0349C82.9729 48.4281 83.2048 48.7406 83.4013 48.9674C83.5878 49.1942 83.855 49.4261 84.2028 49.663L84.2784 49.7134C84.5002 49.8848 84.7421 50.031 84.9891 50.1368C85.226 50.2427 85.5184 50.3485 85.8662 50.4544C86.2493 50.5754 86.7684 50.656 87.4086 50.6963L87.6253 50.7115C87.958 50.7316 88.1848 50.7417 88.3058 50.7417C88.6284 50.7417 88.9056 50.7215 89.1274 50.6812L89.4954 50.6358C89.9389 50.5754 90.2615 50.5098 90.4934 50.4393C90.6194 50.3939 90.7505 50.3586 90.8714 50.3334C91.1033 50.3032 91.3906 50.2175 91.7636 50.0663C91.7989 50.0511 91.8796 50.0209 92.0459 49.9604C92.187 49.8798 92.2576 49.8142 92.2878 49.7285C92.3181 49.6429 92.3282 49.5118 92.2324 49.3807C92.1921 49.3051 92.1669 49.2043 92.1518 49.0934C92.1215 48.7608 92.1114 48.413 92.1114 48.05C92.1114 47.7375 92.1316 47.4855 92.1769 47.299C92.2122 47.1528 92.2576 47.1024 92.2828 47.0823C92.308 47.0621 92.3735 47.0218 92.4995 47.0066L92.7617 46.9915C92.8826 46.9915 93.0691 46.9814 93.3111 46.9613C93.5329 46.9613 93.6337 46.8101 93.6337 46.6689C93.6337 46.553 93.5833 46.4774 93.5429 46.4371C93.4825 46.3766 93.4068 46.3362 93.306 46.3463L93.3111 46.3665Z" fill="#715137"/>
<path d="M102.51 49.2224C102.485 49.1115 102.369 49.046 102.263 49.0712L102.198 49.0863C102.102 49.1115 101.981 49.1871 101.916 49.3787C101.916 49.3938 101.911 49.419 101.906 49.4391C101.835 49.676 101.679 49.8172 101.422 49.8827C101.316 49.9079 101.144 49.9331 100.908 49.9482C100.726 49.9583 100.444 49.9634 100.061 49.9634C99.7886 49.9634 99.5819 49.9634 99.4357 49.9482H99.3198L98.6393 49.9079C98.4679 49.8878 98.347 49.8323 98.2764 49.7466C98.1151 49.5601 98.0092 49.3535 97.9588 49.1317C97.9336 49.0006 97.9185 48.8645 97.9185 48.7234C97.9185 48.7083 97.9185 48.6881 97.9135 48.673C97.9135 48.673 97.9034 48.6377 97.9034 48.5167C97.8731 48.2092 97.8631 47.7455 97.8631 47.1356L97.8732 47.0852C97.8732 47.0852 97.8732 47.06 97.8732 47.0449V45.7394C98.347 45.7142 98.8309 45.699 99.3248 45.699C99.4357 45.689 99.6021 45.6839 99.8138 45.6839H100.091C100.182 45.6839 100.252 45.6839 100.338 45.699H100.555C100.615 45.699 100.65 45.7192 100.691 45.7898C100.721 45.8301 100.736 45.8704 100.741 45.8856C100.741 45.946 100.751 46.0166 100.771 46.1023C100.771 46.1325 100.777 46.1577 100.787 46.1829C100.797 46.4299 100.988 46.5509 101.17 46.5055C101.26 46.4854 101.331 46.4299 101.371 46.3543C101.417 46.2938 101.432 46.2132 101.417 46.1023C101.417 46.0821 101.417 46.062 101.407 46.0468C101.396 46.0216 101.386 45.9511 101.381 45.7696L101.356 45.5932C101.356 45.4621 101.356 45.3765 101.366 45.3361C101.412 45.1295 101.442 44.9329 101.457 44.7313C101.457 44.7212 101.467 44.7111 101.467 44.7061C101.502 44.5901 101.497 44.4843 101.452 44.3986C101.442 44.3784 101.427 44.3583 101.412 44.3431C101.326 44.2574 101.24 44.2373 101.15 44.2373C101.008 44.2373 100.842 44.3331 100.842 44.6002V44.6153C100.807 44.7262 100.771 44.7766 100.751 44.7968C100.741 44.8069 100.696 44.8422 100.54 44.8623C100.419 44.8875 100.217 44.9026 99.9448 44.9026C99.7634 44.9026 99.6222 44.9077 99.5466 44.9178L98.7099 44.948C98.4629 44.948 98.2714 44.953 98.1605 44.9631H97.974C97.9236 44.9631 97.8782 44.9631 97.8479 44.9631V44.57C97.8379 44.5196 97.8328 44.444 97.8328 44.3431C97.8328 44.2423 97.8379 44.207 97.8479 44.1718C97.858 44.0558 97.8631 43.8492 97.8631 43.5417C97.853 43.4106 97.8479 43.2141 97.8479 42.9469C97.8479 42.6293 97.8429 42.3975 97.8328 42.2311C97.8227 42.1203 97.8177 41.9489 97.8177 41.7271V41.2382C97.8278 41.1726 97.8328 41.0769 97.8328 40.9458C97.8328 40.8853 97.8328 40.8399 97.8328 40.7946C97.8681 40.7895 97.8782 40.7895 97.8832 40.7895C97.8984 40.7895 97.9084 40.7895 97.9236 40.7895C97.9689 40.7795 98.0193 40.7694 98.0798 40.7643C98.1353 40.7543 98.2008 40.7543 98.2714 40.7543H98.4024C98.5687 40.7543 98.6897 40.7543 98.7855 40.7694L99.1837 40.7845C99.2744 40.7845 99.345 40.7845 99.4004 40.7694C99.6222 40.7593 99.9851 40.7543 100.489 40.7543H100.968C101.144 40.7543 101.276 40.7996 101.366 40.8904C101.457 40.9811 101.507 41.1021 101.517 41.2583C101.507 41.2835 101.502 41.3087 101.502 41.3339C101.502 41.47 101.523 41.5557 101.588 41.6515C101.749 41.8178 102.143 41.7926 102.143 41.3642V41.2936C102.143 41.0617 102.137 40.8904 102.127 40.7795C102.117 40.6887 102.112 40.5476 102.112 40.3661V40.23C102.127 40.1292 102.107 40.0335 102.047 39.9578C102.001 39.8822 101.875 39.7411 101.608 39.8772C101.558 39.9024 101.507 39.9125 101.442 39.9125L101.215 39.9276C101.124 39.9377 100.978 39.9427 100.787 39.9427H99.839C99.7281 39.9528 99.5617 39.9578 99.35 39.9578L98.5435 39.973C98.4528 39.9831 98.3167 39.9881 98.1453 39.9881H97.1019C96.9709 39.9982 96.7693 40.0032 96.5072 40.0032C96.2451 40.0032 96.0384 40.0032 95.9073 39.9881L95.6099 39.973C95.489 39.9629 95.3176 39.9578 95.0857 39.9578H94.8085C94.7782 39.9578 94.743 39.9579 94.7026 39.9679C94.6522 39.978 94.6018 39.9931 94.5464 40.0234C94.5262 40.0335 94.5061 40.0486 94.4909 40.0637C94.4103 40.1443 94.375 40.225 94.375 40.3409C94.375 40.3913 94.3901 40.472 94.4657 40.5426C94.5061 40.5829 94.5817 40.6333 94.6976 40.6333C94.8337 40.6333 94.9446 40.6282 95 40.6182H95.2017C95.373 40.6182 95.5444 40.6333 95.6956 40.6585C95.7914 40.6786 95.862 40.7089 95.8922 40.7442C96.0132 40.9004 96.0938 41.097 96.1241 41.3289C96.1694 41.6464 96.1946 42.0346 96.1946 42.4781L96.2098 43.1435C96.2198 43.2544 96.2249 43.4308 96.2249 43.6627L96.2703 45.5882C96.3106 46.5559 96.3257 47.3725 96.3257 48.0127L96.3106 48.9704C96.3005 49.0913 96.2955 49.2728 96.2955 49.5148C96.2904 49.6559 96.235 49.7769 96.1291 49.8827C96.0233 49.9886 95.9073 50.0491 95.7712 50.0642L95.5999 50.0944C95.5444 50.1045 95.4789 50.1146 95.4033 50.1247C95.2521 50.1448 95.0101 50.1347 94.8992 50.1549H94.8186C94.6018 50.1851 94.5212 50.3364 94.5212 50.4624C94.5212 50.5229 94.5313 50.5783 94.5565 50.6287C94.5665 50.6489 94.5766 50.664 94.5917 50.6791C94.6321 50.7194 94.6976 50.7699 94.8135 50.7699C94.8942 50.7799 95.0353 50.785 95.2319 50.785C95.4134 50.785 95.615 50.7749 95.8116 50.7547H95.872C96.3106 50.7144 96.6483 50.6942 96.8852 50.6942H96.986C97.359 50.6942 97.6413 50.6942 97.8429 50.7094H98.1504C98.3167 50.7194 98.604 50.7245 99.0174 50.7245H100.832C101.306 50.7245 101.638 50.7144 101.835 50.6942C101.986 50.6791 102.092 50.6489 102.168 50.5884C102.258 50.5178 102.314 50.3969 102.324 50.2356C102.369 49.9634 102.42 49.7567 102.465 49.6408C102.48 49.6156 102.49 49.5904 102.495 49.5652C102.516 49.545 102.526 49.5198 102.536 49.4896C102.551 49.4341 102.546 49.3736 102.516 49.3283L102.48 49.2526L102.51 49.2224Z" fill="#715137"/>
<path d="M115.057 39.8926C115.057 39.8926 115.022 39.8775 115.006 39.8725C114.891 39.8473 114.805 39.8372 114.749 39.8372C114.674 39.8372 114.578 39.8473 114.462 39.8624L114.205 39.8977C113.847 39.933 113.575 39.9531 113.399 39.9531C113.136 39.9531 112.874 39.938 112.632 39.9128C112.239 39.8473 112.028 39.8372 111.876 39.938C111.72 40.059 111.72 40.185 111.735 40.2505C111.775 40.4471 112.007 40.5076 112.118 40.5378C112.189 40.5479 112.305 40.558 112.461 40.5681C112.587 40.5782 112.693 40.5983 112.774 40.6336C112.839 40.6639 112.935 40.7294 112.98 40.926C113.026 41.1225 113.046 41.3645 113.046 41.6367C113.046 41.929 113.056 42.3676 113.076 42.9472C113.096 43.5269 113.106 43.9604 113.106 44.2578L113.091 44.8778C113.081 45.1197 113.076 45.4927 113.076 45.9867V46.4504C113.076 46.8033 113.076 47.0654 113.091 47.2418C113.101 47.3527 113.111 47.4535 113.116 47.5493L112.774 47.1763C112.587 46.9595 112.295 46.647 111.907 46.2337C111.448 45.7851 110.909 45.2256 110.304 44.5703C110.036 44.283 109.613 43.8142 109.043 43.169C108.313 42.3424 107.743 41.7173 107.35 41.3191C107.189 41.1578 106.962 40.9108 106.654 40.5681C106.614 40.5177 106.548 40.4421 106.463 40.3513C106.377 40.2606 106.286 40.1749 106.196 40.0943C106.085 39.9935 105.964 39.9279 105.838 39.9027C105.636 39.8624 105.475 39.8422 105.344 39.8422H104.88C104.825 39.8422 104.744 39.8372 104.628 39.8221C104.492 39.807 104.381 39.7969 104.285 39.7969C104.144 39.7969 103.942 39.812 103.832 39.9481C103.711 40.1044 103.741 40.2304 103.771 40.2909C103.857 40.4622 104.074 40.4824 104.255 40.4824H104.336C104.502 40.4975 104.633 40.5378 104.719 40.6034C104.814 40.6689 104.9 40.7848 104.981 40.9461C105.082 41.1427 105.157 41.2788 105.203 41.3494C105.313 41.556 105.384 41.7677 105.409 41.9744C105.439 42.1962 105.45 42.4885 105.455 42.8565C105.465 42.9472 105.47 43.0884 105.47 43.2749L105.515 45.659C105.525 45.9363 105.53 46.2841 105.53 46.6974C105.53 47.1107 105.525 47.4636 105.515 47.7458L105.455 48.8447C105.455 49.0917 105.45 49.2782 105.434 49.4092C105.424 49.5252 105.389 49.6411 105.334 49.752C105.288 49.8427 105.228 49.9032 105.152 49.9385C105.046 49.9839 104.905 50.0292 104.739 50.0645C104.693 50.0746 104.638 50.0847 104.567 50.0897C104.502 50.0998 104.426 50.1048 104.341 50.1048C104.32 50.1048 104.285 50.1048 104.245 50.0947C104.174 50.0847 104.104 50.0796 104.023 50.0796C103.69 50.0796 103.63 50.2762 103.625 50.3216C103.595 50.4123 103.61 50.5081 103.66 50.5837C103.756 50.7147 103.947 50.7702 104.326 50.7702C104.567 50.7702 104.83 50.75 105.112 50.7198C105.369 50.6895 105.52 50.6694 105.566 50.6694C105.818 50.6593 106.095 50.6694 106.402 50.6996C106.7 50.7198 106.916 50.7299 107.052 50.7299C107.199 50.7299 107.315 50.7248 107.355 50.7147C107.461 50.7147 107.567 50.6996 107.672 50.6694C107.935 50.5988 107.955 50.4073 107.955 50.3468C107.955 50.2157 107.884 49.9939 107.415 49.9939H107.315C107.239 49.9939 107.158 49.999 107.078 50.0091C106.937 50.0292 106.78 50.0191 106.73 49.9939C106.659 49.9486 106.609 49.883 106.569 49.7973C106.523 49.6865 106.483 49.5504 106.458 49.3991C106.422 49.1522 106.402 48.89 106.402 48.638L106.417 48.0231C106.438 47.7106 106.448 47.4585 106.448 47.272V44.4997C106.448 43.8596 106.448 43.3152 106.432 42.8817C106.533 42.9876 106.644 43.1085 106.76 43.2446L107.683 44.2426C107.965 44.5652 108.247 44.8727 108.529 45.1752C109.023 45.6943 109.19 45.8808 109.25 45.9514C109.744 46.5008 110.49 47.3073 111.473 48.3507L112.436 49.3689C112.642 49.5756 112.859 49.8125 113.086 50.0947C113.111 50.1199 113.152 50.1754 113.207 50.2611C113.283 50.377 113.373 50.4829 113.474 50.5686C113.565 50.6492 113.666 50.6895 113.761 50.6794C113.827 50.6744 113.918 50.6442 114.013 50.5081C114.049 50.4375 114.064 50.3518 114.064 50.2258C114.064 50.0796 114.054 49.9486 114.039 49.8326C114.024 49.7369 114.019 49.6713 114.019 49.6159C114.008 49.4395 114.008 49.2782 114.013 49.1421C114.013 48.9959 114.019 48.8699 114.019 48.7741V48.3507C114.019 47.645 114.008 46.6016 113.988 45.2306L113.958 42.9271C113.938 42.6045 113.928 42.3575 113.928 42.1861C113.928 41.6669 113.978 41.2435 114.084 40.9108C114.109 40.7949 114.16 40.7193 114.225 40.6689C114.306 40.6134 114.422 40.5731 114.588 40.558C114.628 40.5479 114.694 40.5479 114.78 40.5479C114.946 40.5479 115.062 40.5076 115.143 40.432C115.208 40.3665 115.248 40.2757 115.248 40.18C115.248 40.0439 115.163 39.933 115.047 39.9027L115.057 39.8926Z" fill="#715137"/>
<path d="M127.864 43.6312C127.783 43.2481 127.672 42.9054 127.536 42.6282C127.486 42.4921 127.375 42.2753 127.199 41.9527C127.047 41.7108 126.876 41.484 126.689 41.2773C126.538 41.0958 126.286 40.8892 125.898 40.6271C125.868 40.6119 125.817 40.5767 125.757 40.5313C125.586 40.4053 125.455 40.3196 125.369 40.2843C125.076 40.128 124.683 40.0071 124.174 39.9163L123.993 39.871C123.882 39.8508 123.726 39.8407 123.569 39.8407C123.504 39.8306 123.413 39.8256 123.302 39.8256L122.798 39.7802L122.496 39.7651C122.42 39.755 122.304 39.75 122.148 39.75C121.936 39.75 121.78 39.755 121.689 39.7651L121.074 39.7802C120.953 39.7702 120.767 39.7651 120.505 39.7651C119.991 39.7651 119.512 39.7853 119.083 39.8256C118.71 39.8559 118.373 39.871 118.07 39.871H117.279C117.168 39.8508 117.012 39.8407 116.795 39.8407C116.563 39.8407 116.381 39.8508 116.245 39.871C116.014 39.871 115.908 40.0272 115.908 40.1784C115.908 40.3297 116.019 40.501 116.271 40.501H116.402C116.492 40.501 116.553 40.496 116.603 40.4809H116.664C116.664 40.4809 116.699 40.4809 116.714 40.4809C117.047 40.501 117.289 40.5313 117.445 40.5767C117.707 40.6422 117.853 40.7783 117.909 41.0152C117.944 41.1362 117.964 41.2722 117.974 41.4184C117.984 41.5747 117.989 41.6755 117.989 41.7108V41.9376C118 42.1594 118.005 42.482 118.005 42.9155L118.02 43.969C118.03 44.0496 118.035 44.1756 118.035 44.347C118.045 44.5587 118.05 44.8863 118.05 45.34V46.1969C118.05 46.2674 118.05 46.3582 118.06 46.4691C118.06 46.5699 118.06 46.6808 118.05 46.8219V48.2635L118.035 48.5357C118.035 48.8432 118.02 49.075 117.989 49.2464C117.984 49.3422 117.959 49.4228 117.934 49.4732C117.753 49.7706 117.506 49.9471 117.183 50.0025C116.84 50.0781 116.487 50.1134 116.14 50.1134H116.039C115.888 50.1134 115.812 50.194 115.777 50.2495C115.741 50.2949 115.711 50.3705 115.731 50.4763C115.741 50.5469 115.777 50.6376 115.903 50.7082C115.918 50.7183 115.928 50.7233 115.943 50.7283C115.993 50.7435 116.054 50.7535 116.124 50.7535C116.18 50.7535 116.225 50.7535 116.261 50.7384C116.266 50.7384 116.271 50.7384 116.276 50.7384C116.568 50.7082 117.022 50.688 117.637 50.6679L119.718 50.6376C119.98 50.688 120.303 50.7132 120.661 50.7132H120.671L121.135 50.7435H121.336C121.508 50.7435 121.654 50.7384 121.775 50.7283C121.896 50.7183 121.992 50.7082 122.082 50.6981C122.193 50.6779 122.365 50.6628 122.581 50.6427C122.843 50.6326 123.272 50.5822 123.887 50.4814C124.179 50.4511 124.406 50.3856 124.567 50.2949C124.623 50.2747 124.668 50.2495 124.714 50.2293C124.744 50.2142 124.764 50.2041 124.809 50.189C125.182 50.0176 125.434 49.8815 125.581 49.7807C125.898 49.5589 126.165 49.3472 126.367 49.1456C126.725 48.7776 126.962 48.4651 127.103 48.1929C127.113 48.1778 127.123 48.1526 127.138 48.1224C127.158 48.0871 127.178 48.0468 127.188 48.0266C127.209 47.9964 127.264 47.8955 127.36 47.7191C127.456 47.5377 127.526 47.3562 127.561 47.1949L127.662 46.8925C127.733 46.6959 127.788 46.5195 127.829 46.3531L127.869 46.1364C127.939 45.8642 127.98 45.6122 127.99 45.4005C128 45.2644 128.005 45.0527 128.005 44.7754C128.005 44.347 127.965 43.9589 127.884 43.6312H127.864ZM121.609 49.9672C121.609 49.9672 121.583 49.9672 121.568 49.9672C121.493 49.9823 121.437 49.9924 121.407 49.9924C121.281 49.9924 121.155 49.9723 121.019 49.9269C120.883 49.8815 120.787 49.8563 120.737 49.8412C120.686 49.821 120.626 49.8009 120.565 49.7858C120.358 49.7051 120.187 49.6144 120.061 49.5035C119.94 49.3976 119.87 49.2565 119.839 49.0498C119.774 48.7222 119.733 48.2282 119.713 47.583V46.711C119.713 46.6253 119.713 46.5195 119.718 46.3935C119.718 46.2574 119.718 46.1011 119.713 45.9297C119.713 45.718 119.713 45.5567 119.728 45.4358C119.728 45.0275 119.723 44.715 119.713 44.5133C119.713 44.4982 119.703 44.4831 119.703 44.468C119.708 44.4276 119.713 44.3924 119.713 44.3621V44.3218C119.713 44.3218 119.728 44.2714 119.728 44.2462V44.1454C119.728 44.1454 119.728 44.1101 119.723 44.095C119.698 43.9942 119.688 43.8984 119.683 43.8228L119.698 41.7561L119.728 40.8085V40.7531C119.728 40.7531 119.728 40.7228 119.728 40.7077C119.744 40.7077 119.764 40.7077 119.794 40.7077C120.127 40.6875 120.384 40.6674 120.535 40.6523C120.646 40.6523 120.812 40.6422 121.044 40.622H121.442L121.573 40.6371C121.588 40.6371 121.598 40.6371 121.614 40.6371L121.997 40.622C122.602 40.6775 123.242 40.8287 123.887 41.0706C124.134 41.1664 124.346 41.2874 124.512 41.4285C124.638 41.5344 124.729 41.6049 124.789 41.6453C124.92 41.736 125.031 41.8166 125.107 41.8973C125.475 42.2652 125.752 42.6483 125.938 43.0465C126.15 43.48 126.291 43.979 126.357 44.5385C126.402 44.8863 126.427 45.1888 126.427 45.4408C126.427 45.5618 126.417 45.7382 126.397 45.96C126.377 46.1868 126.301 46.5396 126.175 47.0034C126.054 47.3965 125.822 47.8603 125.485 48.3794C125.354 48.5962 125.157 48.8129 124.895 49.0196C124.567 49.2867 124.225 49.4884 123.882 49.6295C123.705 49.7101 123.489 49.7656 123.242 49.8009C122.637 49.8866 122.178 49.937 121.886 49.9571H121.619L121.609 49.9672Z" fill="#715137"/>
<path d="M49.2156 60.0616L48.5906 59.7592C48.0008 59.4769 47.7135 59.1241 47.7135 58.6805C47.7135 58.5747 47.7337 58.4638 47.774 58.3529C47.8143 58.242 47.8698 58.1462 47.9403 58.0656C48.1067 57.869 48.3335 57.7732 48.6259 57.7732C48.8275 57.7732 49.0039 57.8236 49.1602 57.9194C49.3164 58.0202 49.4626 58.1764 49.5987 58.3932C49.6743 58.5142 49.7398 58.6452 49.7953 58.7864C49.8507 58.9325 49.9213 59.1442 49.9969 59.4215L50.0221 59.5172H50.3548L50.3195 57.496H49.9868L49.9616 57.5968C49.9314 57.7228 49.891 57.7228 49.8759 57.7228C49.8457 57.7228 49.8104 57.7178 49.7701 57.7026C49.7197 57.6875 49.6239 57.6522 49.4827 57.5917C49.2761 57.5061 49.1148 57.4506 48.9888 57.4204C48.8628 57.3901 48.7216 57.375 48.5754 57.375C48.1168 57.375 47.7085 57.5313 47.3758 57.8438C47.1843 58.0202 47.033 58.2319 46.9322 58.4738C46.8264 58.7158 46.7709 58.9729 46.7709 59.235C46.7709 59.6685 46.9121 60.0364 47.1843 60.3388C47.2851 60.4447 47.4111 60.5556 47.5724 60.6564C47.7236 60.7572 47.9454 60.8782 48.2276 61.0244C48.5402 61.1857 48.7771 61.3167 48.9232 61.4175C49.0644 61.5133 49.1753 61.6191 49.2559 61.72C49.3315 61.8208 49.392 61.9417 49.4323 62.0879C49.4777 62.2341 49.4979 62.3752 49.4979 62.5113C49.4979 62.8289 49.4021 63.0809 49.2005 63.2876C49.0039 63.4892 48.7569 63.59 48.4494 63.59C48.0059 63.59 47.6429 63.3682 47.3405 62.9045C47.1742 62.6474 47.033 62.2895 46.9121 61.8359L46.8869 61.7452L46.5542 61.73L46.5391 63.8269H46.8617L46.8919 63.7412C46.9272 63.6505 46.9776 63.6102 47.0633 63.6102C47.0935 63.6102 47.1187 63.6102 47.1439 63.6203C47.1792 63.6303 47.2851 63.6757 47.4615 63.7563C47.8294 63.9126 48.2176 63.9933 48.6107 63.9933C49.0493 63.9933 49.4374 63.8924 49.765 63.6908C50.0927 63.4892 50.3447 63.2019 50.506 62.8339C50.6219 62.5718 50.6824 62.2895 50.6824 62.0022C50.6824 61.5637 50.5513 61.1756 50.2943 60.8479C50.0675 60.5556 49.7045 60.2935 49.2055 60.0566L49.2156 60.0616Z" fill="#715137"/>
<path d="M56.36 57.8891H56.4809C56.6372 57.9043 56.7632 57.9244 56.8539 57.9597C56.9396 57.9899 57.0203 58.0403 57.0858 58.116C57.1614 58.1966 57.2118 58.2924 57.2421 58.4133C57.2723 58.5494 57.2874 58.7662 57.2874 59.0585V61.5385C57.2874 61.9871 57.2824 62.2694 57.2723 62.3853C57.2572 62.5567 57.2219 62.6978 57.1765 62.8037C57.1312 62.9095 57.0556 63.0053 56.9548 63.096C56.7834 63.2472 56.5616 63.3733 56.2995 63.459C55.7652 63.6354 55.1099 63.6404 54.7319 63.4489C54.5454 63.3531 54.3891 63.2019 54.2581 62.9902C54.1724 62.849 54.1169 62.6978 54.0867 62.5315C54.0564 62.3551 54.0413 62.0678 54.0413 61.6695V59.1594C54.0413 58.8116 54.0564 58.5595 54.0867 58.4234C54.1119 58.2974 54.1673 58.1966 54.248 58.1109C54.3135 58.0403 54.3891 57.9899 54.4748 57.9597C54.5706 57.9244 54.6966 57.9043 54.8528 57.8942H54.9738V57.5363H51.8789V57.8891H51.9999C52.1561 57.9043 52.2822 57.9244 52.3779 57.9597C52.4636 57.9899 52.5392 58.0403 52.6098 58.116C52.6854 58.1916 52.7408 58.2924 52.766 58.4133C52.7963 58.5494 52.8114 58.7662 52.8114 59.0585V61.7502C52.8114 62.098 52.8215 62.3349 52.8417 62.471C52.8971 62.8692 53.0634 63.1918 53.3457 63.4388C53.7641 63.8118 54.4143 63.9983 55.2813 63.9983C56.1483 63.9983 56.7632 63.8017 57.2169 63.4085C57.4235 63.2321 57.5647 63.0305 57.6352 62.8138C57.7058 62.6021 57.736 62.2895 57.736 61.8561V59.0585C57.736 58.7712 57.7512 58.5545 57.7814 58.4133C57.8116 58.2873 57.8621 58.1916 57.9377 58.1109C58.0082 58.0403 58.0838 57.9899 58.1695 57.9547C58.2653 57.9194 58.3863 57.8992 58.5425 57.8891H58.6635V57.5312H56.36V57.8841V57.8891Z" fill="#715137"/>
<path d="M59.6906 57.8891H59.8116C59.9678 57.9043 60.0938 57.9244 60.1846 57.9597C60.2703 57.9899 60.3509 58.0403 60.4164 58.116C60.492 58.1916 60.5475 58.2924 60.5727 58.4133C60.6029 58.5494 60.618 58.7662 60.618 59.0585V62.3299C60.618 62.6222 60.6029 62.839 60.5727 62.9751C60.5475 63.096 60.492 63.1918 60.4164 63.2724C60.3509 63.343 60.2753 63.3934 60.1846 63.4237C60.0938 63.459 59.9678 63.4791 59.8065 63.4892H59.6855V63.8471H62.7805V63.4942H62.6595C62.478 63.4741 62.3318 63.4438 62.226 63.3934C62.1252 63.3481 62.0445 63.2725 61.984 63.1767C61.9387 63.1061 61.9084 63.0053 61.8883 62.8843C61.8681 62.7482 61.853 62.5617 61.853 62.3248V59.0535C61.853 58.8569 61.8631 58.6805 61.8782 58.5293C61.8984 58.3478 61.9588 58.2067 62.0546 58.1109C62.1252 58.0403 62.2008 57.9899 62.2865 57.9547C62.3772 57.9194 62.5032 57.8992 62.6595 57.8891H62.7805V57.5312H59.6855V57.8841L59.6906 57.8891Z" fill="#715137"/>
<path d="M63.7743 57.5312L63.6836 59.4164L64.0264 59.4467L64.0465 59.3358C64.112 58.9981 64.2129 58.7309 64.3338 58.5394C64.4649 58.3377 64.6312 58.1966 64.8278 58.116C65.0345 58.0303 65.3671 57.9748 65.8057 57.9547C65.967 57.9446 66.1232 57.9395 66.2694 57.9395V62.3349C66.2694 62.6273 66.2543 62.844 66.224 62.9801C66.1938 63.1011 66.1434 63.2019 66.0678 63.2775C65.9972 63.3481 65.9216 63.4035 65.8359 63.4337C65.7452 63.469 65.6192 63.4892 65.4579 63.4993H65.3369V63.8572H68.4318V63.5043H68.3108C68.1546 63.4892 68.0286 63.469 67.9378 63.4337C67.8521 63.4035 67.7715 63.3481 67.706 63.2775C67.6304 63.2019 67.5799 63.1011 67.5497 62.9751C67.5195 62.839 67.5043 62.6222 67.5043 62.3299V57.9345C68.079 57.9345 68.4923 57.9799 68.7393 58.0504C69.0367 58.1361 69.2635 58.2722 69.4147 58.4638C69.571 58.6603 69.6869 58.9527 69.7625 59.3408L69.7827 59.4567L70.1254 59.4265L70.0347 57.5413H63.7844L63.7743 57.5312Z" fill="#715137"/>
<path d="M76.2629 61.9266C76.2074 62.1837 76.1469 62.3954 76.0864 62.5466C76.0259 62.6978 75.9453 62.8289 75.8445 62.9499C75.7084 63.1212 75.532 63.2472 75.3152 63.3279C75.0934 63.4136 74.8061 63.4539 74.4684 63.4539C74.1509 63.4539 73.8988 63.4085 73.7123 63.3178C73.5309 63.2321 73.4048 63.096 73.3141 62.9095C73.2637 62.7986 73.2234 62.6575 73.2083 62.4861C73.1881 62.3097 73.178 62.0174 73.178 61.6141V60.727H73.304C73.5107 60.727 73.677 60.7471 73.8081 60.7875C73.9291 60.8278 74.0248 60.8832 74.1004 60.9588C74.1811 61.0445 74.2416 61.1504 74.287 61.2713C74.3374 61.4024 74.3726 61.5738 74.3978 61.7905L74.413 61.9065H74.7557L74.7759 59.2753L74.4281 59.2602L74.413 59.3811C74.3878 59.5979 74.3575 59.7642 74.3172 59.8701C74.2819 59.9658 74.2315 60.0515 74.1609 60.1271C74.0904 60.2027 74.0047 60.2532 73.8887 60.2834C73.7627 60.3136 73.5712 60.3338 73.3141 60.3338H73.178V57.9295H74.0652C74.3676 57.9295 74.6095 57.9496 74.791 57.9899C74.9624 58.0303 75.1136 58.0958 75.2346 58.1865C75.3858 58.2974 75.5068 58.4285 75.5824 58.5746C75.663 58.7259 75.7235 58.9174 75.7588 59.1493L75.779 59.2652L76.1268 59.2501L76.036 57.5312H71.0156V57.8841H71.1366C71.2929 57.8992 71.4189 57.9194 71.5146 57.9547C71.6003 57.9849 71.6759 58.0353 71.7415 58.1109C71.8171 58.1916 71.8675 58.2873 71.8977 58.4133C71.928 58.5494 71.9431 58.7662 71.9431 59.0585V62.3299C71.9431 62.6172 71.928 62.8339 71.8977 62.9751C71.8675 63.096 71.8171 63.1968 71.7415 63.2775C71.6709 63.3481 71.5953 63.4035 71.5096 63.4337C71.4189 63.469 71.2929 63.4892 71.1366 63.4993H71.0156V63.8572H76.5602L76.6258 61.8409L76.2881 61.8258L76.2679 61.9317L76.2629 61.9266Z" fill="#715137"/>
<path d="M81.5563 60.853C81.3345 60.5606 80.9666 60.2985 80.4676 60.0616L79.8425 59.7592C79.2528 59.4769 78.9655 59.1241 78.9655 58.6805C78.9655 58.5696 78.9856 58.4638 79.026 58.3529C79.0663 58.242 79.1217 58.1462 79.1923 58.0656C79.3586 57.869 79.5855 57.7732 79.8778 57.7732C80.0794 57.7732 80.2609 57.8236 80.4121 57.9194C80.5684 58.0202 80.7145 58.1764 80.8506 58.3932C80.9262 58.5142 80.9918 58.6452 81.0472 58.7864C81.1027 58.9275 81.1682 59.1442 81.2488 59.4215L81.274 59.5172H81.6067L81.5714 57.496H81.2388L81.2136 57.5968C81.1833 57.7228 81.143 57.7228 81.1329 57.7228C81.1027 57.7228 81.0674 57.7178 81.0271 57.7026C80.9766 57.6875 80.8809 57.6522 80.7397 57.5917C80.5331 57.5061 80.3718 57.4506 80.2458 57.4204C80.1198 57.3901 79.9786 57.375 79.8274 57.375C79.3687 57.375 78.9655 57.5313 78.6278 57.8438C78.4362 58.0202 78.285 58.2319 78.1842 58.4738C78.0783 58.7158 78.0229 58.9729 78.0229 59.235C78.0229 59.6634 78.164 60.0364 78.4362 60.3388C78.532 60.4447 78.663 60.5556 78.8243 60.6564C78.9755 60.7572 79.1973 60.8782 79.4796 61.0244C79.7921 61.1857 80.029 61.3167 80.1752 61.4175C80.3163 61.5133 80.4272 61.6191 80.5079 61.72C80.5835 61.8208 80.644 61.9417 80.6843 62.0829C80.7297 62.2291 80.7498 62.3702 80.7498 62.5063C80.7498 62.8238 80.6541 63.0759 80.4524 63.2825C80.2558 63.4842 80.0089 63.585 79.7014 63.585C79.2578 63.585 78.8949 63.3632 78.5925 62.8995C78.4312 62.6424 78.285 62.2845 78.164 61.8309L78.1388 61.7401L77.8061 61.725L77.791 63.8219H78.1136L78.1439 63.7362C78.1791 63.6455 78.2295 63.6051 78.3152 63.6051C78.3455 63.6051 78.3707 63.6051 78.3959 63.6152C78.4312 63.6253 78.537 63.6707 78.7134 63.7513C79.0814 63.9076 79.4695 63.9882 79.8627 63.9882C80.3012 63.9882 80.6893 63.8874 81.017 63.6858C81.3446 63.4842 81.5966 63.1968 81.7579 62.8289C81.8739 62.5668 81.9344 62.2845 81.9344 61.9972C81.9344 61.5587 81.8033 61.1705 81.5462 60.8429L81.5563 60.853Z" fill="#715137"/>
<path d="M66.2332 32.6302C65.8652 32.237 65.6535 31.7279 65.6283 31.1886L64.4135 2.82031H64.1212L62.9064 31.1886C62.8812 31.7229 62.6695 32.237 62.3015 32.6302L62.0898 32.857V33.099H66.4398V32.857L66.2281 32.6302H66.2332Z" fill="#715137"/>
<path d="M63.5374 23.67C65.0194 22.43 66.471 21.1497 67.9076 19.8644C68.0739 19.7131 68.2756 19.5266 68.457 19.4006C69.082 18.9571 69.8381 18.7202 70.5942 18.7302L71.2495 18.7504C72.1114 18.7806 74.2133 18.821 75.1005 18.8411C75.4987 18.8411 76.6026 18.9016 76.9756 18.8613C77.5451 18.7958 78.0946 18.5589 78.523 18.1707L79.4606 17.2987C79.9243 16.8602 80.877 15.9882 81.3508 15.5547L81.5473 15.7513C81.1139 16.2251 80.2469 17.1727 79.8033 17.6415L78.9263 18.5841C78.2861 19.2696 77.3082 19.6426 76.3858 19.6123C74.7829 19.6577 72.5247 19.6879 70.9269 19.7434C70.8866 19.7434 70.7253 19.7484 70.6849 19.7535C70.1355 19.7787 69.5962 19.9954 69.1879 20.3583C69.0568 20.4592 68.9107 20.6457 68.7947 20.7666C67.5094 22.2032 66.2291 23.6549 64.9891 25.1368L63.5273 23.675L63.5374 23.67Z" fill="#715137"/>
<path d="M63.5376 25.1318C62.2976 23.6498 61.0173 22.1981 59.732 20.7616C59.1624 20.071 58.5071 19.7384 57.6048 19.7434C56.5715 19.7031 54.4898 19.6678 53.4313 19.6426L52.1459 19.6123C51.7074 19.6123 51.1882 19.5519 50.7698 19.3704C50.3313 19.194 49.9281 18.9218 49.6055 18.5841L48.7284 17.6415L47.8514 16.6989L46.9844 15.7513L47.181 15.5547C47.6598 15.9882 48.6024 16.8602 49.0712 17.2987L50.0087 18.1707C50.296 18.4278 50.6388 18.6244 51.0017 18.7403C51.3898 18.8663 51.7275 18.8915 52.1509 18.8714L53.4363 18.8411C54.6662 18.8159 56.7379 18.7756 57.9426 18.7302C58.9507 18.7101 59.9235 19.1536 60.6342 19.8644C62.0708 21.1497 63.5225 22.43 65.0044 23.67L63.5426 25.1318H63.5376Z" fill="#715137"/>
<path d="M63.7847 15.9167C62.8774 14.8682 61.96 13.8299 61.0275 12.8067L59.6313 11.2693C59.2129 10.7602 58.7038 10.5132 58.0233 10.5384C55.2561 10.4628 52.4938 10.3973 49.7266 10.3418V10.2057C51.1077 10.1856 52.4938 10.1452 53.8749 10.115C55.2561 10.0797 56.6422 10.0545 58.0233 10.0091C58.603 9.96378 59.2028 10.0848 59.6817 10.4275C59.9992 10.6594 61.3249 11.9145 61.6475 12.1917C62.6707 13.1242 63.7091 14.0416 64.7575 14.9489L63.7847 15.9217V15.9167Z" fill="#715137"/>
<path d="M63.7832 14.9484C65.3004 13.6429 66.9436 12.1509 68.4306 10.7949C68.7028 10.5228 69.0254 10.2808 69.3883 10.1498C69.7462 10.0086 70.1393 9.98341 70.5174 10.0086C71.8985 10.054 73.2847 10.0792 74.6658 10.1145C76.0469 10.1447 77.433 10.185 78.8142 10.2052V10.3413C76.0469 10.3967 73.2847 10.4623 70.5174 10.5379C69.8369 10.5127 69.3278 10.7597 68.9095 11.2688L67.5132 12.8061C66.5807 13.8294 65.6633 14.8677 64.756 15.9162L63.7832 14.9433V14.9484Z" fill="#715137"/>
<path d="M63.9746 8.66212C65.1138 7.60864 68.002 4.93714 69.1059 3.92399C69.363 3.68204 69.5091 3.33425 69.4991 2.96124L69.5343 1.79688H69.6452L69.6856 2.96124C69.7208 3.36953 69.5898 3.8131 69.3025 4.11553L67.7197 5.82932L64.5593 9.25186L63.9746 8.66716V8.66212Z" fill="#715137"/>
<path d="M63.9747 9.25003L58.541 3.38282L58.6922 3.22656L64.5594 8.66533L63.9747 9.25003Z" fill="#715137"/>
<path d="M56.0712 22.6337C55.7033 23.0017 55.5319 23.4957 55.5571 23.9796C56.041 24.0048 56.535 23.8334 56.9029 23.4654C57.2709 23.0975 57.4423 22.6035 57.4171 22.1196C56.9332 22.0944 56.4392 22.2658 56.0712 22.6337Z" fill="#715137"/>
<path d="M67.3834 25.3212C67.7514 25.6892 67.9228 26.1832 67.8975 26.6671C67.4137 26.6923 66.9197 26.5209 66.5517 26.1529C66.1838 25.785 66.0124 25.291 66.0376 24.8071C66.5215 24.7819 67.0154 24.9533 67.3834 25.3212Z" fill="#715137"/>
<path d="M70.3951 22.6337C70.7631 23.0017 70.9345 23.4957 70.9093 23.9796C70.4254 24.0048 69.9314 23.8334 69.5634 23.4654C69.1955 23.0975 69.0241 22.6035 69.0493 22.1196C69.5332 22.0944 70.0272 22.2658 70.3951 22.6337Z" fill="#715137"/>
<path d="M72.1412 22.6337C72.5092 23.0017 72.6806 23.4957 72.6554 23.9796C72.1715 24.0048 71.6775 23.8334 71.3095 23.4654C70.9416 23.0975 70.7702 22.6035 70.7954 22.1196C71.2793 22.0944 71.7733 22.2658 72.1412 22.6337Z" fill="#715137"/>
<path d="M55.2587 20.54C54.8908 20.908 54.7194 21.4019 54.7446 21.8858C55.2285 21.911 55.7225 21.7397 56.0904 21.3717C56.4584 21.0037 56.6298 20.5098 56.6046 20.0259C56.1207 20.0007 55.6267 20.172 55.2587 20.54Z" fill="#715137"/>
<path d="M53.3642 20.54C52.9963 20.908 52.8249 21.4019 52.8501 21.8858C53.334 21.911 53.8279 21.7397 54.1959 21.3717C54.5639 21.0037 54.7353 20.5098 54.71 20.0259C54.2262 20.0007 53.7322 20.172 53.3642 20.54Z" fill="#715137"/>
<path d="M45.6884 11.7666C45.3205 12.1345 45.1491 12.6285 45.1743 13.1124C45.6582 13.1376 46.1522 12.9662 46.5201 12.5983C46.8881 12.2303 47.0595 11.7363 47.0343 11.2524C46.5504 11.2272 46.0564 11.3986 45.6884 11.7666Z" fill="#715137"/>
<path d="M47.3877 11.7666C47.0197 12.1345 46.8483 12.6285 46.8735 13.1124C47.3574 13.1376 47.8514 12.9662 48.2193 12.5983C48.5873 12.2303 48.7587 11.7363 48.7335 11.2524C48.2496 11.2272 47.7556 11.3986 47.3877 11.7666Z" fill="#715137"/>
<path d="M49.0908 11.7666C48.7228 12.1345 48.5514 12.6285 48.5766 13.1124C49.0605 13.1376 49.5545 12.9662 49.9225 12.5983C50.2904 12.2303 50.4618 11.7363 50.4366 11.2524C49.9527 11.2272 49.4587 11.3986 49.0908 11.7666Z" fill="#715137"/>
<path d="M53.9931 11.7666C53.6252 12.1345 53.4538 12.6285 53.479 13.1124C53.9629 13.1376 54.4569 12.9662 54.8248 12.5983C55.1928 12.2303 55.3642 11.7363 55.339 11.2524C54.8551 11.2272 54.3611 11.3986 53.9931 11.7666Z" fill="#715137"/>
<path d="M59.2353 6.38375C58.8673 6.75171 58.696 7.24568 58.7212 7.72958C59.2051 7.75478 59.699 7.5834 60.067 7.21544C60.435 6.84748 60.6063 6.3535 60.5811 5.86961C60.0972 5.84441 59.6033 6.01579 59.2353 6.38375Z" fill="#715137"/>
<path d="M57.2666 4.39156C56.8986 4.75952 56.7272 5.2535 56.7524 5.73739C57.2363 5.76259 57.7303 5.59121 58.0983 5.22325C58.4662 4.85529 58.6376 4.36132 58.6124 3.87742C58.1285 3.85222 57.6345 4.0236 57.2666 4.39156Z" fill="#715137"/>
<path d="M70.4658 1.92281C70.0978 2.29077 69.9264 2.78475 69.9516 3.26864C70.4355 3.29384 70.9295 3.12246 71.2975 2.7545C71.6654 2.38654 71.8368 1.89257 71.8116 1.40867C71.3277 1.38347 70.8337 1.55485 70.4658 1.92281Z" fill="#715137"/>
<path d="M68.7115 1.92281C69.0795 2.29077 69.2509 2.78475 69.2257 3.26864C68.7418 3.29384 68.2478 3.12246 67.8798 2.7545C67.5119 2.38654 67.3405 1.89257 67.3657 1.40867C67.8496 1.38347 68.3436 1.55485 68.7115 1.92281Z" fill="#715137"/>
<path d="M59.7705 2.06344C59.4025 2.4314 59.2311 2.92537 59.2563 3.40927C59.7402 3.43447 60.2342 3.26309 60.6022 2.89513C60.9701 2.52717 61.1415 2.03319 61.1163 1.5493C60.6324 1.5241 60.1384 1.69547 59.7705 2.06344Z" fill="#715137"/>
<path d="M55.6377 3.67281C55.2697 4.04077 55.0983 4.53475 55.1235 5.01864C55.6074 5.04384 56.1014 4.87246 56.4693 4.5045C56.8373 4.13654 57.0087 3.64257 56.9835 3.15867C56.4996 3.13347 56.0056 3.30485 55.6377 3.67281Z" fill="#715137"/>
<path d="M59.1298 0.914998C58.7619 1.28296 58.5905 1.77693 58.6157 2.26083C59.0996 2.28603 59.5936 2.11465 59.9615 1.74669C60.3295 1.37873 60.5009 0.884755 60.4757 0.400861C59.9918 0.375658 59.4978 0.547037 59.1298 0.914998Z" fill="#715137"/>
<path d="M63.6816 1.31559C63.6816 1.8398 63.9085 2.30858 64.2714 2.63117C64.6343 2.30858 64.8611 1.8398 64.8611 1.31559C64.8611 0.791368 64.6343 0.322596 64.2714 0C63.9085 0.322596 63.6816 0.791368 63.6816 1.31559Z" fill="#715137"/>
<path d="M51.4384 4.42281C51.0705 4.79077 50.8991 5.28475 50.9243 5.76864C51.4082 5.79384 51.9022 5.62246 52.2701 5.2545C52.6381 4.88654 52.8095 4.39257 52.7843 3.90867C52.3004 3.88347 51.8064 4.05485 51.4384 4.42281Z" fill="#715137"/>
<path d="M53.5361 4.75094C53.1681 5.1189 52.9968 5.61287 53.022 6.09677C53.5058 6.12197 53.9998 5.95059 54.3678 5.58263C54.7357 5.21467 54.9071 4.72069 54.8819 4.2368C54.398 4.2116 53.9041 4.38297 53.5361 4.75094Z" fill="#715137"/>
<path d="M53.4462 3.07906C53.0783 3.44702 52.9069 3.941 52.9321 4.42489C53.416 4.45009 53.91 4.27871 54.2779 3.91075C54.6459 3.54279 54.8173 3.04882 54.7921 2.56492C54.3082 2.53972 53.8142 2.7111 53.4462 3.07906Z" fill="#715137"/>
<path d="M55.8544 11.7666C55.4865 12.1345 55.3151 12.6285 55.3403 13.1124C55.8242 13.1376 56.3182 12.9662 56.6861 12.5983C57.0541 12.2303 57.2255 11.7363 57.2003 11.2524C56.7164 11.2272 56.2224 11.3986 55.8544 11.7666Z" fill="#715137"/>
<path d="M52.8951 6.52437C53.2631 6.89233 53.4345 7.38631 53.4093 7.8702C52.9254 7.89541 52.4314 7.72403 52.0634 7.35607C51.6955 6.9881 51.5241 6.49413 51.5493 6.01024C52.0332 5.98503 52.5272 6.15641 52.8951 6.52437Z" fill="#715137"/>
<path d="M51.0318 6.52437C51.3998 6.89233 51.5712 7.38631 51.546 7.8702C51.0621 7.89541 50.5681 7.72403 50.2002 7.35607C49.8322 6.9881 49.6608 6.49413 49.686 6.01024C50.1699 5.98503 50.6639 6.15641 51.0318 6.52437Z" fill="#715137"/>
<path d="M58.0709 1.92281C58.4389 2.29077 58.6103 2.78475 58.585 3.26864C58.1012 3.29384 57.6072 3.12246 57.2392 2.7545C56.8713 2.38654 56.6999 1.89257 56.7251 1.40867C57.209 1.38347 57.7029 1.55485 58.0709 1.92281Z" fill="#715137"/>
<path d="M65.6377 11.5009C65.2697 11.8689 65.0983 12.3629 65.1235 12.8468C65.6074 12.872 66.1014 12.7006 66.4693 12.3326C66.8373 11.9647 67.0087 11.4707 66.9835 10.9868C66.4996 10.9616 66.0056 11.133 65.6377 11.5009Z" fill="#715137"/>
<path d="M60.1689 8.53219C59.8009 8.90015 59.6296 9.39412 59.6548 9.87802C60.1387 9.90322 60.6326 9.73184 61.0006 9.36388C61.3686 8.99592 61.5399 8.50194 61.5147 8.01805C61.0308 7.99285 60.5369 8.16422 60.1689 8.53219Z" fill="#715137"/>
<path d="M62.9869 8.53219C63.3549 8.90015 63.5263 9.39412 63.5011 9.87802C63.0172 9.90322 62.5232 9.73184 62.1552 9.36388C61.7873 8.99592 61.6159 8.50194 61.6411 8.01805C62.125 7.99285 62.619 8.16422 62.9869 8.53219Z" fill="#715137"/>
<path d="M69.3795 8.53219C69.7475 8.90015 69.9188 9.39412 69.8936 9.87802C69.4097 9.90322 68.9158 9.73184 68.5478 9.36388C68.1799 8.99592 68.0085 8.50194 68.0337 8.01805C68.5176 7.99285 69.0115 8.16422 69.3795 8.53219Z" fill="#715137"/>
<path d="M77.9889 8.53219C78.3568 8.90015 78.5282 9.39412 78.503 9.87802C78.0191 9.90322 77.5251 9.73184 77.1572 9.36388C76.7892 8.99592 76.6178 8.50194 76.643 8.01805C77.1269 7.99285 77.6209 8.16422 77.9889 8.53219Z" fill="#715137"/>
<path d="M77.9889 6.84469C78.3568 7.21265 78.5282 7.70662 78.503 8.19052C78.0191 8.21572 77.5251 8.04434 77.1572 7.67638C76.7892 7.30842 76.6178 6.81444 76.643 6.33055C77.1269 6.30535 77.6209 6.47672 77.9889 6.84469Z" fill="#715137"/>
<path d="M77.9889 5.17281C78.3568 5.54077 78.5282 6.03475 78.503 6.51864C78.0191 6.54384 77.5251 6.37246 77.1572 6.0045C76.7892 5.63654 76.6178 5.14257 76.643 4.65867C77.1269 4.63347 77.6209 4.80485 77.9889 5.17281Z" fill="#715137"/>
<path d="M79.3095 8.53219C78.9416 8.90015 78.7702 9.39412 78.7954 9.87802C79.2793 9.90322 79.7733 9.73184 80.1412 9.36388C80.5092 8.99592 80.6806 8.50194 80.6554 8.01805C80.1715 7.99285 79.6775 8.16422 79.3095 8.53219Z" fill="#715137"/>
<path d="M62.9869 10.3916C63.3549 10.7595 63.5263 11.2535 63.5011 11.7374C63.0172 11.7626 62.5232 11.5912 62.1552 11.2233C61.7873 10.8553 61.6159 10.3613 61.6411 9.87742C62.125 9.85222 62.619 10.0236 62.9869 10.3916Z" fill="#715137"/>
<path d="M49.9365 21.6103C49.5685 21.9783 49.3971 22.4722 49.4223 22.9561C49.9062 22.9813 50.4002 22.81 50.7682 22.442C51.1361 22.074 51.3075 21.5801 51.2823 21.0962C50.7984 21.071 50.3044 21.2423 49.9365 21.6103Z" fill="#715137"/>
<path d="M48.6803 21.6103C49.0482 21.9783 49.2196 22.4722 49.1944 22.9561C48.7105 22.9813 48.2166 22.81 47.8486 22.442C47.4806 22.074 47.3093 21.5801 47.3345 21.0962C47.8183 21.071 48.3123 21.2423 48.6803 21.6103Z" fill="#715137"/>
<path d="M46.7701 21.6103C47.1381 21.9783 47.3095 22.4722 47.2843 22.9561C46.8004 22.9813 46.3064 22.81 45.9384 22.442C45.5705 22.074 45.3991 21.5801 45.4243 21.0962C45.9082 21.071 46.4022 21.2423 46.7701 21.6103Z" fill="#715137"/>
<path d="M44.8756 21.6103C45.2436 21.9783 45.4149 22.4722 45.3897 22.9561C44.9058 22.9813 44.4119 22.81 44.0439 22.442C43.6759 22.074 43.5046 21.5801 43.5298 21.0962C44.0137 21.071 44.5076 21.2423 44.8756 21.6103Z" fill="#715137"/>
<path d="M44.9264 19.7119C45.2943 20.0798 45.4657 20.5738 45.4405 21.0577C44.9566 21.0829 44.4626 20.9115 44.0947 20.5436C43.7267 20.1756 43.5553 19.6816 43.5805 19.1977C44.0644 19.1725 44.5584 19.3439 44.9264 19.7119Z" fill="#715137"/>
<path d="M46.485 14.2275C46.8529 14.5955 47.0243 15.0894 46.9991 15.5733C46.5152 15.5985 46.0212 15.4272 45.6533 15.0592C45.2853 14.6912 45.1139 14.1973 45.1391 13.7134C45.623 13.6882 46.117 13.8595 46.485 14.2275Z" fill="#715137"/>
<path d="M46.7916 19.7119C47.1596 20.0798 47.3309 20.5738 47.3057 21.0577C46.8219 21.0829 46.3279 20.9115 45.9599 20.5436C45.592 20.1756 45.4206 19.6816 45.4458 19.1977C45.9297 19.1725 46.4237 19.3439 46.7916 19.7119Z" fill="#715137"/>
<path d="M57.9147 17.2119C58.2826 17.5798 58.454 18.0738 58.4288 18.5577C57.9449 18.5829 57.4509 18.4115 57.083 18.0436C56.715 17.6756 56.5436 17.1816 56.5688 16.6977C57.0527 16.6725 57.5467 16.8439 57.9147 17.2119Z" fill="#715137"/>
<path d="M56.0006 17.2119C56.3686 17.5798 56.5399 18.0738 56.5147 18.5577C56.0308 18.5829 55.5369 18.4115 55.1689 18.0436C54.8009 17.6756 54.6296 17.1816 54.6548 16.6977C55.1387 16.6725 55.6326 16.8439 56.0006 17.2119Z" fill="#715137"/>
<path d="M56.0201 15.3134C56.3881 15.6814 56.5595 16.1754 56.5343 16.6593C56.0504 16.6845 55.5564 16.5131 55.1884 16.1451C54.8205 15.7772 54.6491 15.2832 54.6743 14.7993C55.1582 14.7741 55.6522 14.9455 56.0201 15.3134Z" fill="#715137"/>
<path d="M48.872 19.7119C48.5041 20.0798 48.3327 20.5738 48.3579 21.0577C48.8418 21.0829 49.3358 20.9115 49.7037 20.5436C50.0717 20.1756 50.2431 19.6816 50.2179 19.1977C49.734 19.1725 49.24 19.3439 48.872 19.7119Z" fill="#715137"/>
<path d="M47.7548 18.6025C47.3869 18.9705 47.2155 19.4644 47.2407 19.9483C47.7246 19.9735 48.2186 19.8022 48.5865 19.4342C48.9545 19.0662 49.1259 18.5723 49.1007 18.0884C48.6168 18.0632 48.1228 18.2345 47.7548 18.6025Z" fill="#715137"/>
<path d="M46.6416 17.4853C46.2736 17.8533 46.1022 18.3472 46.1274 18.8311C46.6113 18.8563 47.1053 18.685 47.4733 18.317C47.8412 17.949 48.0126 17.4551 47.9874 16.9712C47.5035 16.946 47.0095 17.1173 46.6416 17.4853Z" fill="#715137"/>
<path d="M45.5205 16.3681C45.1525 16.7361 44.9811 17.2301 45.0063 17.714C45.4902 17.7392 45.9842 17.5678 46.3522 17.1998C46.7201 16.8319 46.8915 16.3379 46.8663 15.854C46.3824 15.8288 45.8884 16.0002 45.5205 16.3681Z" fill="#715137"/>
<path d="M51.3369 17.2119C50.9689 17.5798 50.7975 18.0738 50.8227 18.5577C51.3066 18.5829 51.8006 18.4115 52.1686 18.0436C52.5365 17.6756 52.7079 17.1816 52.6827 16.6977C52.1988 16.6725 51.7048 16.8439 51.3369 17.2119Z" fill="#715137"/>
<path d="M50.1533 16.1728C49.7853 16.5408 49.6139 17.0347 49.6391 17.5186C50.123 17.5438 50.617 17.3725 50.985 17.0045C51.3529 16.6365 51.5243 16.1426 51.4991 15.6587C51.0152 15.6335 50.5212 15.8049 50.1533 16.1728Z" fill="#715137"/>
<path d="M48.9638 15.1259C48.5959 15.4939 48.4245 15.9879 48.4497 16.4718C48.9336 16.497 49.4276 16.3256 49.7955 15.9576C50.1635 15.5897 50.3349 15.0957 50.3097 14.6118C49.8258 14.5866 49.3318 14.758 48.9638 15.1259Z" fill="#715137"/>
<path d="M47.7744 14.0869C47.4064 14.4548 47.235 14.9488 47.2602 15.4327C47.7441 15.4579 48.2381 15.2865 48.6061 14.9186C48.974 14.5506 49.1454 14.0566 49.1202 13.5727C48.6363 13.5475 48.1423 13.7189 47.7744 14.0869Z" fill="#715137"/>
<path d="M60.3212 14.7119C59.9533 15.0798 59.7819 15.5738 59.8071 16.0577C60.291 16.0829 60.785 15.9115 61.1529 15.5436C61.5209 15.1756 61.6923 14.6816 61.6671 14.1977C61.1832 14.1725 60.6892 14.3439 60.3212 14.7119Z" fill="#715137"/>
<path d="M59.413 13.6884C59.0451 14.0564 58.8737 14.5504 58.8989 15.0343C59.3828 15.0595 59.8768 14.8881 60.2447 14.5201C60.6127 14.1522 60.7841 13.6582 60.7589 13.1743C60.275 13.1491 59.781 13.3205 59.413 13.6884Z" fill="#715137"/>
<path d="M58.5009 12.665C58.133 13.033 57.9616 13.5269 57.9868 14.0108C58.4707 14.036 58.9647 13.8647 59.3326 13.4967C59.7006 13.1287 59.872 12.6348 59.8468 12.1509C59.3629 12.1257 58.8689 12.297 58.5009 12.665Z" fill="#715137"/>
<path d="M65.3759 5.28219C65.008 5.65015 64.8366 6.14412 64.8618 6.62802C65.3457 6.65322 65.8397 6.48184 66.2076 6.11388C66.5756 5.74592 66.747 5.25194 66.7218 4.76805C66.2379 4.74285 65.7439 4.91422 65.3759 5.28219Z" fill="#715137"/>
<path d="M65.3759 3.38375C65.008 3.75171 64.8366 4.24568 64.8618 4.72958C65.3457 4.75478 65.8397 4.5834 66.2076 4.21544C66.5756 3.84748 66.747 3.3535 66.7218 2.86961C66.2379 2.84441 65.7439 3.01579 65.3759 3.38375Z" fill="#715137"/>
<path d="M65.3759 1.48531C65.008 1.85327 64.8366 2.34725 64.8618 2.83114C65.3457 2.85634 65.8397 2.68496 66.2076 2.317C66.5756 1.94904 66.747 1.45507 66.7218 0.971173C66.2379 0.945971 65.7439 1.11735 65.3759 1.48531Z" fill="#715137"/>
<path d="M74.4736 8.53219C74.1056 8.90015 73.9343 9.39412 73.9595 9.87802C74.4433 9.90322 74.9373 9.73184 75.3053 9.36388C75.6732 8.99592 75.8446 8.50194 75.8194 8.01805C75.3355 7.99285 74.8416 8.16422 74.4736 8.53219Z" fill="#715137"/>
<path d="M72.5791 8.53219C72.2111 8.90015 72.0397 9.39412 72.0649 9.87802C72.5488 9.90322 73.0428 9.73184 73.4108 9.36388C73.7787 8.99592 73.9501 8.50194 73.9249 8.01805C73.441 7.99285 72.947 8.16422 72.5791 8.53219Z" fill="#715137"/>
<path d="M70.6787 8.53219C70.3107 8.90015 70.1393 9.39412 70.1645 9.87802C70.6484 9.90322 71.1424 9.73184 71.5104 9.36388C71.8783 8.99592 72.0497 8.50194 72.0245 8.01805C71.5406 7.99285 71.0466 8.16422 70.6787 8.53219Z" fill="#715137"/>
<path d="M67.6334 17.1416C68.0014 17.5095 68.1728 18.0035 68.1475 18.4874C67.6637 18.5126 67.1697 18.3412 66.8017 17.9733C66.4338 17.6053 66.2624 17.1113 66.2876 16.6274C66.7715 16.6022 67.2654 16.7736 67.6334 17.1416Z" fill="#715137"/>
<path d="M82.1162 14.1806C81.7482 14.5486 81.5768 15.0426 81.602 15.5265C82.0859 15.5517 82.5799 15.3803 82.9479 15.0123C83.3158 14.6444 83.4872 14.1504 83.462 13.6665C82.9781 13.6413 82.4841 13.8127 82.1162 14.1806Z" fill="#715137"/>
<path d="M83.5576 19.3994C83.1896 19.7673 83.0182 20.2613 83.0434 20.7452C83.5273 20.7704 84.0213 20.599 84.3893 20.2311C84.7572 19.8631 84.9286 19.3691 84.9034 18.8852C84.4195 18.86 83.9255 19.0314 83.5576 19.3994Z" fill="#715137"/>
<path d="M74.2275 17.1416C73.8595 17.5095 73.6882 18.0035 73.7134 18.4874C74.1973 18.5126 74.6912 18.3412 75.0592 17.9733C75.4272 17.6053 75.5985 17.1113 75.5733 16.6274C75.0894 16.6022 74.5955 16.7736 74.2275 17.1416Z" fill="#715137"/>
<path d="M72.4619 17.1416C72.0939 17.5095 71.9225 18.0035 71.9477 18.4874C72.4316 18.5126 72.9256 18.3412 73.2936 17.9733C73.6615 17.6053 73.8329 17.1113 73.8077 16.6274C73.3238 16.6022 72.8298 16.7736 72.4619 17.1416Z" fill="#715137"/>
<path d="M70.7001 17.1416C70.3322 17.5095 70.1608 18.0035 70.186 18.4874C70.6699 18.5126 71.1639 18.3412 71.5318 17.9733C71.8998 17.6053 72.0712 17.1113 72.046 16.6274C71.5621 16.6022 71.0681 16.7736 70.7001 17.1416Z" fill="#715137"/>
<path d="M68.9345 17.1416C68.5666 17.5095 68.3952 18.0035 68.4204 18.4874C68.9043 18.5126 69.3983 18.3412 69.7662 17.9733C70.1342 17.6053 70.3056 17.1113 70.2804 16.6274C69.7965 16.6022 69.3025 16.7736 68.9345 17.1416Z" fill="#715137"/>
<path d="M78.4713 21.6103C78.8393 21.9783 79.0106 22.4722 78.9854 22.9561C78.5015 22.9813 78.0076 22.81 77.6396 22.442C77.2716 22.074 77.1003 21.5801 77.1255 21.0962C77.6094 21.071 78.1033 21.2423 78.4713 21.6103Z" fill="#715137"/>
<path d="M80.442 21.6103C80.81 21.9783 80.9813 22.4722 80.9561 22.9561C80.4722 22.9813 79.9783 22.81 79.6103 22.442C79.2424 22.074 79.071 21.5801 79.0962 21.0962C79.5801 21.071 80.074 21.2423 80.442 21.6103Z" fill="#715137"/>
<path d="M82.4186 21.6103C82.7865 21.9783 82.9579 22.4722 82.9327 22.9561C82.4488 22.9813 81.9548 22.81 81.5869 22.442C81.2189 22.074 81.0475 21.5801 81.0727 21.0962C81.5566 21.071 82.0506 21.2423 82.4186 21.6103Z" fill="#715137"/>
<path d="M84.3893 21.6103C84.7572 21.9783 84.9286 22.4722 84.9034 22.9561C84.4195 22.9813 83.9255 22.81 83.5576 22.442C83.1896 22.074 83.0182 21.5801 83.0434 21.0962C83.5273 21.071 84.0213 21.2423 84.3893 21.6103Z" fill="#715137"/>
<path d="M74.2275 21.3404C73.8595 20.9725 73.6882 20.4785 73.7134 19.9946C74.1973 19.9694 74.6912 20.1408 75.0592 20.5087C75.4272 20.8767 75.5985 21.3707 75.5733 21.8546C75.0894 21.8798 74.5955 21.7084 74.2275 21.3404Z" fill="#715137"/>
<path d="M72.4677 21.3404C72.0998 20.9725 71.9284 20.4785 71.9536 19.9946C72.4375 19.9694 72.9315 20.1408 73.2994 20.5087C73.6674 20.8767 73.8388 21.3707 73.8136 21.8546C73.3297 21.8798 72.8357 21.7084 72.4677 21.3404Z" fill="#715137"/>
<path d="M70.708 21.3404C70.34 20.9725 70.1686 20.4785 70.1938 19.9946C70.6777 19.9694 71.1717 20.1408 71.5397 20.5087C71.9076 20.8767 72.079 21.3707 72.0538 21.8546C71.5699 21.8798 71.0759 21.7084 70.708 21.3404Z" fill="#715137"/>
<path d="M57.9869 21.3717C58.3549 21.0037 58.5263 20.5098 58.5011 20.0259C58.0172 20.0007 57.5232 20.172 57.1552 20.54C56.7873 20.908 56.6159 21.4019 56.6411 21.8858C57.125 21.911 57.619 21.7397 57.9869 21.3717Z" fill="#715137"/>
<path d="M58.9889 22.5748C59.3568 22.2069 59.5282 21.7129 59.503 21.229C59.0191 21.2038 58.5251 21.3752 58.1572 21.7431C57.7892 22.1111 57.6178 22.6051 57.643 23.089C58.1269 23.1142 58.6209 22.9428 58.9889 22.5748Z" fill="#715137"/>
<path d="M59.9889 23.7701C60.3568 23.4022 60.5282 22.9082 60.503 22.4243C60.0191 22.3991 59.5251 22.5705 59.1572 22.9384C58.7892 23.3064 58.6178 23.8004 58.643 24.2843C59.1269 24.3095 59.6209 24.1381 59.9889 23.7701Z" fill="#715137"/>
<path d="M60.985 24.9576C61.3529 24.5897 61.5243 24.0957 61.4991 23.6118C61.0152 23.5866 60.5212 23.758 60.1533 24.1259C59.7853 24.4939 59.6139 24.9879 59.6391 25.4718C60.123 25.497 60.617 25.3256 60.985 24.9576Z" fill="#715137"/>
<path d="M61.9889 26.1529C62.3568 25.785 62.5282 25.291 62.503 24.8071C62.0191 24.7819 61.5251 24.9533 61.1572 25.3212C60.7892 25.6892 60.6178 26.1832 60.643 26.6671C61.1269 26.6923 61.6209 26.5209 61.9889 26.1529Z" fill="#715137"/>
<path d="M77.1705 17.1416C77.5385 17.5095 77.7099 18.0035 77.6847 18.4874C77.2008 18.5126 76.7068 18.3412 76.3388 17.9733C75.9709 17.6053 75.7995 17.1113 75.8247 16.6274C76.3086 16.6022 76.8026 16.7736 77.1705 17.1416Z" fill="#715137"/>
<path d="M78.3014 16.1572C78.6693 16.5251 78.8407 17.0191 78.8155 17.503C78.3316 17.5282 77.8376 17.3568 77.4697 16.9889C77.1017 16.6209 76.9303 16.1269 76.9555 15.643C77.4394 15.6178 77.9334 15.7892 78.3014 16.1572Z" fill="#715137"/>
<path d="M79.4303 15.165C79.7982 15.533 79.9696 16.0269 79.9444 16.5108C79.4605 16.536 78.9665 16.3647 78.5986 15.9967C78.2306 15.6287 78.0593 15.1348 78.0845 14.6509C78.5683 14.6257 79.0623 14.797 79.4303 15.165Z" fill="#715137"/>
<path d="M80.5592 14.1806C80.9272 14.5486 81.0985 15.0426 81.0733 15.5265C80.5894 15.5517 80.0955 15.3803 79.7275 15.0123C79.3595 14.6444 79.1882 14.1504 79.2134 13.6665C79.6973 13.6413 80.1912 13.8127 80.5592 14.1806Z" fill="#715137"/>
<path d="M80.1041 19.7509C80.4721 20.1189 80.6435 20.6129 80.6183 21.0968C80.1344 21.122 79.6404 20.9506 79.2724 20.5826C78.9045 20.2147 78.7331 19.7207 78.7583 19.2368C79.2422 19.2116 79.7362 19.383 80.1041 19.7509Z" fill="#715137"/>
<path d="M81.0865 18.665C81.4545 19.033 81.6259 19.5269 81.6007 20.0108C81.1168 20.036 80.6228 19.8647 80.2548 19.4967C79.8869 19.1287 79.7155 18.6348 79.7407 18.1509C80.2246 18.1257 80.7186 18.297 81.0865 18.665Z" fill="#715137"/>
<path d="M82.0709 17.5791C82.4389 17.947 82.6103 18.441 82.585 18.9249C82.1012 18.9501 81.6072 18.7787 81.2392 18.4108C80.8713 18.0428 80.6999 17.5488 80.7251 17.0649C81.209 17.0397 81.703 17.2111 82.0709 17.5791Z" fill="#715137"/>
<path d="M83.0533 16.4853C83.4213 16.8533 83.5927 17.3472 83.5675 17.8311C83.0836 17.8563 82.5896 17.685 82.2216 17.317C81.8537 16.949 81.6823 16.4551 81.7075 15.9712C82.1914 15.946 82.6854 16.1173 83.0533 16.4853Z" fill="#715137"/>
<path d="M74.4736 12.0123C74.1056 11.6444 73.9343 11.1504 73.9595 10.6665C74.4433 10.6413 74.9373 10.8127 75.3053 11.1806C75.6732 11.5486 75.8446 12.0426 75.8194 12.5265C75.3355 12.5517 74.8416 12.3803 74.4736 12.0123Z" fill="#715137"/>
<path d="M72.5791 12.0123C72.2111 11.6444 72.0397 11.1504 72.0649 10.6665C72.5488 10.6413 73.0428 10.8127 73.4108 11.1806C73.7787 11.5486 73.9501 12.0426 73.9249 12.5265C73.441 12.5517 72.947 12.3803 72.5791 12.0123Z" fill="#715137"/>
<path d="M70.6787 12.0123C70.3107 11.6444 70.1393 11.1504 70.1645 10.6665C70.6484 10.6413 71.1424 10.8127 71.5104 11.1806C71.8783 11.5486 72.0497 12.0426 72.0245 12.5265C71.5406 12.5517 71.0466 12.3803 70.6787 12.0123Z" fill="#715137"/>
<path d="M81.7529 12.0123C81.3849 11.6444 81.2135 11.1504 81.2388 10.6665C81.7226 10.6413 82.2166 10.8127 82.5846 11.1806C82.9525 11.5486 83.1239 12.0426 83.0987 12.5265C82.6148 12.5517 82.1209 12.3803 81.7529 12.0123Z" fill="#715137"/>
<path d="M79.9834 12.0123C79.6154 11.6444 79.444 11.1504 79.4692 10.6665C79.9531 10.6413 80.4471 10.8127 80.815 11.1806C81.183 11.5486 81.3544 12.0426 81.3292 12.5265C80.8453 12.5517 80.3513 12.3803 79.9834 12.0123Z" fill="#715137"/>
<path d="M78.2197 12.0123C77.8517 11.6444 77.6803 11.1504 77.7055 10.6665C78.1894 10.6413 78.6834 10.8127 79.0514 11.1806C79.4193 11.5486 79.5907 12.0426 79.5655 12.5265C79.0816 12.5517 78.5876 12.3803 78.2197 12.0123Z" fill="#715137"/>
<path d="M69.8131 6.665C70.1811 7.03296 70.3524 7.52693 70.3272 8.01083C69.8433 8.03603 69.3494 7.86465 68.9814 7.49669C68.6134 7.12873 68.4421 6.63475 68.4673 6.15086C68.9512 6.12566 69.4451 6.29704 69.8131 6.665Z" fill="#715137"/>
<path d="M70.819 5.61031C71.1869 5.97827 71.3583 6.47225 71.3331 6.95614C70.8492 6.98134 70.3552 6.80996 69.9873 6.442C69.6193 6.07404 69.4479 5.58007 69.4731 5.09617C69.957 5.07097 70.451 5.24235 70.819 5.61031Z" fill="#715137"/>
<path d="M71.8287 4.55562C72.1967 4.92358 72.3681 5.41756 72.3429 5.90145C71.859 5.92666 71.365 5.75528 70.997 5.38732C70.6291 5.01935 70.4577 4.52538 70.4829 4.04149C70.9668 4.01628 71.4608 4.18766 71.8287 4.55562Z" fill="#715137"/>
<path d="M72.8365 3.50094C73.2045 3.8689 73.3759 4.36287 73.3507 4.84677C72.8668 4.87197 72.3728 4.70059 72.0048 4.33263C71.6369 3.96467 71.4655 3.47069 71.4907 2.9868C71.9746 2.9616 72.4686 3.13297 72.8365 3.50094Z" fill="#715137"/>
<path d="M73.8443 2.44625C74.2123 2.81421 74.3837 3.30818 74.3585 3.79208C73.8746 3.81728 73.3806 3.6459 73.0127 3.27794C72.6447 2.90998 72.4733 2.416 72.4985 1.93211C72.9824 1.90691 73.4764 2.07829 73.8443 2.44625Z" fill="#715137"/>
<path d="M63.1568 5.28219C63.5248 5.65015 63.6962 6.14412 63.671 6.62802C63.1871 6.65322 62.6931 6.48184 62.3252 6.11388C61.9572 5.74592 61.7858 5.25194 61.811 4.76805C62.2949 4.74285 62.7889 4.91422 63.1568 5.28219Z" fill="#715137"/>
<path d="M63.1568 3.38375C63.5248 3.75171 63.6962 4.24568 63.671 4.72958C63.1871 4.75478 62.6931 4.5834 62.3252 4.21544C61.9572 3.84748 61.7858 3.3535 61.811 2.86961C62.2949 2.84441 62.7889 3.01579 63.1568 3.38375Z" fill="#715137"/>
<path d="M63.1568 1.48531C63.5248 1.85327 63.6962 2.34725 63.671 2.83114C63.1871 2.85634 62.6931 2.68496 62.3252 2.317C61.9572 1.94904 61.7858 1.45507 61.811 0.971173C62.2949 0.945971 62.7889 1.11735 63.1568 1.48531Z" fill="#715137"/>
<path d="M49.2311 8.53219C49.599 8.90015 49.7704 9.39412 49.7452 9.87802C49.2613 9.90322 48.7673 9.73184 48.3994 9.36388C48.0314 8.99592 47.86 8.50194 47.8852 8.01805C48.3691 7.99285 48.8631 8.16422 49.2311 8.53219Z" fill="#715137"/>
<path d="M51.11 8.53219C51.4779 8.90015 51.6493 9.39412 51.6241 9.87802C51.1402 9.90322 50.6462 9.73184 50.2783 9.36388C49.9103 8.99592 49.7389 8.50194 49.7641 8.01805C50.248 7.99285 50.742 8.16422 51.11 8.53219Z" fill="#715137"/>
<path d="M52.9928 8.53219C53.3607 8.90015 53.5321 9.39412 53.5069 9.87802C53.023 9.90322 52.5291 9.73184 52.1611 9.36388C51.7931 8.99592 51.6218 8.50194 51.647 8.01805C52.1308 7.99285 52.6248 8.16422 52.9928 8.53219Z" fill="#715137"/>
<path d="M54.8717 8.53219C55.2397 8.90015 55.411 9.39412 55.3858 9.87802C54.9019 9.90322 54.408 9.73184 54.04 9.36388C53.672 8.99592 53.5007 8.50194 53.5259 8.01805C54.0098 7.99285 54.5037 8.16422 54.8717 8.53219Z" fill="#715137"/>
<path d="M56.7565 8.53219C57.1244 8.90015 57.2958 9.39412 57.2706 9.87802C56.7867 9.90322 56.2927 9.73184 55.9248 9.36388C55.5568 8.99592 55.3854 8.50194 55.4106 8.01805C55.8945 7.99285 56.3885 8.16422 56.7565 8.53219Z" fill="#715137"/>
<path d="M58.6373 8.53219C59.0053 8.90015 59.1767 9.39412 59.1515 9.87802C58.6676 9.90322 58.1736 9.73184 57.8056 9.36388C57.4377 8.99592 57.2663 8.50194 57.2915 8.01805C57.7754 7.99285 58.2694 8.16422 58.6373 8.53219Z" fill="#715137"/>
<path d="M61.8173 18.6728C61.4494 19.0408 61.278 19.5347 61.3032 20.0186C61.7871 20.0438 62.2811 19.8725 62.649 19.5045C63.017 19.1365 63.1884 18.6426 63.1632 18.1587C62.6793 18.1335 62.1853 18.3048 61.8173 18.6728Z" fill="#715137"/>
<path d="M60.6984 17.7275C60.3305 18.0955 60.1591 18.5894 60.1843 19.0733C60.6682 19.0985 61.1622 18.9272 61.5301 18.5592C61.8981 18.1912 62.0695 17.6973 62.0443 17.2134C61.5604 17.1882 61.0664 17.3595 60.6984 17.7275Z" fill="#715137"/>
<path d="M59.5791 16.7822C59.2111 17.1501 59.0397 17.6441 59.0649 18.128C59.5488 18.1532 60.0428 17.9818 60.4108 17.6139C60.7787 17.2459 60.9501 16.7519 60.9249 16.268C60.441 16.2428 59.947 16.4142 59.5791 16.7822Z" fill="#715137"/>
</g>
<defs>
<clipPath id="clip0_5468_27484">
<rect width="127.985" height="64" fill="white"/>
</clipPath>
</defs>
</svg>
