<svg width="717" height="573" viewBox="0 0 717 573" fill="none" xmlns="http://www.w3.org/2000/svg">
<path d="M393.295 564.004C386.935 557.208 383.276 548.408 382.84 539.086L361.844 48.7554H356.79L335.794 539.086C335.358 548.321 331.699 557.208 325.339 564.004L321.68 567.924V572.106H396.867V567.924L393.208 564.004H393.295Z" fill="#F4EDE5"/>
<path d="M346.686 409.131C372.3 387.698 397.392 365.569 422.222 343.352C425.097 340.739 428.582 337.515 431.718 335.337C442.522 327.67 455.59 323.575 468.659 323.75L479.985 324.098C494.883 324.621 531.214 325.318 546.547 325.666C553.43 325.666 572.51 326.712 578.957 326.015C588.802 324.882 598.299 320.787 605.704 314.079L621.909 299.007C629.924 291.427 646.391 276.354 654.58 268.862L657.978 272.26C650.485 280.449 635.5 296.828 627.833 304.931L612.674 321.223C601.609 333.072 584.707 339.519 568.764 338.996C541.058 339.78 502.027 340.303 474.409 341.261C473.712 341.261 470.924 341.349 470.227 341.436C460.731 341.871 451.408 345.618 444.351 351.89C442.086 353.633 439.56 356.857 437.556 358.947C415.339 383.778 393.21 408.869 371.777 434.483L346.512 409.218L346.686 409.131Z" fill="#F4EDE5"/>
<path d="M346.692 434.396C325.259 408.782 303.13 383.691 280.913 358.86C271.068 346.924 259.742 341.174 244.147 341.261C226.287 340.564 190.305 339.955 172.009 339.519L149.793 338.996C142.213 338.996 133.239 337.951 126.008 334.814C118.428 331.765 111.458 327.06 105.882 321.223L90.7228 304.931L75.5634 288.639L60.5781 272.26L63.9759 268.862C72.2527 276.354 88.5448 291.427 96.6472 299.007L112.852 314.079C117.818 318.522 123.743 321.92 130.016 323.924C136.724 326.102 142.561 326.538 149.88 326.189L172.096 325.666C193.354 325.231 229.162 324.534 249.985 323.75C267.409 323.401 284.224 331.068 296.508 343.352C321.339 365.569 346.43 387.698 372.045 409.131L346.779 434.396H346.692Z" fill="#F4EDE5"/>
<path d="M350.956 275.117C335.274 256.995 319.417 239.048 303.3 221.362L279.166 194.789C271.935 185.99 263.136 181.72 251.374 182.156C203.543 180.849 155.8 179.717 107.969 178.758V176.406C131.841 176.057 155.799 175.36 179.671 174.838C203.543 174.228 227.502 173.792 251.374 173.008C261.393 172.224 271.761 174.315 280.038 180.239C285.526 184.247 308.44 205.941 314.016 210.733C331.702 226.85 349.649 242.707 367.771 258.389L350.956 275.204V275.117Z" fill="#F4EDE5"/>
<path d="M350.953 258.38C377.177 235.815 405.579 210.027 431.281 186.59C435.986 181.886 441.562 177.704 447.834 175.438C454.02 172.999 460.816 172.563 467.35 172.999C491.222 173.783 515.181 174.219 539.053 174.829C562.925 175.351 586.883 176.048 610.755 176.397V178.749C562.924 179.708 515.181 180.84 467.35 182.147C455.588 181.711 446.789 185.98 439.558 194.78L415.424 221.353C399.307 239.039 383.45 256.986 367.768 275.108L350.953 258.293V258.38Z" fill="#F4EDE5"/>
<path d="M354.258 149.715C373.948 131.507 423.87 85.3311 442.95 67.8193C447.393 63.6374 449.919 57.6259 449.745 51.1787L450.355 31.0532H452.272L452.969 51.1787C453.579 58.2357 451.313 65.9026 446.347 71.13L418.991 100.752L364.364 159.909L354.258 149.802V149.715Z" fill="#F4EDE5"/>
<path d="M354.263 159.88L260.344 58.4679L262.957 55.7671L364.369 149.773L354.263 159.88Z" fill="#F4EDE5"/>
<path d="M217.651 391.204C211.291 397.564 208.329 406.102 208.765 414.466C217.128 414.902 225.666 411.94 232.026 405.58C238.386 399.22 241.349 390.682 240.913 382.318C232.549 381.882 224.011 384.844 217.651 391.204Z" fill="#F4EDE5"/>
<path d="M413.159 437.671C419.519 444.031 422.482 452.569 422.046 460.933C413.682 461.368 405.144 458.406 398.784 452.046C392.424 445.686 389.462 437.148 389.897 428.784C398.261 428.348 406.799 431.311 413.159 437.671Z" fill="#F4EDE5"/>
<path d="M465.249 391.204C471.609 397.564 474.571 406.102 474.136 414.466C465.772 414.902 457.234 411.94 450.874 405.58C444.514 399.22 441.552 390.682 441.987 382.318C450.351 381.882 458.889 384.844 465.249 391.204Z" fill="#F4EDE5"/>
<path d="M495.398 391.204C501.758 397.564 504.72 406.102 504.284 414.466C495.92 414.902 487.382 411.94 481.022 405.58C474.662 399.22 471.7 390.682 472.136 382.318C480.499 381.882 489.038 384.844 495.398 391.204Z" fill="#F4EDE5"/>
<path d="M203.624 355.029C197.264 361.389 194.302 369.927 194.737 378.291C203.101 378.726 211.639 375.764 217.999 369.404C224.359 363.044 227.321 354.506 226.886 346.142C218.522 345.706 209.984 348.669 203.624 355.029Z" fill="#F4EDE5"/>
<path d="M170.862 355.029C164.502 361.389 161.54 369.927 161.975 378.291C170.339 378.726 178.877 375.764 185.237 369.404C191.597 363.044 194.56 354.506 194.124 346.142C185.76 345.706 177.222 348.669 170.862 355.029Z" fill="#F4EDE5"/>
<path d="M38.1745 203.377C31.8145 209.737 28.8524 218.275 29.288 226.639C37.6518 227.074 46.1899 224.112 52.5499 217.752C58.9099 211.392 61.8721 202.854 61.4365 194.49C53.0726 194.055 44.5346 197.017 38.1745 203.377Z" fill="#F4EDE5"/>
<path d="M67.5457 203.377C61.1857 209.737 58.2235 218.275 58.6591 226.639C67.0229 227.074 75.5611 224.112 81.9211 217.752C88.2811 211.392 91.2433 202.854 90.8076 194.49C82.4438 194.055 73.9057 197.017 67.5457 203.377Z" fill="#F4EDE5"/>
<path d="M96.9831 203.377C90.6231 209.737 87.661 218.275 88.0966 226.639C96.4604 227.074 104.999 224.112 111.359 217.752C117.719 211.392 120.681 202.854 120.245 194.49C111.881 194.055 103.343 197.017 96.9831 203.377Z" fill="#F4EDE5"/>
<path d="M181.753 203.377C175.393 209.737 172.43 218.275 172.866 226.639C181.23 227.074 189.768 224.112 196.128 217.752C202.488 211.392 205.45 202.854 205.015 194.49C196.651 194.055 188.113 197.017 181.753 203.377Z" fill="#F4EDE5"/>
<path d="M272.362 110.344C266.002 116.705 263.04 125.243 263.475 133.606C271.839 134.042 280.377 131.08 286.737 124.72C293.097 118.36 296.06 109.822 295.624 101.458C287.26 101.022 278.722 103.984 272.362 110.344Z" fill="#F4EDE5"/>
<path d="M238.296 75.8943C231.936 82.2543 228.973 90.7924 229.409 99.1563C237.773 99.5919 246.311 96.6297 252.671 90.2697C259.031 83.9097 261.993 75.3716 261.558 67.0077C253.194 66.5721 244.656 69.5343 238.296 75.8943Z" fill="#F4EDE5"/>
<path d="M466.471 33.2332C460.111 39.5932 457.149 48.1313 457.585 56.4951C465.949 56.9307 474.487 53.9685 480.847 47.6085C487.207 41.2485 490.169 32.7104 489.733 24.3466C481.37 23.911 472.831 26.8732 466.471 33.2332Z" fill="#F4EDE5"/>
<path d="M436.152 33.2332C442.512 39.5932 445.474 48.1313 445.038 56.4951C436.674 56.9307 428.136 53.9685 421.776 47.6085C415.416 41.2485 412.454 32.7104 412.89 24.3466C421.253 23.911 429.792 26.8732 436.152 33.2332Z" fill="#F4EDE5"/>
<path d="M281.608 35.6677C275.248 42.0278 272.286 50.5658 272.722 58.9297C281.085 59.3653 289.624 56.4031 295.984 50.0431C302.344 43.6831 305.306 35.145 304.87 26.7811C296.506 26.3455 287.968 29.3077 281.608 35.6677Z" fill="#F4EDE5"/>
<path d="M210.159 63.4876C203.799 69.8476 200.837 78.3857 201.272 86.7495C209.636 87.1851 218.174 84.2229 224.534 77.8629C230.894 71.5029 233.857 62.9648 233.421 54.601C225.057 54.1654 216.519 57.1275 210.159 63.4876Z" fill="#F4EDE5"/>
<path d="M270.538 15.8132C264.178 22.1733 261.216 30.7114 261.651 39.0752C270.015 39.5108 278.553 36.5486 284.913 30.1886C291.273 23.8286 294.235 15.2905 293.8 6.92665C285.436 6.49103 276.898 9.45323 270.538 15.8132Z" fill="#F4EDE5"/>
<path d="M349.215 22.7392C349.215 31.8001 353.135 39.9025 359.408 45.4784C365.681 39.9025 369.602 31.8001 369.602 22.7392C369.602 13.6784 365.681 5.5759 359.408 0C353.135 5.5759 349.215 13.6784 349.215 22.7392Z" fill="#F4EDE5"/>
<path d="M137.581 76.4392C131.221 82.7992 128.259 91.3373 128.694 99.7012C137.058 100.137 145.596 97.1746 151.956 90.8146C158.316 84.4546 161.278 75.9165 160.843 67.5526C152.479 67.117 143.941 70.0792 137.581 76.4392Z" fill="#F4EDE5"/>
<path d="M173.835 82.116C167.475 88.476 164.513 97.0141 164.948 105.378C173.312 105.814 181.85 102.851 188.21 96.4913C194.57 90.1313 197.532 81.5932 197.097 73.2294C188.733 72.7938 180.195 75.756 173.835 82.116Z" fill="#F4EDE5"/>
<path d="M172.264 53.2151C165.904 59.5751 162.942 68.1132 163.378 76.4771C171.742 76.9127 180.28 73.9505 186.64 67.5905C193 61.2305 195.962 52.6924 195.526 44.3285C187.162 43.8929 178.624 46.8551 172.264 53.2151Z" fill="#F4EDE5"/>
<path d="M213.909 203.377C207.549 209.737 204.587 218.275 205.022 226.639C213.386 227.074 221.924 224.112 228.284 217.752C234.644 211.392 237.607 202.854 237.171 194.49C228.807 194.055 220.269 197.017 213.909 203.377Z" fill="#F4EDE5"/>
<path d="M162.773 112.779C169.133 119.139 172.095 127.677 171.659 136.041C163.295 136.476 154.757 133.514 148.397 127.154C142.037 120.794 139.075 112.256 139.511 103.892C147.874 103.456 156.413 106.419 162.773 112.779Z" fill="#F4EDE5"/>
<path d="M130.534 112.779C136.894 119.139 139.857 127.677 139.421 136.041C131.057 136.476 122.519 133.514 116.159 127.154C109.799 120.794 106.837 112.256 107.272 103.892C115.636 103.456 124.174 106.419 130.534 112.779Z" fill="#F4EDE5"/>
<path d="M252.234 33.2332C258.594 39.5932 261.556 48.1313 261.12 56.4951C252.756 56.9307 244.218 53.9685 237.858 47.6085C231.498 41.2485 228.536 32.7104 228.972 24.3466C237.335 23.911 245.874 26.8732 252.234 33.2332Z" fill="#F4EDE5"/>
<path d="M383.022 198.781C376.662 205.141 373.7 213.679 374.136 222.043C382.499 222.479 391.038 219.516 397.398 213.156C403.758 206.796 406.72 198.258 406.284 189.894C397.92 189.459 389.382 192.421 383.022 198.781Z" fill="#F4EDE5"/>
<path d="M288.479 147.483C282.119 153.843 279.157 162.381 279.593 170.745C287.957 171.18 296.495 168.218 302.855 161.858C309.215 155.498 312.177 146.96 311.741 138.596C303.377 138.16 294.839 141.123 288.479 147.483Z" fill="#F4EDE5"/>
<path d="M337.191 147.483C343.551 153.843 346.513 162.381 346.077 170.745C337.713 171.18 329.175 168.218 322.815 161.858C316.455 155.498 313.493 146.96 313.929 138.596C322.292 138.16 330.831 141.123 337.191 147.483Z" fill="#F4EDE5"/>
<path d="M447.667 147.483C454.027 153.843 456.989 162.381 456.554 170.745C448.19 171.18 439.652 168.218 433.292 161.858C426.932 155.498 423.97 146.96 424.405 138.596C432.769 138.16 441.307 141.123 447.667 147.483Z" fill="#F4EDE5"/>
<path d="M596.468 147.483C602.828 153.843 605.79 162.381 605.355 170.745C596.991 171.18 588.453 168.218 582.093 161.858C575.733 155.498 572.77 146.96 573.206 138.596C581.57 138.16 590.108 141.123 596.468 147.483Z" fill="#F4EDE5"/>
<path d="M596.468 118.301C602.828 124.661 605.79 133.199 605.355 141.563C596.991 141.998 588.453 139.036 582.093 132.676C575.733 126.316 572.77 117.778 573.206 109.414C581.57 108.978 590.108 111.941 596.468 118.301Z" fill="#F4EDE5"/>
<path d="M596.468 89.409C602.828 95.769 605.79 104.307 605.355 112.671C596.991 113.107 588.453 110.144 582.093 103.784C575.733 97.4243 572.77 88.8862 573.206 80.5224C581.57 80.0867 590.108 83.0489 596.468 89.409Z" fill="#F4EDE5"/>
<path d="M619.296 147.483C612.936 153.843 609.973 162.381 610.409 170.745C618.773 171.18 627.311 168.218 633.671 161.858C640.031 155.498 642.993 146.96 642.558 138.596C634.194 138.16 625.656 141.123 619.296 147.483Z" fill="#F4EDE5"/>
<path d="M337.191 179.617C343.551 185.977 346.513 194.515 346.077 202.879C337.713 203.315 329.175 200.352 322.815 193.992C316.455 187.632 313.493 179.094 313.929 170.73C322.292 170.295 330.831 173.257 337.191 179.617Z" fill="#F4EDE5"/>
<path d="M111.616 373.53C105.256 379.89 102.294 388.428 102.729 396.792C111.093 397.227 119.631 394.265 125.991 387.905C132.351 381.545 135.314 373.007 134.878 364.643C126.514 364.207 117.976 367.17 111.616 373.53Z" fill="#F4EDE5"/>
<path d="M89.9249 373.53C96.2849 379.89 99.2471 388.428 98.8115 396.792C90.4476 397.227 81.9096 394.265 75.5495 387.905C69.1895 381.545 66.2274 373.007 66.663 364.643C75.0268 364.207 83.5649 367.17 89.9249 373.53Z" fill="#F4EDE5"/>
<path d="M56.9054 373.53C63.2654 379.89 66.2276 388.428 65.792 396.792C57.4281 397.227 48.89 394.265 42.53 387.905C36.17 381.545 33.2078 373.007 33.6434 364.643C42.0073 364.207 50.5454 367.17 56.9054 373.53Z" fill="#F4EDE5"/>
<path d="M24.1593 373.53C30.5193 379.89 33.4815 388.428 33.0459 396.792C24.6821 397.227 16.1439 394.265 9.78392 387.905C3.42391 381.545 0.461738 373.007 0.897355 364.643C9.26121 364.207 17.7993 367.17 24.1593 373.53Z" fill="#F4EDE5"/>
<path d="M25.0226 340.705C31.3826 347.065 34.3448 355.603 33.9092 363.967C25.5454 364.403 17.0073 361.441 10.6473 355.081C4.28725 348.721 1.32502 340.183 1.76064 331.819C10.1245 331.383 18.6626 334.345 25.0226 340.705Z" fill="#F4EDE5"/>
<path d="M51.9406 245.92C58.3006 252.28 61.2627 260.818 60.8271 269.182C52.4633 269.617 43.9252 266.655 37.5652 260.295C31.2052 253.935 28.243 245.397 28.6786 237.033C37.0425 236.597 45.5805 239.56 51.9406 245.92Z" fill="#F4EDE5"/>
<path d="M57.2609 340.705C63.6209 347.065 66.583 355.603 66.1474 363.967C57.7836 364.403 49.2455 361.441 42.8855 355.081C36.5255 348.721 33.5633 340.183 33.9989 331.819C42.3628 331.383 50.9009 334.345 57.2609 340.705Z" fill="#F4EDE5"/>
<path d="M249.53 297.5C255.89 303.86 258.853 312.398 258.417 320.762C250.053 321.197 241.515 318.235 235.155 311.875C228.795 305.515 225.833 296.977 226.268 288.613C234.632 288.178 243.17 291.14 249.53 297.5Z" fill="#F4EDE5"/>
<path d="M216.437 297.5C222.797 303.86 225.759 312.398 225.323 320.762C216.959 321.197 208.421 318.235 202.061 311.875C195.701 305.515 192.739 296.977 193.175 288.613C201.539 288.178 210.077 291.14 216.437 297.5Z" fill="#F4EDE5"/>
<path d="M216.784 264.693C223.144 271.053 226.107 279.591 225.671 287.955C217.307 288.391 208.769 285.428 202.409 279.068C196.049 272.708 193.087 264.17 193.522 255.807C201.886 255.371 210.424 258.333 216.784 264.693Z" fill="#F4EDE5"/>
<path d="M93.2331 340.705C86.8731 347.065 83.911 355.603 84.3466 363.967C92.7104 364.403 101.249 361.441 107.609 355.081C113.969 348.721 116.931 340.183 116.495 331.819C108.131 331.383 99.5932 334.345 93.2331 340.705Z" fill="#F4EDE5"/>
<path d="M73.8894 321.541C67.5294 327.901 64.5672 336.439 65.0028 344.803C73.3667 345.239 81.9048 342.277 88.2648 335.917C94.6248 329.557 97.587 321.019 97.1514 312.655C88.7875 312.219 80.2494 315.181 73.8894 321.541Z" fill="#F4EDE5"/>
<path d="M54.6511 302.222C48.2911 308.582 45.3289 317.121 45.7645 325.484C54.1284 325.92 62.6665 322.958 69.0265 316.598C75.3865 310.238 78.3487 301.7 77.9131 293.336C69.5492 292.9 61.0111 295.862 54.6511 302.222Z" fill="#F4EDE5"/>
<path d="M35.3034 282.904C28.9434 289.264 25.9813 297.802 26.4169 306.166C34.7807 306.602 43.3188 303.639 49.6788 297.279C56.0388 290.919 59.0011 282.381 58.5655 274.017C50.2016 273.582 41.6635 276.544 35.3034 282.904Z" fill="#F4EDE5"/>
<path d="M135.843 297.5C129.482 303.86 126.52 312.398 126.956 320.762C135.32 321.197 143.858 318.235 150.218 311.875C156.578 305.515 159.54 296.977 159.104 288.613C150.741 288.178 142.203 291.14 135.843 297.5Z" fill="#F4EDE5"/>
<path d="M115.366 279.543C109.006 285.903 106.044 294.441 106.479 302.805C114.843 303.241 123.381 300.279 129.741 293.919C136.101 287.559 139.064 279.02 138.628 270.657C130.264 270.221 121.726 273.183 115.366 279.543Z" fill="#F4EDE5"/>
<path d="M94.8035 261.451C88.4434 267.811 85.4813 276.349 85.9169 284.713C94.2807 285.149 102.819 282.186 109.179 275.826C115.539 269.466 118.501 260.928 118.065 252.564C109.702 252.129 101.163 255.091 94.8035 261.451Z" fill="#F4EDE5"/>
<path d="M74.2488 243.476C67.8887 249.836 64.9266 258.374 65.3622 266.738C73.7261 267.174 82.2641 264.212 88.6241 257.852C94.9842 251.492 97.9463 242.954 97.5107 234.59C89.1469 234.154 80.6088 237.116 74.2488 243.476Z" fill="#F4EDE5"/>
<path d="M291.093 254.285C284.732 260.645 281.77 269.183 282.206 277.547C290.57 277.983 299.108 275.02 305.468 268.66C311.828 262.3 314.79 253.762 314.354 245.398C305.991 244.963 297.453 247.925 291.093 254.285Z" fill="#F4EDE5"/>
<path d="M275.413 236.592C269.053 242.952 266.091 251.49 266.526 259.854C274.89 260.29 283.428 257.327 289.788 250.967C296.148 244.607 299.11 236.069 298.675 227.705C290.311 227.27 281.773 230.232 275.413 236.592Z" fill="#F4EDE5"/>
<path d="M259.651 218.917C253.291 225.277 250.329 233.815 250.765 242.179C259.128 242.615 267.666 239.653 274.026 233.293C280.386 226.933 283.349 218.395 282.913 210.031C274.549 209.595 266.011 212.557 259.651 218.917Z" fill="#F4EDE5"/>
<path d="M378.475 91.3074C372.115 97.6674 369.153 106.205 369.589 114.569C377.953 115.005 386.491 112.043 392.851 105.683C399.211 99.3227 402.173 90.7846 401.737 82.4208C393.373 81.9852 384.835 84.9474 378.475 91.3074Z" fill="#F4EDE5"/>
<path d="M378.475 58.4827C372.115 64.8427 369.153 73.3808 369.589 81.7446C377.953 82.1803 386.491 79.2181 392.851 72.858C399.211 66.498 402.173 57.9599 401.737 49.5961C393.373 49.1605 384.835 52.1227 378.475 58.4827Z" fill="#F4EDE5"/>
<path d="M378.475 25.6765C372.115 32.0365 369.153 40.5746 369.589 48.9385C377.953 49.3741 386.491 46.4119 392.851 40.0519C399.211 33.6919 402.173 25.1538 401.737 16.7899C393.373 16.3543 384.835 19.3165 378.475 25.6765Z" fill="#F4EDE5"/>
<path d="M535.745 147.483C529.385 153.843 526.423 162.381 526.858 170.745C535.222 171.18 543.76 168.218 550.12 161.858C556.48 155.498 559.442 146.96 559.007 138.596C550.643 138.16 542.105 141.123 535.745 147.483Z" fill="#F4EDE5"/>
<path d="M502.983 147.483C496.623 153.843 493.661 162.381 494.097 170.745C502.46 171.18 510.999 168.218 517.359 161.858C523.719 155.498 526.681 146.96 526.245 138.596C517.881 138.16 509.343 141.123 502.983 147.483Z" fill="#F4EDE5"/>
<path d="M470.136 147.483C463.776 153.843 460.813 162.381 461.249 170.745C469.613 171.18 478.151 168.218 484.511 161.858C490.871 155.498 493.833 146.96 493.397 138.596C485.034 138.16 476.496 141.123 470.136 147.483Z" fill="#F4EDE5"/>
<path d="M417.515 296.282C423.875 302.642 426.837 311.181 426.401 319.544C418.038 319.98 409.499 317.018 403.139 310.658C396.779 304.298 393.817 295.76 394.253 287.396C402.617 286.96 411.155 289.922 417.515 296.282Z" fill="#F4EDE5"/>
<path d="M667.827 245.093C661.467 251.453 658.505 259.991 658.94 268.355C667.304 268.791 675.842 265.828 682.202 259.468C688.562 253.108 691.525 244.57 691.089 236.206C682.725 235.771 674.187 238.733 667.827 245.093Z" fill="#F4EDE5"/>
<path d="M692.737 335.31C686.377 341.67 683.415 350.208 683.85 358.572C692.214 359.008 700.752 356.046 707.112 349.686C713.472 343.326 716.435 334.788 715.999 326.424C707.635 325.988 699.097 328.95 692.737 335.31Z" fill="#F4EDE5"/>
<path d="M531.475 296.282C525.115 302.642 522.153 311.181 522.589 319.544C530.953 319.98 539.491 317.018 545.851 310.658C552.211 304.298 555.173 295.76 554.737 287.396C546.373 286.96 537.835 289.922 531.475 296.282Z" fill="#F4EDE5"/>
<path d="M500.975 296.282C494.615 302.642 491.653 311.181 492.089 319.544C500.453 319.98 508.991 317.018 515.351 310.658C521.711 304.298 524.673 295.76 524.237 287.396C515.873 286.96 507.335 289.922 500.975 296.282Z" fill="#F4EDE5"/>
<path d="M470.491 296.282C464.131 302.642 461.169 311.181 461.604 319.544C469.968 319.98 478.506 317.018 484.866 310.658C491.226 304.298 494.188 295.76 493.753 287.396C485.389 286.96 476.851 289.922 470.491 296.282Z" fill="#F4EDE5"/>
<path d="M439.991 296.282C433.631 302.642 430.669 311.181 431.104 319.544C439.468 319.98 448.006 317.018 454.366 310.658C460.726 304.298 463.688 295.76 463.253 287.396C454.889 286.96 446.351 289.922 439.991 296.282Z" fill="#F4EDE5"/>
<path d="M604.827 373.53C611.187 379.89 614.15 388.428 613.714 396.792C605.35 397.227 596.812 394.265 590.452 387.905C584.092 381.545 581.13 373.007 581.565 364.643C589.929 364.207 598.467 367.17 604.827 373.53Z" fill="#F4EDE5"/>
<path d="M638.886 373.53C645.246 379.89 648.208 388.428 647.772 396.792C639.409 397.227 630.871 394.265 624.511 387.905C618.151 381.545 615.188 373.007 615.624 364.643C623.988 364.207 632.526 367.17 638.886 373.53Z" fill="#F4EDE5"/>
<path d="M673.05 373.53C679.41 379.89 682.372 388.428 681.937 396.792C673.573 397.227 665.035 394.265 658.675 387.905C652.315 381.545 649.352 373.007 649.788 364.643C658.152 364.207 666.69 367.17 673.05 373.53Z" fill="#F4EDE5"/>
<path d="M707.112 373.53C713.472 379.89 716.435 388.428 715.999 396.792C707.635 397.227 699.097 394.265 692.737 387.905C686.377 381.545 683.415 373.007 683.85 364.643C692.214 364.207 700.752 367.17 707.112 373.53Z" fill="#F4EDE5"/>
<path d="M531.475 368.868C525.115 362.508 522.153 353.97 522.589 345.606C530.953 345.17 539.491 348.132 545.851 354.492C552.211 360.852 555.173 369.391 554.737 377.754C546.373 378.19 537.835 375.228 531.475 368.868Z" fill="#F4EDE5"/>
<path d="M501.054 368.868C494.694 362.508 491.731 353.97 492.167 345.606C500.531 345.17 509.069 348.132 515.429 354.492C521.789 360.852 524.751 369.391 524.315 377.754C515.952 378.19 507.414 375.228 501.054 368.868Z" fill="#F4EDE5"/>
<path d="M470.659 368.868C464.299 362.508 461.337 353.97 461.772 345.606C470.136 345.17 478.674 348.132 485.034 354.492C491.394 360.852 494.357 369.391 493.921 377.754C485.557 378.19 477.019 375.228 470.659 368.868Z" fill="#F4EDE5"/>
<path d="M250.765 369.404C257.125 363.044 260.087 354.506 259.651 346.142C251.287 345.706 242.749 348.669 236.389 355.029C230.029 361.389 227.067 369.927 227.503 378.291C235.867 378.726 244.405 375.764 250.765 369.404Z" fill="#F4EDE5"/>
<path d="M268.101 390.194C274.461 383.834 277.423 375.296 276.987 366.932C268.623 366.496 260.085 369.459 253.725 375.819C247.365 382.179 244.403 390.717 244.839 399.081C253.203 399.516 261.741 396.554 268.101 390.194Z" fill="#F4EDE5"/>
<path d="M285.351 410.847C291.711 404.487 294.673 395.949 294.237 387.585C285.873 387.15 277.335 390.112 270.975 396.472C264.615 402.832 261.653 411.37 262.089 419.734C270.453 420.17 278.991 417.207 285.351 410.847Z" fill="#F4EDE5"/>
<path d="M302.601 431.392C308.961 425.032 311.923 416.494 311.487 408.13C303.123 407.695 294.585 410.657 288.225 417.017C281.865 423.377 278.903 431.915 279.339 440.279C287.703 440.714 296.241 437.752 302.601 431.392Z" fill="#F4EDE5"/>
<path d="M319.937 452.046C326.297 445.686 329.259 437.148 328.823 428.784C320.459 428.348 311.921 431.311 305.561 437.671C299.201 444.031 296.239 452.569 296.675 460.933C305.039 461.368 313.577 458.406 319.937 452.046Z" fill="#F4EDE5"/>
<path d="M582.343 296.282C588.703 302.642 591.665 311.181 591.23 319.544C582.866 319.98 574.328 317.018 567.968 310.658C561.608 304.298 558.645 295.76 559.081 287.396C567.445 286.96 575.983 289.922 582.343 296.282Z" fill="#F4EDE5"/>
<path d="M601.87 279.262C608.23 285.622 611.192 294.16 610.757 302.524C602.393 302.96 593.855 299.997 587.495 293.637C581.135 287.277 578.173 278.739 578.608 270.375C586.972 269.94 595.51 272.902 601.87 279.262Z" fill="#F4EDE5"/>
<path d="M621.386 262.123C627.746 268.483 630.708 277.021 630.272 285.385C621.909 285.82 613.37 282.858 607.01 276.498C600.65 270.138 597.688 261.6 598.124 253.236C606.488 252.801 615.026 255.763 621.386 262.123Z" fill="#F4EDE5"/>
<path d="M640.894 245.093C647.254 251.453 650.216 259.991 649.78 268.355C641.416 268.791 632.878 265.828 626.518 259.468C620.158 253.108 617.196 244.57 617.632 236.206C625.996 235.771 634.534 238.733 640.894 245.093Z" fill="#F4EDE5"/>
<path d="M633.05 341.395C639.41 347.755 642.372 356.293 641.937 364.657C633.573 365.093 625.035 362.131 618.675 355.771C612.315 349.411 609.352 340.873 609.788 332.509C618.152 332.073 626.69 335.035 633.05 341.395Z" fill="#F4EDE5"/>
<path d="M650.046 322.613C656.406 328.973 659.368 337.511 658.933 345.875C650.569 346.311 642.031 343.348 635.671 336.988C629.311 330.628 626.348 322.09 626.784 313.726C635.148 313.291 643.686 316.253 650.046 322.613Z" fill="#F4EDE5"/>
<path d="M667.027 303.839C673.387 310.199 676.349 318.737 675.913 327.101C667.549 327.537 659.011 324.575 652.651 318.215C646.291 311.854 643.329 303.316 643.765 294.953C652.128 294.517 660.667 297.479 667.027 303.839Z" fill="#F4EDE5"/>
<path d="M684.026 284.938C690.386 291.298 693.349 299.836 692.913 308.2C684.549 308.636 676.011 305.674 669.651 299.314C663.291 292.954 660.329 284.416 660.765 276.052C669.128 275.616 677.666 278.578 684.026 284.938Z" fill="#F4EDE5"/>
<path d="M535.745 207.634C529.385 201.274 526.423 192.736 526.858 184.372C535.222 183.937 543.76 186.899 550.12 193.259C556.48 199.619 559.442 208.157 559.007 216.521C550.643 216.957 542.105 213.994 535.745 207.634Z" fill="#F4EDE5"/>
<path d="M502.983 207.634C496.623 201.274 493.661 192.736 494.097 184.372C502.46 183.937 510.999 186.899 517.359 193.259C523.719 199.619 526.681 208.157 526.245 216.521C517.881 216.957 509.343 213.994 502.983 207.634Z" fill="#F4EDE5"/>
<path d="M470.136 207.634C463.776 201.274 460.813 192.736 461.249 184.372C469.613 183.937 478.151 186.899 484.511 193.259C490.871 199.619 493.833 208.157 493.397 216.521C485.034 216.957 476.496 213.994 470.136 207.634Z" fill="#F4EDE5"/>
<path d="M661.546 207.634C655.186 201.274 652.223 192.736 652.659 184.372C661.023 183.937 669.561 186.899 675.921 193.259C682.281 199.619 685.243 208.157 684.808 216.521C676.444 216.957 667.906 213.994 661.546 207.634Z" fill="#F4EDE5"/>
<path d="M630.96 207.634C624.6 201.274 621.638 192.736 622.073 184.372C630.437 183.937 638.975 186.899 645.335 193.259C651.695 199.619 654.657 208.157 654.222 216.521C645.858 216.957 637.32 213.994 630.96 207.634Z" fill="#F4EDE5"/>
<path d="M600.475 207.634C594.115 201.274 591.153 192.736 591.589 184.372C599.953 183.937 608.491 186.899 614.851 193.259C621.211 199.619 624.173 208.157 623.737 216.521C615.373 216.957 606.835 213.994 600.475 207.634Z" fill="#F4EDE5"/>
<path d="M455.159 115.195C461.519 121.555 464.482 130.093 464.046 138.457C455.682 138.892 447.144 135.93 440.784 129.57C434.424 123.21 431.462 114.672 431.897 106.308C440.261 105.872 448.799 108.835 455.159 115.195Z" fill="#F4EDE5"/>
<path d="M472.577 96.9837C478.937 103.344 481.9 111.882 481.464 120.246C473.1 120.681 464.562 117.719 458.202 111.359C451.842 104.999 448.88 96.4609 449.315 88.0971C457.679 87.6614 466.217 90.6236 472.577 96.9837Z" fill="#F4EDE5"/>
<path d="M489.995 78.7459C496.355 85.1059 499.317 93.644 498.882 102.008C490.518 102.443 481.98 99.4812 475.62 93.1212C469.26 86.7612 466.298 78.2231 466.733 69.8593C475.097 69.4237 483.635 72.3858 489.995 78.7459Z" fill="#F4EDE5"/>
<path d="M507.437 60.5086C513.797 66.8686 516.759 75.4067 516.323 83.7705C507.959 84.2061 499.421 81.2439 493.061 74.8839C486.701 68.5239 483.739 59.9858 484.175 51.622C492.539 51.1863 501.077 54.1485 507.437 60.5086Z" fill="#F4EDE5"/>
<path d="M524.851 42.2708C531.211 48.6308 534.173 57.1689 533.737 65.5327C525.373 65.9683 516.835 63.0061 510.475 56.6461C504.115 50.2861 501.153 41.748 501.589 33.3842C509.953 32.9486 518.491 35.9108 524.851 42.2708Z" fill="#F4EDE5"/>
<path d="M340.14 91.3074C346.5 97.6674 349.462 106.205 349.026 114.569C340.663 115.005 332.124 112.043 325.764 105.683C319.404 99.3227 316.442 90.7846 316.878 82.4208C325.242 81.9852 333.78 84.9474 340.14 91.3074Z" fill="#F4EDE5"/>
<path d="M340.14 58.4827C346.5 64.8427 349.462 73.3808 349.026 81.7446C340.663 82.1803 332.124 79.2181 325.764 72.858C319.404 66.498 316.442 57.9599 316.878 49.5961C325.242 49.1605 333.78 52.1227 340.14 58.4827Z" fill="#F4EDE5"/>
<path d="M340.14 25.6765C346.5 32.0365 349.462 40.5746 349.026 48.9385C340.663 49.3741 332.124 46.4119 325.764 40.0519C319.404 33.6919 316.442 25.1538 316.878 16.7899C325.242 16.3543 333.78 19.3165 340.14 25.6765Z" fill="#F4EDE5"/>
<path d="M99.4249 147.483C105.785 153.843 108.747 162.381 108.312 170.745C99.9477 171.18 91.4096 168.218 85.0495 161.858C78.6895 155.498 75.7274 146.96 76.163 138.596C84.5268 138.16 93.0649 141.123 99.4249 147.483Z" fill="#F4EDE5"/>
<path d="M131.917 147.483C138.277 153.843 141.239 162.381 140.804 170.745C132.44 171.18 123.902 168.218 117.542 161.858C111.182 155.498 108.22 146.96 108.655 138.596C117.019 138.16 125.557 141.123 131.917 147.483Z" fill="#F4EDE5"/>
<path d="M164.429 147.483C170.789 153.843 173.751 162.381 173.315 170.745C164.952 171.18 156.414 168.218 150.054 161.858C143.694 155.498 140.731 146.96 141.167 138.596C149.531 138.16 158.069 141.123 164.429 147.483Z" fill="#F4EDE5"/>
<path d="M196.917 147.483C203.277 153.843 206.239 162.381 205.804 170.745C197.44 171.18 188.902 168.218 182.542 161.858C176.182 155.498 173.22 146.96 173.655 138.596C182.019 138.16 190.557 141.123 196.917 147.483Z" fill="#F4EDE5"/>
<path d="M229.499 147.483C235.859 153.843 238.821 162.381 238.386 170.745C230.022 171.18 221.484 168.218 215.124 161.858C208.764 155.498 205.802 146.96 206.237 138.596C214.601 138.16 223.139 141.123 229.499 147.483Z" fill="#F4EDE5"/>
<path d="M262.003 147.483C268.363 153.843 271.325 162.381 270.89 170.745C262.526 171.18 253.988 168.218 247.628 161.858C241.268 155.498 238.305 146.96 238.741 138.596C247.105 138.16 255.643 141.123 262.003 147.483Z" fill="#F4EDE5"/>
<path d="M316.971 322.749C310.611 329.109 307.649 337.647 308.085 346.011C316.449 346.446 324.987 343.484 331.347 337.124C337.707 330.764 340.669 322.226 340.233 313.862C331.87 313.427 323.331 316.389 316.971 322.749Z" fill="#F4EDE5"/>
<path d="M297.628 306.409C291.268 312.769 288.305 321.308 288.741 329.671C297.105 330.107 305.643 327.145 312.003 320.785C318.363 314.425 321.325 305.887 320.89 297.523C312.526 297.087 303.988 300.049 297.628 306.409Z" fill="#F4EDE5"/>
<path d="M278.284 290.07C271.924 296.43 268.962 304.968 269.397 313.332C277.761 313.768 286.299 310.805 292.659 304.445C299.019 298.085 301.982 289.547 301.546 281.183C293.182 280.748 284.644 283.71 278.284 290.07Z" fill="#F4EDE5"/>
</svg>
