<svg width="18" height="16" viewBox="0 0 18 16" fill="none" xmlns="http://www.w3.org/2000/svg">
<g clip-path="url(#clip0_5468_28368)">
<path d="M12.341 3.84685C12.1152 3.84685 11.9365 3.66813 11.9365 3.44238V1.49529C11.9365 1.26954 12.1152 1.09082 12.341 1.09082C12.5667 1.09082 12.7455 1.26954 12.7455 1.49529V3.45178C12.7455 3.67753 12.5667 3.85625 12.341 3.85625V3.84685Z" fill="#1D1D1B"/>
<path d="M14.5051 5.587C14.2793 5.587 14.1006 5.40828 14.1006 5.18253V1.49529C14.1006 1.26954 14.2793 1.09082 14.5051 1.09082C14.7308 1.09082 14.9095 1.26954 14.9095 1.49529V5.18253C14.9095 5.40828 14.7308 5.587 14.5051 5.587Z" fill="#1D1D1B"/>
<path d="M14.5041 1.89976H12.3312C12.1055 1.89976 11.9268 1.72104 11.9268 1.49529C11.9268 1.26954 12.1055 1.09082 12.3312 1.09082H14.5041C14.7298 1.09082 14.9085 1.26954 14.9085 1.49529C14.9085 1.72104 14.7298 1.89976 14.5041 1.89976Z" fill="#1D1D1B"/>
<path d="M0.404468 15.9997C0.178718 15.9997 0 15.8116 0 15.5952V6.91326C0 6.68751 0.178718 6.50879 0.404468 6.50879C0.630217 6.50879 0.808936 6.68751 0.808936 6.91326V15.5858C0.808936 15.8116 0.630217 15.9903 0.404468 15.9903V15.9997Z" fill="#1D1D1B"/>
<path d="M16.6769 15.9997C16.4512 15.9997 16.2725 15.821 16.2725 15.5952V6.91326C16.2725 6.68751 16.4512 6.50879 16.6769 6.50879C16.9027 6.50879 17.0814 6.68751 17.0814 6.91326V15.5858C17.0814 15.8116 16.9027 15.9903 16.6769 15.9903V15.9997Z" fill="#1D1D1B"/>
<path d="M16.6772 15.9994H0.404468C0.178718 15.9994 0 15.8112 0 15.5949C0 15.3786 0.178718 15.1904 0.404468 15.1904H16.6772C16.903 15.1904 17.0817 15.3691 17.0817 15.5949C17.0817 15.8206 16.903 15.9994 16.6772 15.9994Z" fill="#1D1D1B"/>
<path d="M0.404523 7.3181C0.282242 7.3181 0.169367 7.26167 0.084711 7.1676C-0.0563824 6.98888 -0.0281637 6.73492 0.150555 6.59382L8.28695 0.084711C8.46566 -0.0563824 8.71963 -0.0281637 8.86072 0.150555C9.00182 0.329273 8.9736 0.583241 8.79488 0.724335L0.658491 7.23345C0.583241 7.28988 0.489179 7.3181 0.404523 7.3181Z" fill="#1D1D1B"/>
<path d="M12.3414 3.8472C12.2567 3.8472 12.1626 3.81898 12.0874 3.76255L8.28727 0.724335C8.10856 0.583241 8.08034 0.329273 8.22143 0.150555C8.36252 -0.0281637 8.61649 -0.0563824 8.79521 0.084711L12.5953 3.12292C12.774 3.26402 12.8023 3.51799 12.6612 3.6967C12.5765 3.80017 12.4636 3.8472 12.3414 3.8472Z" fill="#1D1D1B"/>
<path d="M16.677 7.31806C16.5923 7.31806 16.4983 7.28984 16.423 7.2334L14.2502 5.50266C14.0714 5.36156 14.0432 5.10759 14.1843 4.92887C14.3254 4.75016 14.5794 4.72194 14.7581 4.86303L16.9309 6.59378C17.1097 6.73487 17.1379 6.98884 16.9968 7.16756C16.9121 7.27103 16.7993 7.31806 16.677 7.31806Z" fill="#1D1D1B"/>
<path d="M4.74964 13.7613H2.49215C2.33224 13.7613 2.20996 13.639 2.20996 13.4791V11.2216C2.20996 11.0617 2.33224 10.9395 2.49215 10.9395C2.65205 10.9395 2.77434 11.0617 2.77434 11.2216V13.1969H4.74964C4.90955 13.1969 5.03183 13.3192 5.03183 13.4791C5.03183 13.639 4.90955 13.7613 4.74964 13.7613Z" fill="#1D1D1B"/>
<path d="M4.75016 13.8083H2.49266C2.31395 13.8083 2.17285 13.6672 2.17285 13.4884V11.2309C2.17285 11.0522 2.31395 10.9111 2.49266 10.9111C2.67138 10.9111 2.81248 11.0522 2.81248 11.2309V13.1686H4.75016C4.92888 13.1686 5.06997 13.3097 5.06997 13.4884C5.06997 13.6672 4.92888 13.8083 4.75016 13.8083ZM2.48326 10.977C2.35157 10.977 2.2387 11.0804 2.2387 11.2215V13.479C2.2387 13.6107 2.34216 13.7236 2.48326 13.7236H4.74075C4.87244 13.7236 4.98532 13.6201 4.98532 13.479C4.98532 13.3379 4.88185 13.2345 4.74075 13.2345H2.71841V11.2121C2.71841 11.0804 2.61494 10.9676 2.47385 10.9676L2.48326 10.977Z" fill="#1D1D1B"/>
<path d="M3.98824 12.2567C3.91299 12.2567 3.84715 12.2284 3.79071 12.172C3.67784 12.0591 3.67784 11.8804 3.79071 11.777L9.0582 6.50946C9.17108 6.39659 9.34979 6.39659 9.45326 6.50946C9.56614 6.62234 9.56614 6.80105 9.45326 6.90452L4.18577 12.172C4.12933 12.2284 4.05408 12.2567 3.98824 12.2567Z" fill="#1D1D1B"/>
<path d="M3.98876 12.2941C3.9041 12.2941 3.81944 12.2564 3.76301 12.2C3.69716 12.1342 3.66895 12.0589 3.66895 11.9743C3.66895 11.8896 3.70657 11.8049 3.76301 11.7485L9.0305 6.48101C9.15278 6.35873 9.35972 6.34933 9.4914 6.48101C9.61368 6.60329 9.61368 6.81023 9.4914 6.94192L4.22391 12.2094C4.15807 12.2753 4.08282 12.3035 3.99816 12.3035L3.98876 12.2941ZM9.26565 6.4622C9.19981 6.4622 9.14337 6.49042 9.09634 6.52804L3.82885 11.7955C3.82885 11.7955 3.7536 11.899 3.7536 11.9648C3.7536 12.0307 3.78182 12.0871 3.82885 12.1342C3.92291 12.2282 4.07341 12.2188 4.16748 12.1342L9.43497 6.86667C9.52903 6.77261 9.52903 6.62211 9.43497 6.52804C9.38793 6.48101 9.32209 6.4622 9.26565 6.4622Z" fill="#1D1D1B"/>
<path d="M2.48336 13.7618C2.40811 13.7618 2.34227 13.7335 2.28583 13.6771C2.17295 13.5642 2.17295 13.3855 2.28583 13.282L3.79083 11.777C3.9037 11.6642 4.08242 11.6642 4.18589 11.777C4.29876 11.8899 4.29876 12.0686 4.18589 12.1721L2.68089 13.6771C2.62445 13.7335 2.5492 13.7618 2.48336 13.7618Z" fill="#1D1D1B"/>
<path d="M2.48348 13.8086C2.39882 13.8086 2.31416 13.7709 2.25773 13.7145C2.13545 13.5922 2.13545 13.3853 2.25773 13.2536L3.76272 11.7486C3.885 11.6169 4.09194 11.6263 4.22363 11.7486C4.34591 11.8709 4.34591 12.0778 4.22363 12.2095L2.71863 13.7145C2.66219 13.7803 2.57754 13.8086 2.49288 13.8086H2.48348ZM3.98847 11.7298C3.92263 11.7298 3.86619 11.758 3.81916 11.7956L2.31416 13.3006C2.2201 13.3947 2.2201 13.5452 2.31416 13.6392C2.40823 13.7333 2.56813 13.7333 2.65279 13.6392L4.15779 12.1342C4.25185 12.0402 4.25185 11.8897 4.15779 11.7956C4.11075 11.7486 4.04491 11.7298 3.98847 11.7298Z" fill="#1D1D1B"/>
<path d="M10.7702 7.74081C10.6102 7.74081 10.488 7.61853 10.488 7.45863V5.48332H8.51266C8.35275 5.48332 8.23047 5.36104 8.23047 5.20113C8.23047 5.04123 8.35275 4.91895 8.51266 4.91895H10.7702C10.9301 4.91895 11.0523 5.04123 11.0523 5.20113V7.45863C11.0523 7.61853 10.9301 7.74081 10.7702 7.74081Z" fill="#1D1D1B"/>
<path d="M10.7697 7.77896C10.591 7.77896 10.4499 7.63786 10.4499 7.45914V5.52146H8.51219C8.33348 5.52146 8.19238 5.38037 8.19238 5.20165C8.19238 5.02293 8.33348 4.88184 8.51219 4.88184H10.7697C10.9484 4.88184 11.0895 5.02293 11.0895 5.20165V7.45914C11.0895 7.63786 10.9484 7.77896 10.7697 7.77896ZM8.51219 4.95709C8.38051 4.95709 8.26763 5.06055 8.26763 5.20165C8.26763 5.34274 8.3711 5.44621 8.51219 5.44621H10.5345V7.46855C10.5345 7.60024 10.638 7.71311 10.7791 7.71311C10.9202 7.71311 11.0237 7.60964 11.0237 7.46855V5.21105C11.0237 5.07937 10.9202 4.96649 10.7791 4.96649H8.5216L8.51219 4.95709Z" fill="#1D1D1B"/>
<path d="M9.26559 6.98832C9.19034 6.98832 9.12449 6.9601 9.06805 6.90366C8.95518 6.79079 8.95518 6.61207 9.06805 6.5086L10.5731 5.0036C10.6859 4.89073 10.8646 4.89073 10.9681 5.0036C11.081 5.11648 11.081 5.29519 10.9681 5.39866L9.46312 6.90366C9.40668 6.9601 9.33143 6.98832 9.26559 6.98832Z" fill="#1D1D1B"/>
<path d="M9.2657 7.02667C9.18105 7.02667 9.09639 6.98905 9.03995 6.93261C8.91767 6.81033 8.91767 6.60339 9.03995 6.47171L10.545 4.96671C10.6672 4.84443 10.8742 4.84443 11.0059 4.96671C11.1281 5.08899 11.1281 5.29593 11.0059 5.42762L9.50086 6.93261C9.43502 6.99846 9.35976 7.02667 9.27511 7.02667H9.2657ZM10.7707 4.9573C10.7049 4.9573 10.6484 4.98552 10.6014 5.02315L9.09639 6.52814C9.09639 6.52814 9.03055 6.63161 9.03055 6.69746C9.03055 6.7633 9.05877 6.81974 9.09639 6.86677C9.19045 6.96083 9.34095 6.96083 9.43501 6.86677L10.94 5.36177C11.0341 5.26771 11.0341 5.11721 10.94 5.02315C10.893 4.97612 10.8271 4.9573 10.7707 4.9573Z" fill="#1D1D1B"/>
</g>
<defs>
<clipPath id="clip0_5468_28368">
<rect width="17.0817" height="16" fill="white"/>
</clipPath>
</defs>
</svg>
