<svg width="23" height="12" viewBox="0 0 23 12" fill="none" xmlns="http://www.w3.org/2000/svg">
<g id="Layer_1" clip-path="url(#clip0_5468_28395)">
<path id="Vector" d="M0.527178 8.39017C0.232316 8.39017 0 8.14892 0 7.86299V0.527178C0 0.232316 0.241251 0 0.527178 0C0.813105 0 1.05436 0.241251 1.05436 0.527178V7.86299C1.05436 8.15786 0.813105 8.39017 0.527178 8.39017Z" fill="#1D1D1B"/>
<path id="Vector_2" d="M20.3187 6.71842H0.705889C0.411027 6.71842 0.178711 6.47717 0.178711 6.19124C0.178711 5.90531 0.419962 5.66406 0.705889 5.66406H20.3276C20.6225 5.66406 20.8548 5.90531 20.8548 6.19124C20.8548 6.47717 20.6136 6.71842 20.3276 6.71842H20.3187Z" fill="#1D1D1B"/>
<path id="Vector_3" d="M0.527178 10.5789C0.232316 10.5789 0 10.3377 0 10.0517V7.59456C0 7.2997 0.241251 7.06738 0.527178 7.06738C0.813105 7.06738 1.05436 7.30863 1.05436 7.59456V10.0517C1.05436 10.3466 0.813105 10.5789 0.527178 10.5789Z" fill="#1D1D1B"/>
<path id="Vector_4" d="M21.7391 10.5799C21.4442 10.5799 21.2119 10.3386 21.2119 10.0527V7.59554C21.2119 7.30068 21.4532 7.06836 21.7391 7.06836C22.025 7.06836 22.2663 7.30961 22.2663 7.59554V10.0527C22.2663 10.3476 22.025 10.5799 21.7391 10.5799Z" fill="#1D1D1B"/>
<path id="Vector_5" d="M21.7397 8.13018C21.4449 8.13018 21.2125 7.88893 21.2125 7.60301C21.2125 7.11157 20.8194 6.71842 20.328 6.71842C20.0331 6.71842 19.8008 6.47717 19.8008 6.19124C19.8008 5.90531 20.042 5.66406 20.328 5.66406C21.4002 5.66406 22.2758 6.53971 22.2758 7.61194C22.2758 7.9068 22.0346 8.13912 21.7487 8.13912L21.7397 8.13018Z" fill="#1D1D1B"/>
<path id="Vector_6" d="M21.7394 10.5797H0.527178C0.232316 10.5797 0 10.3385 0 10.0526C0 9.76664 0.241251 9.52539 0.527178 9.52539H21.7305C22.0253 9.52539 22.2576 9.76664 22.2576 10.0526C22.2576 10.3385 22.0164 10.5797 21.7305 10.5797H21.7394Z" fill="#1D1D1B"/>
<path id="Vector_7" d="M1.94808 12.0003C1.65321 12.0003 1.4209 11.759 1.4209 11.4731V10.0614C1.4209 9.7665 1.66215 9.53418 1.94808 9.53418C2.234 9.53418 2.47525 9.77543 2.47525 10.0614V11.4731C2.47525 11.768 2.234 12.0003 1.94808 12.0003Z" fill="#1D1D1B"/>
<path id="Vector_8" d="M20.3182 12.0003C20.0233 12.0003 19.791 11.759 19.791 11.4731V10.0614C19.791 9.7665 20.0323 9.53418 20.3182 9.53418C20.6041 9.53418 20.8454 9.77543 20.8454 10.0614V11.4731C20.8454 11.768 20.6041 12.0003 20.3182 12.0003Z" fill="#1D1D1B"/>
<path id="Vector_9" d="M6.22747 5.65616C5.9326 5.65616 5.69135 5.41491 5.69135 5.12005C5.69135 4.62861 5.28927 4.22652 4.79783 4.22652C4.50297 4.22652 4.26172 3.98527 4.26172 3.69041C4.26172 3.39555 4.50297 3.1543 4.79783 3.1543C5.87899 3.1543 6.75465 4.02995 6.75465 5.11111C6.75465 5.40597 6.51339 5.64722 6.21853 5.64722L6.22747 5.65616Z" fill="#1D1D1B"/>
<path id="Vector_10" d="M4.80715 4.22652H0.536113C0.241251 4.22652 0 3.98527 0 3.69041C0 3.39555 0.241251 3.1543 0.536113 3.1543H4.80715C5.10201 3.1543 5.34326 3.39555 5.34326 3.69041C5.34326 3.98527 5.10201 4.22652 4.80715 4.22652Z" fill="#1D1D1B"/>
<path id="Vector_11" d="M6.22752 6.7195C5.93266 6.7195 5.69141 6.47825 5.69141 6.18339V5.1201C5.69141 4.82524 5.93266 4.58398 6.22752 4.58398C6.52238 4.58398 6.76363 4.82524 6.76363 5.1201V6.18339C6.76363 6.47825 6.52238 6.7195 6.22752 6.7195Z" fill="#1D1D1B"/>
</g>
<defs>
<clipPath id="clip0_5468_28395">
<rect width="22.2666" height="12" fill="white"/>
</clipPath>
</defs>
</svg>
