<svg width="22" height="12" viewBox="0 0 22 12" fill="none" xmlns="http://www.w3.org/2000/svg">
<g clip-path="url(#clip0_5468_28363)">
<path d="M10.8059 12C6.1228 12 3.21807 10.4587 0.101623 6.3091C-0.0338744 6.12279 -0.0338744 5.87721 0.101623 5.6909C3.21807 1.54128 6.1228 0 10.8059 0C15.4891 0 18.3853 1.54128 21.5018 5.6909C21.6373 5.87721 21.6373 6.12279 21.5018 6.3091C18.3853 10.4587 15.4806 12 10.8059 12ZM1.1602 6.00423C3.99718 9.67114 6.55469 10.9753 10.7975 10.9753C15.0402 10.9753 17.6062 9.66267 20.4347 6.00423C17.5977 2.33733 15.0402 1.03317 10.7975 1.03317C6.55469 1.03317 3.99718 2.33733 1.1602 6.00423Z" fill="#1D1D1B"/>
<path d="M10.807 12C7.49575 12 4.80273 9.30699 4.80273 5.99577C4.80273 2.68454 7.49575 0 10.807 0C14.1182 0 16.8112 2.69301 16.8112 6.00423C16.8112 9.31546 14.1182 12.0085 10.807 12.0085V12ZM10.807 1.0247C8.06314 1.0247 5.8359 3.25194 5.8359 5.99577C5.8359 8.73959 8.06314 10.9668 10.807 10.9668C13.5508 10.9668 15.778 8.73959 15.778 5.99577C15.778 3.25194 13.5423 1.0247 10.807 1.0247Z" fill="#1D1D1B"/>
<path d="M10.8059 8.57078C9.39164 8.57078 8.23145 7.41905 8.23145 5.99633C8.23145 4.5736 9.38317 3.42188 10.8059 3.42188C12.2286 3.42188 13.3804 4.5736 13.3804 5.99633C13.3804 7.41905 12.2286 8.57078 10.8059 8.57078ZM10.8059 4.45504C9.95904 4.45504 9.26461 5.14947 9.26461 5.99633C9.26461 6.84319 9.95904 7.53761 10.8059 7.53761C11.6528 7.53761 12.3472 6.84319 12.3472 5.99633C12.3472 5.14947 11.6528 4.45504 10.8059 4.45504Z" fill="#1D1D1B"/>
</g>
<defs>
<clipPath id="clip0_5468_28363">
<rect width="21.6034" height="12" fill="white"/>
</clipPath>
</defs>
</svg>
