<svg width="120" height="120" viewBox="0 0 120 120" fill="none" xmlns="http://www.w3.org/2000/svg">
<path d="M74.5238 92.6999C71.386 92.6999 68.8249 90.1389 68.8249 87.001V67.574C66.4254 66.9049 64.6719 64.6899 64.6719 62.0827C64.6719 42.2635 70.6938 27.3125 78.6769 27.3125C79.5305 27.3125 80.2227 28.0047 80.2227 28.8584V87.001C80.2227 90.1389 77.6617 92.6999 74.5238 92.6999ZM77.131 30.7964C72.4473 33.0806 67.7867 45.286 67.7867 62.0827C67.7867 63.5132 68.9403 64.6669 70.3708 64.6669C71.2245 64.6669 71.9166 65.359 71.9166 66.2127V86.978C71.9166 88.4084 73.0703 89.5621 74.5008 89.5621C75.9312 89.5621 77.0849 88.4084 77.0849 86.978V30.7964H77.131Z" fill="#939598"/>
<path d="M53.7823 55.3225H45.4762C42.3384 55.3225 39.7773 52.7614 39.7773 49.6236V28.8584C39.7773 28.0047 40.4695 27.3125 41.3232 27.3125C42.1769 27.3125 42.8691 28.0047 42.8691 28.8584V49.6236C42.8691 51.0541 44.0227 52.2077 45.4532 52.2077H53.7593C55.1898 52.2077 56.3434 51.0541 56.3434 49.6236V28.8584C56.3434 28.0047 57.0356 27.3125 57.8892 27.3125C58.7429 27.3125 59.4351 28.0047 59.4351 28.8584V49.6236C59.4351 52.7614 56.8741 55.3225 53.7362 55.3225H53.7823Z" fill="#939598"/>
<path d="M49.6286 92.7035C46.4907 92.7035 43.9297 90.1425 43.9297 87.0046V53.7802C43.9297 52.9265 44.6219 52.2344 45.4755 52.2344C46.3292 52.2344 47.0214 52.9265 47.0214 53.7802V87.0046C47.0214 88.4351 48.175 89.5887 49.6055 89.5887C51.036 89.5887 52.1896 88.4351 52.1896 87.0046V53.7802C52.1896 52.9265 52.8818 52.2344 53.7355 52.2344C54.5892 52.2344 55.2813 52.9265 55.2813 53.7802V87.0046C55.2813 90.1425 52.7203 92.7035 49.5824 92.7035H49.6286Z" fill="#939598"/>
<path d="M49.6298 55.3225C48.7762 55.3225 48.084 54.6303 48.084 53.7766V28.8584C48.084 28.0047 48.7762 27.3125 49.6298 27.3125C50.4835 27.3125 51.1757 28.0047 51.1757 28.8584V53.7766C51.1757 54.6303 50.4835 55.3225 49.6298 55.3225Z" fill="#939598"/>
</svg>
