<svg width="15" height="17" viewBox="0 0 15 17" fill="none" xmlns="http://www.w3.org/2000/svg">
<g id="Layer_1" clip-path="url(#clip0_5468_28391)">
<path id="Vector" d="M7.00781 9C4.80008 9 3.00781 6.97826 3.00781 4.5C3.00781 2.02174 4.80008 0 7.00781 0C9.21554 0 11.0078 2.02174 11.0078 4.5C11.0078 6.97826 9.21071 9 7.00781 9ZM7.00781 0.771739C5.18173 0.771739 3.6938 2.44565 3.6938 4.5C3.6938 6.55435 5.18173 8.22826 7.00781 8.22826C8.8339 8.22826 10.3218 6.55435 10.3218 4.5C10.3218 2.44565 8.8339 0.771739 7.00781 0.771739Z" fill="#1D1D1B" stroke="black" stroke-width="0.2"/>
<path id="Vector_2" d="M14.118 16.5C13.9081 16.5 13.736 16.3255 13.736 16.1128C13.736 11.3194 12.2832 9.27437 8.88816 9.27437H6.11184C2.71138 9.27437 1.26403 11.3194 1.26403 16.1128C1.26403 16.3255 1.09185 16.5 0.882014 16.5C0.672175 16.5 0.5 16.3255 0.5 16.1128C0.5 13.6861 0.849732 11.9792 1.59224 10.7468C2.49616 9.25256 4.01884 8.5 6.11184 8.5H8.88816C10.9865 8.5 12.5038 9.25801 13.4078 10.7468C14.1556 11.9792 14.5 13.6806 14.5 16.1128C14.5 16.3255 14.3278 16.5 14.118 16.5Z" fill="#1D1D1B" stroke="black" stroke-width="0.2"/>
</g>
<defs>
<clipPath id="clip0_5468_28391">
<rect width="15" height="17" fill="white"/>
</clipPath>
</defs>
</svg>
