<svg width="36" height="36" viewBox="0 0 36 36" fill="none" xmlns="http://www.w3.org/2000/svg">
<g id="menu_black_36dp 1" clip-path="url(#clip0_6364_3858)">
<path id="Vector" d="M10.5763 7.95324C9.9905 7.36745 9.04075 7.36745 8.45496 7.95324C7.86918 8.53902 7.86918 9.48877 8.45496 10.0746L25.4255 27.0451C26.0113 27.6309 26.9611 27.6309 27.5468 27.0451C28.1326 26.4593 28.1326 25.5096 27.5468 24.9238L10.5763 7.95324Z" fill="#715137"/>
<path id="Vector_2" d="M27.5468 10.0743C28.1325 9.48855 28.1325 8.5388 27.5468 7.95301C26.961 7.36723 26.0112 7.36723 25.4254 7.95301L8.45488 24.9236C7.86909 25.5094 7.86909 26.4591 8.45488 27.0449C9.04067 27.6307 9.99041 27.6307 10.5762 27.0449L27.5468 10.0743Z" fill="#715137"/>
</g>
<defs>
<clipPath id="clip0_6364_3858">
<rect width="36" height="36" fill="white"/>
</clipPath>
</defs>
</svg>
