<svg width="36" height="36" viewBox="0 0 36 36" fill="none" xmlns="http://www.w3.org/2000/svg">
<g clip-path="url(#clip0_6342_1604)">
<path d="M4.5 25.5C4.5 26.3284 5.17157 27 6 27H30C30.8284 27 31.5 26.3284 31.5 25.5C31.5 24.6716 30.8284 24 30 24H6C5.17157 24 4.5 24.6716 4.5 25.5ZM4.5 18C4.5 18.8284 5.17157 19.5 6 19.5H30C30.8284 19.5 31.5 18.8284 31.5 18C31.5 17.1716 30.8284 16.5 30 16.5H6C5.17157 16.5 4.5 17.1716 4.5 18ZM6 9C5.17157 9 4.5 9.67157 4.5 10.5C4.5 11.3284 5.17157 12 6 12H30C30.8284 12 31.5 11.3284 31.5 10.5C31.5 9.67157 30.8284 9 30 9H6Z" fill="#715137"/>
</g>
<defs>
<clipPath id="clip0_6342_1604">
<rect width="36" height="36" fill="white"/>
</clipPath>
</defs>
</svg>
